<svg width="39" height="39" viewBox="0 0 39 39" fill="none" xmlns="http://www.w3.org/2000/svg">
<rect width="39" height="39" rx="19.5" fill="#65991D"/>
<path d="M12.1677 27.5084C12.9395 27.004 13.4516 26.1339 13.4516 25.1452C13.4516 23.5888 12.185 22.3226 10.629 22.3226C9.07303 22.3226 7.80645 23.5888 7.80645 25.1452C7.80645 26.1339 8.31855 27.004 9.09037 27.5084C7.85726 28.0886 7 29.3399 7 30.7903V31.5968C7 31.8193 7.18014 32 7.40323 32H13.8548C14.0779 32 14.2581 31.8193 14.2581 31.5968V30.7903C14.2581 29.3399 13.4008 28.0886 12.1677 27.5084ZM12.6044 24.7419H12.2419C11.5751 24.7419 11.0323 24.1991 11.0323 23.5323V23.1698C11.821 23.3306 12.4435 23.9532 12.6044 24.7419ZM10.2258 23.1698V23.5323C10.2258 24.1991 9.68296 24.7419 9.01613 24.7419H8.65368C8.81452 23.9532 9.4371 23.3306 10.2258 23.1698ZM8.65368 25.5484H9.01613C9.67787 25.5484 10.2612 25.2233 10.629 24.7295C10.9968 25.2233 11.5802 25.5484 12.2419 25.5484H12.6044C12.417 26.4672 11.6029 27.1613 10.629 27.1613C9.65519 27.1613 8.84108 26.4672 8.65368 25.5484ZM13.4516 31.1935H7.80645V30.7903C7.80645 29.2339 9.07303 27.9677 10.629 27.9677C12.185 27.9677 13.4516 29.2339 13.4516 30.7903V31.1935ZM29.9096 27.5084C30.6815 27.004 31.1935 26.1339 31.1935 25.1452C31.1935 23.5888 29.927 22.3226 28.371 22.3226C26.815 22.3226 25.5484 23.5888 25.5484 25.1452C25.5484 26.1339 26.0605 27.004 26.8323 27.5084C25.5992 28.0886 24.7419 29.3399 24.7419 30.7903V31.5968C24.7419 31.8193 24.9221 32 25.1452 32H31.5968C31.8199 32 32 31.8193 32 31.5968V30.7903C32 29.3399 31.1427 28.0886 29.9096 27.5084ZM30.3463 24.7419H29.9839C29.317 24.7419 28.7742 24.1991 28.7742 23.5323V23.1698C29.5629 23.3306 30.1855 23.9532 30.3463 24.7419ZM27.9677 23.1698V23.5323C27.9677 24.1991 27.4249 24.7419 26.7581 24.7419H26.3956C26.5565 23.9532 27.179 23.3306 27.9677 23.1698ZM26.3956 25.5484H26.7581C27.4198 25.5484 28.0032 25.2233 28.371 24.7295C28.7388 25.2233 29.3221 25.5484 29.9839 25.5484H30.3463C30.1589 26.4672 29.3448 27.1613 28.371 27.1613C27.3971 27.1613 26.583 26.4672 26.3956 25.5484ZM31.1935 31.1935H25.5484V30.7903C25.5484 29.2339 26.815 27.9677 28.371 27.9677C29.927 27.9677 31.1935 29.2339 31.1935 30.7903V31.1935ZM17.9613 12.1858C16.7282 12.766 15.871 14.0173 15.871 15.4677V16.2742C15.871 16.4967 16.0511 16.6774 16.2742 16.6774H22.7258C22.9489 16.6774 23.129 16.4967 23.129 16.2742V15.4677C23.129 14.0173 22.2718 12.766 21.0387 12.1858C21.8105 11.6814 22.3226 10.8113 22.3226 9.82258C22.3226 8.26618 21.056 7 19.5 7C17.944 7 16.6774 8.26618 16.6774 9.82258C16.6774 10.8113 17.1895 11.6814 17.9613 12.1858ZM22.3226 15.4677V15.871H16.6774V15.4677C16.6774 13.9113 17.944 12.6452 19.5 12.6452C21.056 12.6452 22.3226 13.9113 22.3226 15.4677ZM17.5246 10.2258H17.8871C18.5488 10.2258 19.1322 9.90071 19.5 9.40696C19.8678 9.90071 20.4512 10.2258 21.1129 10.2258H21.4754C21.288 11.1447 20.4738 11.8387 19.5 11.8387C18.5262 11.8387 17.712 11.1447 17.5246 10.2258ZM21.4754 9.41935H21.1129C20.4461 9.41935 19.9032 8.87651 19.9032 8.20968V7.84723C20.6919 8.00806 21.3145 8.63065 21.4754 9.41935ZM19.0968 7.84723V8.20968C19.0968 8.87651 18.5539 9.41935 17.8871 9.41935H17.5246C17.6855 8.63065 18.3081 8.00806 19.0968 7.84723ZM16.6774 25.9516C16.6774 26.0314 16.7011 26.1093 16.7454 26.1756C16.7897 26.2419 16.8527 26.2936 16.9263 26.3241C17 26.3546 17.0811 26.3626 17.1593 26.347C17.2375 26.3315 17.3093 26.2931 17.3657 26.2367L18.8605 24.7419H21.1129C21.336 24.7419 21.5161 24.5612 21.5161 24.3387V23.129H24.7419C24.965 23.129 25.1452 22.9483 25.1452 22.7258V17.8871C25.1452 17.6646 24.965 17.4839 24.7419 17.4839H17.4839C17.2608 17.4839 17.0806 17.6646 17.0806 17.8871V20.7097H14.6613C14.4382 20.7097 14.2581 20.8904 14.2581 21.1129V24.3387C14.2581 24.5612 14.4382 24.7419 14.6613 24.7419H16.6774V25.9516ZM17.8871 18.2903H24.3387V22.3226H21.5161V21.5161H22.7258V20.7097H17.8871V18.2903ZM15.0645 23.9355V21.5161H20.7097V23.9355H18.6935C18.5862 23.9355 18.4839 23.9778 18.4085 24.0536L17.4839 24.9782V24.3387C17.4839 24.1162 17.3037 23.9355 17.0806 23.9355H15.0645Z" fill="white"/>
<path d="M15.8709 22.3225H19.9032V23.1289H15.8709V22.3225ZM18.6935 19.0967H23.5322V19.9031H18.6935V19.0967ZM8.8633 21.8334C8.69663 21.0668 8.61267 20.2844 8.61285 19.4999C8.61285 14.8305 11.5813 10.6866 16.0002 9.18729L15.7412 8.42358C10.9952 10.0337 7.8064 14.485 7.8064 19.4999C7.8064 20.3437 7.89712 21.187 8.07575 22.0051L8.8633 21.8334ZM19.4999 30.387C18.0148 30.387 16.5762 30.0934 15.2233 29.5148L14.9059 30.2562C16.36 30.878 17.9055 31.1934 19.4999 31.1934C21.0943 31.1934 22.6399 30.878 24.0943 30.2562L23.7769 29.5148C22.4237 30.0934 20.9851 30.387 19.4999 30.387ZM30.387 19.4999C30.387 20.2863 30.3028 21.0713 30.1366 21.8334L30.9241 22.0055C31.1033 21.1823 31.1936 20.3423 31.1935 19.4999C31.1935 14.485 28.0047 10.0337 23.2583 8.42358L22.9992 9.18729C27.4186 10.6866 30.387 14.8305 30.387 19.4999Z" fill="white"/>
</svg>
