<svg width="39" height="39" viewBox="0 0 39 39" fill="none" xmlns="http://www.w3.org/2000/svg">
<rect width="38.6092" height="39" rx="19.3046" fill="white"/>
<mask id="path-2-inside-1_1_2478" fill="white">
<path fill-rule="evenodd" clip-rule="evenodd" d="M24.5904 25.9587L26.4668 29.9906C26.4939 30.0471 26.4871 30.1081 26.4487 30.1556C26.4125 30.2053 26.356 30.2279 26.295 30.2166L23.8721 29.7939L22.6335 31.9208C22.6042 31.9727 22.5499 32.0021 22.4889 31.9999C22.4279 31.9976 22.3782 31.9637 22.351 31.9072L20.7875 28.5489C21.8443 28.7649 22.903 28.3305 23.5052 27.4087L24.2434 26.28C24.3359 26.1393 24.4471 26.0345 24.5904 25.9587ZM17.1545 28.5489L15.5909 31.9072C15.566 31.9637 15.5141 31.9976 15.453 31.9999C15.392 32.0021 15.3378 31.9727 15.3084 31.9208L14.0721 29.7939L11.6469 30.2166C11.5859 30.2279 11.5294 30.2053 11.4932 30.1556C11.4548 30.1081 11.448 30.0471 11.4752 29.9906L13.3515 25.9587C13.4949 26.0345 13.606 26.1393 13.6985 26.28L14.4369 27.409C15.039 28.3305 16.0976 28.7649 17.1545 28.5489ZM20.0479 11.2991L21.1306 12.1105C21.4266 12.332 21.7363 12.445 22.1069 12.4653L23.4562 12.5399C24.2631 12.5851 24.9208 13.1366 25.1039 13.9231L25.4135 15.2408C25.4972 15.6002 25.6622 15.8872 25.9334 16.1404L26.9188 17.0647C27.5087 17.6185 27.6579 18.4638 27.2918 19.1848L26.6815 20.3917C26.5165 20.7217 26.4577 21.0471 26.503 21.4156L26.6634 22.7581C26.7583 23.5605 26.3312 24.3041 25.5853 24.6227L24.3445 25.1538C24.0032 25.2985 23.7501 25.5132 23.5467 25.8229L22.8076 26.953C22.3646 27.631 21.56 27.9225 20.7847 27.6897L19.4897 27.2987C19.1371 27.1902 18.8048 27.1902 18.4523 27.2987L17.1572 27.6897C16.382 27.9225 15.5773 27.631 15.1344 26.953L14.3953 25.8229C14.1919 25.5132 13.9387 25.2985 13.5974 25.1538L12.3566 24.6227C11.613 24.3041 11.1836 23.5605 11.2785 22.7581L11.439 21.4156C11.4842 21.0471 11.4254 20.7217 11.2605 20.3917L10.6502 19.1848C10.2841 18.4638 10.4332 17.6185 11.0231 17.0647L12.0085 16.1404C12.2798 15.8872 12.4448 15.6002 12.5284 15.2408L12.838 13.9231C13.0211 13.1366 13.6788 12.5851 14.4857 12.5399L15.835 12.4653C16.2057 12.445 16.5175 12.332 16.8114 12.1105L17.894 11.2991C18.5427 10.8154 19.3993 10.8154 20.0479 11.2991ZM18.9724 25.2866C22.2379 25.2866 24.9042 22.6203 24.9042 19.352C24.9042 16.0837 22.2379 13.4174 18.9724 13.4174C15.7041 13.4174 13.0378 16.0837 13.0378 19.352C13.0378 22.6203 15.7041 25.2866 18.9724 25.2866ZM17.7136 17.8471C18.3267 17.415 18.9634 16.9716 18.9634 16.1406V14.9688C19.7362 14.9688 20.3689 15.6014 20.3689 16.3742V17.2831C20.3466 17.4447 20.2569 17.6685 20.0886 17.8773H22.1699C22.477 17.8773 22.7282 18.1285 22.7282 18.4357C22.7282 18.7428 22.477 18.994 22.1699 18.994H22.4052C22.7124 18.994 22.9636 19.2452 22.9636 19.5523C22.9636 19.8595 22.7124 20.1107 22.4052 20.1107H22.013C22.3201 20.1107 22.5713 20.3619 22.5713 20.669C22.5713 20.977 22.3201 21.2282 22.013 21.2282H21.68C21.9871 21.2282 22.2383 21.4794 22.2383 21.7865C22.2383 22.0936 21.9871 22.3448 21.68 22.3448H20.7786C20.7208 22.3449 20.6634 22.3359 20.6084 22.3182C19.2835 22.5465 18.4735 22.7198 17.7017 22.1785C17.727 22.0998 17.7413 22.0078 17.7422 21.9006C17.744 21.6714 17.7438 20.3944 17.7416 18.07C17.7415 17.9949 17.7321 17.92 17.7136 17.8471ZM16.5561 18.0709C16.6309 18.0709 16.7027 18.1006 16.7556 18.1535C16.8086 18.2064 16.8383 18.2782 16.8384 18.353C16.8406 20.742 16.8405 21.9349 16.8381 21.9309H15.407C15.3322 21.9308 15.2604 21.9011 15.2075 21.8482C15.1545 21.7952 15.1248 21.7234 15.1247 21.6486V18.3533C15.1248 18.2784 15.1545 18.2066 15.2074 18.1537C15.2604 18.1007 15.3322 18.071 15.407 18.0709H16.5561ZM29.3367 20.5167C29.4123 20.0049 29.4501 19.4883 29.45 18.971C29.45 13.1874 24.7545 8.49198 18.971 8.49198C13.1874 8.49198 8.49198 13.1874 8.49198 18.971C8.49198 20.061 8.65859 21.1124 8.96802 22.101C9.09104 22.4939 8.87187 22.9128 8.47896 23.0358C8.08604 23.1587 7.66719 22.9396 7.54422 22.5467C7.19068 21.4173 7 20.2162 7 18.971C7 12.364 12.364 7 18.971 7C25.5779 7 30.9419 12.364 30.9419 18.971C30.9419 19.6406 30.8868 20.2974 30.7808 20.9372C31.0722 20.9051 31.3678 21.0475 31.5174 21.3204C31.7152 21.6814 31.5826 22.1352 31.2216 22.333L30.0443 22.9781C29.6943 23.1698 29.2555 23.0522 29.0483 22.7112L28.3512 21.5639C28.1374 21.212 28.2495 20.7528 28.6014 20.539C28.8335 20.398 29.1123 20.3988 29.3367 20.5167Z"/>
</mask>
<path fill-rule="evenodd" clip-rule="evenodd" d="M24.5904 25.9587L26.4668 29.9906C26.4939 30.0471 26.4871 30.1081 26.4487 30.1556C26.4125 30.2053 26.356 30.2279 26.295 30.2166L23.8721 29.7939L22.6335 31.9208C22.6042 31.9727 22.5499 32.0021 22.4889 31.9999C22.4279 31.9976 22.3782 31.9637 22.351 31.9072L20.7875 28.5489C21.8443 28.7649 22.903 28.3305 23.5052 27.4087L24.2434 26.28C24.3359 26.1393 24.4471 26.0345 24.5904 25.9587ZM17.1545 28.5489L15.5909 31.9072C15.566 31.9637 15.5141 31.9976 15.453 31.9999C15.392 32.0021 15.3378 31.9727 15.3084 31.9208L14.0721 29.7939L11.6469 30.2166C11.5859 30.2279 11.5294 30.2053 11.4932 30.1556C11.4548 30.1081 11.448 30.0471 11.4752 29.9906L13.3515 25.9587C13.4949 26.0345 13.606 26.1393 13.6985 26.28L14.4369 27.409C15.039 28.3305 16.0976 28.7649 17.1545 28.5489ZM20.0479 11.2991L21.1306 12.1105C21.4266 12.332 21.7363 12.445 22.1069 12.4653L23.4562 12.5399C24.2631 12.5851 24.9208 13.1366 25.1039 13.9231L25.4135 15.2408C25.4972 15.6002 25.6622 15.8872 25.9334 16.1404L26.9188 17.0647C27.5087 17.6185 27.6579 18.4638 27.2918 19.1848L26.6815 20.3917C26.5165 20.7217 26.4577 21.0471 26.503 21.4156L26.6634 22.7581C26.7583 23.5605 26.3312 24.3041 25.5853 24.6227L24.3445 25.1538C24.0032 25.2985 23.7501 25.5132 23.5467 25.8229L22.8076 26.953C22.3646 27.631 21.56 27.9225 20.7847 27.6897L19.4897 27.2987C19.1371 27.1902 18.8048 27.1902 18.4523 27.2987L17.1572 27.6897C16.382 27.9225 15.5773 27.631 15.1344 26.953L14.3953 25.8229C14.1919 25.5132 13.9387 25.2985 13.5974 25.1538L12.3566 24.6227C11.613 24.3041 11.1836 23.5605 11.2785 22.7581L11.439 21.4156C11.4842 21.0471 11.4254 20.7217 11.2605 20.3917L10.6502 19.1848C10.2841 18.4638 10.4332 17.6185 11.0231 17.0647L12.0085 16.1404C12.2798 15.8872 12.4448 15.6002 12.5284 15.2408L12.838 13.9231C13.0211 13.1366 13.6788 12.5851 14.4857 12.5399L15.835 12.4653C16.2057 12.445 16.5175 12.332 16.8114 12.1105L17.894 11.2991C18.5427 10.8154 19.3993 10.8154 20.0479 11.2991ZM18.9724 25.2866C22.2379 25.2866 24.9042 22.6203 24.9042 19.352C24.9042 16.0837 22.2379 13.4174 18.9724 13.4174C15.7041 13.4174 13.0378 16.0837 13.0378 19.352C13.0378 22.6203 15.7041 25.2866 18.9724 25.2866ZM17.7136 17.8471C18.3267 17.415 18.9634 16.9716 18.9634 16.1406V14.9688C19.7362 14.9688 20.3689 15.6014 20.3689 16.3742V17.2831C20.3466 17.4447 20.2569 17.6685 20.0886 17.8773H22.1699C22.477 17.8773 22.7282 18.1285 22.7282 18.4357C22.7282 18.7428 22.477 18.994 22.1699 18.994H22.4052C22.7124 18.994 22.9636 19.2452 22.9636 19.5523C22.9636 19.8595 22.7124 20.1107 22.4052 20.1107H22.013C22.3201 20.1107 22.5713 20.3619 22.5713 20.669C22.5713 20.977 22.3201 21.2282 22.013 21.2282H21.68C21.9871 21.2282 22.2383 21.4794 22.2383 21.7865C22.2383 22.0936 21.9871 22.3448 21.68 22.3448H20.7786C20.7208 22.3449 20.6634 22.3359 20.6084 22.3182C19.2835 22.5465 18.4735 22.7198 17.7017 22.1785C17.727 22.0998 17.7413 22.0078 17.7422 21.9006C17.744 21.6714 17.7438 20.3944 17.7416 18.07C17.7415 17.9949 17.7321 17.92 17.7136 17.8471ZM16.5561 18.0709C16.6309 18.0709 16.7027 18.1006 16.7556 18.1535C16.8086 18.2064 16.8383 18.2782 16.8384 18.353C16.8406 20.742 16.8405 21.9349 16.8381 21.9309H15.407C15.3322 21.9308 15.2604 21.9011 15.2075 21.8482C15.1545 21.7952 15.1248 21.7234 15.1247 21.6486V18.3533C15.1248 18.2784 15.1545 18.2066 15.2074 18.1537C15.2604 18.1007 15.3322 18.071 15.407 18.0709H16.5561ZM29.3367 20.5167C29.4123 20.0049 29.4501 19.4883 29.45 18.971C29.45 13.1874 24.7545 8.49198 18.971 8.49198C13.1874 8.49198 8.49198 13.1874 8.49198 18.971C8.49198 20.061 8.65859 21.1124 8.96802 22.101C9.09104 22.4939 8.87187 22.9128 8.47896 23.0358C8.08604 23.1587 7.66719 22.9396 7.54422 22.5467C7.19068 21.4173 7 20.2162 7 18.971C7 12.364 12.364 7 18.971 7C25.5779 7 30.9419 12.364 30.9419 18.971C30.9419 19.6406 30.8868 20.2974 30.7808 20.9372C31.0722 20.9051 31.3678 21.0475 31.5174 21.3204C31.7152 21.6814 31.5826 22.1352 31.2216 22.333L30.0443 22.9781C29.6943 23.1698 29.2555 23.0522 29.0483 22.7112L28.3512 21.5639C28.1374 21.212 28.2495 20.7528 28.6014 20.539C28.8335 20.398 29.1123 20.3988 29.3367 20.5167Z" stroke="#65991D" mask="url(#path-2-inside-1_1_2478)"/>
</svg>
