<svg width="39" height="39" viewBox="0 0 39 39" fill="none" xmlns="http://www.w3.org/2000/svg">
<rect width="38.9999" height="39.0027" rx="19.4999" fill="white"/>
<path d="M31.9756 25.0278L29.2412 17.8832C29.2071 17.7941 29.1395 17.7218 29.0529 17.6818C28.9662 17.6417 28.8674 17.6371 28.7774 17.6689L25.8965 18.6967C25.8502 18.7133 25.8078 18.739 25.7716 18.7723C25.7355 18.8056 25.7064 18.8459 25.6861 18.8906C25.6658 18.9354 25.6547 18.9838 25.6534 19.0329C25.6521 19.0821 25.6608 19.131 25.6787 19.1767L25.9292 19.8115L23.9634 20.7451L20.7368 20.1391C20.4226 20.0804 20.0996 20.0871 19.7881 20.1588C19.4766 20.2306 19.1832 20.3658 18.9263 20.5561L18.3496 20.9838L17.9678 20.7089C17.6796 20.5026 17.3482 20.3645 16.9987 20.3053C16.6492 20.2461 16.2908 20.2672 15.9507 20.3671L14.7124 20.7358L13.0904 19.7661L13.3233 19.1772C13.3413 19.1314 13.3499 19.0826 13.3486 19.0334C13.3474 18.9843 13.3362 18.9359 13.3159 18.8911C13.2956 18.8464 13.2665 18.8061 13.2304 18.7728C13.1942 18.7395 13.1518 18.7138 13.1055 18.6972L10.2227 17.6689C10.1326 17.6368 10.0335 17.6413 9.94659 17.6814C9.85973 17.7214 9.79198 17.7939 9.75784 17.8832L7.02445 25.0278C6.99055 25.1158 6.99195 25.2134 7.02834 25.3004C7.06473 25.3874 7.13331 25.4569 7.21976 25.4946L9.95413 26.6728C9.99918 26.6923 10.0477 26.7025 10.0967 26.7028C10.1458 26.7032 10.1944 26.6937 10.2398 26.6748C10.2851 26.656 10.3261 26.6283 10.3605 26.5933C10.3949 26.5583 10.4219 26.5168 10.44 26.4711L10.7154 25.7744L12.982 27.0517C12.8292 27.2734 12.7589 27.5417 12.7831 27.8098C12.8074 28.078 12.9247 28.3292 13.1148 28.52C13.2217 28.6269 13.3487 28.7117 13.4884 28.7694C13.6282 28.8272 13.778 28.8567 13.9292 28.8564H13.958C13.9837 29.1429 14.1157 29.4094 14.3281 29.6033C14.5405 29.7973 14.8179 29.9046 15.1055 29.9042H15.1353C15.1585 30.1734 15.2761 30.4258 15.4673 30.6166C15.5742 30.7236 15.7012 30.8084 15.841 30.8661C15.9807 30.9239 16.1305 30.9534 16.2818 30.9531H16.3106C16.3299 31.1713 16.4112 31.3795 16.5448 31.5532C16.6783 31.7268 16.8587 31.8588 17.0646 31.9336C17.2706 32.0083 17.4936 32.0227 17.7074 31.9752C17.9213 31.9276 18.1172 31.82 18.272 31.665L18.7071 31.2304L19.2959 31.6699C19.5454 31.8558 19.8536 31.9453 20.1639 31.922C20.4742 31.8987 20.7655 31.7641 20.9844 31.5429L21.0259 31.5009C21.2108 31.3122 21.3335 31.0715 21.3775 30.811C21.5978 30.8732 21.8307 30.8756 22.0523 30.818C22.2738 30.7605 22.4761 30.6449 22.6382 30.4833L22.6685 30.4531C22.874 30.248 23.0037 29.9793 23.0367 29.6909C23.2587 29.757 23.4945 29.7617 23.7189 29.7046C23.9434 29.6474 24.1482 29.5304 24.3116 29.3662L24.3321 29.3456C24.5324 29.1471 24.6609 28.8875 24.6973 28.6079C24.895 28.655 25.101 28.6547 25.2985 28.6069C25.496 28.5591 25.6794 28.4653 25.8337 28.333C25.988 28.2007 26.1087 28.0338 26.1861 27.8459C26.2635 27.658 26.2953 27.4544 26.2788 27.2519C26.2724 27.1733 26.2589 27.0955 26.2383 27.0195L28.3667 25.9775L28.562 26.4697C28.58 26.5154 28.6069 26.557 28.6413 26.5921C28.6756 26.6272 28.7167 26.6549 28.7621 26.6738C28.8074 26.6926 28.8561 26.7021 28.9052 26.7017C28.9543 26.7012 29.0029 26.6909 29.0479 26.6713L31.7823 25.4931C31.868 25.4551 31.9359 25.3857 31.9719 25.2991C32.0079 25.2125 32.0092 25.1153 31.9756 25.0278ZM9.897 25.851L7.83402 24.9614L10.313 18.4794L10.9209 18.6957L9.74906 22.0268C9.71668 22.1185 9.72205 22.2193 9.76399 22.307C9.80593 22.3947 9.881 22.4622 9.97269 22.4946C10.0644 22.5269 10.1652 22.5216 10.2529 22.4796C10.3406 22.4377 10.4081 22.3626 10.4405 22.2709L11.6094 18.9433L12.5005 19.2612L9.897 25.851ZM14.2266 28.0019C14.1475 28.0778 14.0419 28.1197 13.9323 28.1187C13.8227 28.1177 13.7178 28.0739 13.6402 27.9965C13.5625 27.9192 13.5182 27.8145 13.5167 27.7049C13.5153 27.5953 13.5568 27.4895 13.6324 27.4101L14.4136 26.6288C14.4724 26.5703 14.5471 26.5305 14.6285 26.5144C14.7098 26.4983 14.7942 26.5066 14.8708 26.5384C14.9474 26.5701 15.0129 26.6239 15.059 26.6928C15.1051 26.7617 15.1298 26.8428 15.1299 26.9257C15.1301 26.9808 15.1193 27.0354 15.0982 27.0863C15.0771 27.1372 15.046 27.1833 15.0069 27.2221L14.2266 28.0019ZM15.4678 28.9863C15.4458 29.0078 15.4263 29.0307 15.4068 29.0537L15.4029 29.0493C15.3643 29.0897 15.318 29.122 15.2667 29.1442C15.2155 29.1665 15.1603 29.1783 15.1044 29.179C15.0486 29.1796 14.9931 29.1691 14.9414 29.148C14.8896 29.127 14.8426 29.0958 14.8031 29.0563C14.7636 29.0168 14.7323 28.9698 14.7112 28.918C14.6901 28.8663 14.6795 28.8109 14.6801 28.755C14.6807 28.6991 14.6925 28.6439 14.7147 28.5927C14.737 28.5414 14.7692 28.4951 14.8096 28.4565L15.5264 27.7402C15.5479 27.7187 15.5684 27.6962 15.5879 27.6733L15.5913 27.6767C15.6705 27.6009 15.7762 27.5592 15.8858 27.5604C15.9954 27.5616 16.1002 27.6056 16.1777 27.6831C16.2553 27.7605 16.2994 27.8653 16.3007 27.9749C16.302 28.0845 16.2603 28.1902 16.1846 28.2695L15.4678 28.9863ZM16.5772 30.0956C16.4974 30.1673 16.3931 30.2057 16.2859 30.2028C16.1786 30.2 16.0765 30.1562 16.0006 30.0804C15.9247 30.0046 15.8807 29.9026 15.8777 29.7953C15.8747 29.6881 15.9129 29.5838 15.9844 29.5038L16.7657 28.7226C16.8036 28.6797 16.8498 28.645 16.9017 28.6206C16.9535 28.5963 17.0097 28.5828 17.067 28.581C17.1242 28.5792 17.1812 28.5891 17.2344 28.6102C17.2877 28.6313 17.336 28.663 17.3765 28.7035C17.417 28.744 17.4488 28.7923 17.4699 28.8455C17.4911 28.8988 17.5011 28.9557 17.4993 29.013C17.4976 29.0702 17.4841 29.1265 17.4598 29.1783C17.4355 29.2301 17.4008 29.2765 17.3579 29.3144L16.5772 30.0956ZM18.5342 30.3622L17.753 31.1435C17.6738 31.2193 17.5681 31.261 17.4585 31.2598C17.3489 31.2586 17.2441 31.2146 17.1666 31.1371C17.089 31.0597 17.0449 30.9549 17.0436 30.8453C17.0423 30.7357 17.084 30.63 17.1597 30.5507L17.8765 29.8344C17.898 29.8129 17.9185 29.7905 17.938 29.7675L17.9414 29.7709C18.0206 29.6952 18.1263 29.6534 18.2359 29.6546C18.3455 29.6558 18.4503 29.6998 18.5278 29.7773C18.6054 29.8548 18.6495 29.9595 18.6508 30.0691C18.6521 30.1787 18.6104 30.2845 18.5347 30.3637L18.5342 30.3622ZM25.3877 27.7451C25.2904 27.8435 25.1595 27.9016 25.0213 27.9079C24.883 27.9141 24.7474 27.868 24.6416 27.7787L24.356 27.541C24.336 27.512 24.312 27.486 24.2847 27.4638L23.626 26.9345C23.5501 26.8775 23.455 26.8521 23.3608 26.8639C23.2665 26.8756 23.1805 26.9235 23.1209 26.9974C23.0613 27.0713 23.0328 27.1655 23.0413 27.2601C23.0498 27.3547 23.0947 27.4422 23.1665 27.5043L23.7349 27.9628C23.7507 27.9846 23.7687 28.0048 23.7886 28.0229C23.8451 28.0729 23.8907 28.1339 23.9227 28.2022C23.9547 28.2705 23.9724 28.3446 23.9747 28.42C23.977 28.4953 23.9638 28.5704 23.936 28.6405C23.9082 28.7106 23.8663 28.7743 23.813 28.8276L23.7925 28.8481C23.6999 28.9411 23.5772 28.9981 23.4464 29.0088C23.3155 29.0195 23.1852 28.9833 23.0786 28.9067L22.5127 28.5014L22.5069 28.497L22.293 28.3442C22.214 28.2877 22.1158 28.2648 22.02 28.2807C21.9241 28.2966 21.8385 28.3499 21.782 28.4289C21.7255 28.5079 21.7027 28.6061 21.7185 28.7019C21.7344 28.7978 21.7877 28.8834 21.8667 28.9399L22.0845 29.0956C22.1491 29.1427 22.2028 29.2033 22.2418 29.2731C22.2808 29.3429 22.3042 29.4204 22.3103 29.5001C22.3165 29.5798 22.3053 29.66 22.2776 29.735C22.2498 29.81 22.2061 29.878 22.1494 29.9345L22.1192 29.9648C22.0195 30.0643 21.8858 30.1222 21.745 30.1266C21.6042 30.1311 21.4671 30.0818 21.3614 29.9887L20.751 29.4516C20.716 29.4152 20.6738 29.3865 20.6271 29.3673C20.5804 29.348 20.5302 29.3386 20.4797 29.3397C20.4292 29.3407 20.3795 29.3522 20.3336 29.3734C20.2878 29.3946 20.2468 29.4251 20.2133 29.4629C20.1798 29.5006 20.1545 29.545 20.139 29.593C20.1234 29.6411 20.118 29.6918 20.123 29.7421C20.128 29.7923 20.1433 29.841 20.168 29.8851C20.1928 29.9291 20.2263 29.9675 20.2666 29.998L20.4742 30.1816C20.5307 30.2313 20.5765 30.292 20.6087 30.3601C20.641 30.4281 20.659 30.502 20.6617 30.5772C20.6644 30.6525 20.6517 30.7275 20.6244 30.7976C20.5971 30.8678 20.5558 30.9317 20.503 30.9853L20.4615 31.0273C20.3672 31.1225 20.2418 31.1805 20.1082 31.1905C19.9746 31.2006 19.8418 31.162 19.7344 31.082L19.2071 30.6884C19.3185 30.5144 19.3811 30.3135 19.3882 30.1069C19.3953 29.9004 19.3467 29.6957 19.2475 29.5144C19.1482 29.3331 19.0021 29.1818 18.8242 29.0764C18.6464 28.971 18.4435 28.9154 18.2368 28.9155H18.208C18.1823 28.6291 18.0503 28.3626 17.8381 28.1686C17.6258 27.9746 17.3486 27.8671 17.0611 27.8671H17.0313C17.0047 27.5765 16.8685 27.3069 16.6502 27.1132C16.432 26.9195 16.1482 26.8161 15.8565 26.8242C15.8335 26.555 15.7156 26.3027 15.524 26.1122C15.3078 25.8965 15.0149 25.7753 14.7095 25.7753C14.4041 25.7753 14.1112 25.8965 13.8951 26.1122L13.501 26.5058L10.9864 25.0898L12.8164 20.4589L14.4737 21.4496C14.5173 21.4758 14.5659 21.4925 14.6163 21.4988C14.6667 21.5051 14.7179 21.5008 14.7666 21.4863L16.1592 21.0717C16.3919 21.0032 16.6371 20.9885 16.8763 21.0289C17.1154 21.0692 17.3423 21.1635 17.5396 21.3046L17.732 21.4433L15.7744 22.8959C15.6292 23.0038 15.5111 23.1439 15.4294 23.3054C15.3477 23.4668 15.3047 23.645 15.3039 23.8259C15.303 24.0068 15.3443 24.1854 15.4245 24.3475C15.5046 24.5097 15.6214 24.651 15.7657 24.7602C16.0377 24.9644 16.3651 25.0817 16.7049 25.0966C17.0447 25.1115 17.3811 25.0233 17.67 24.8437L19.2071 23.8764C19.3858 24.2329 19.7198 24.7172 20.2998 25.0156C20.9722 25.3613 21.7896 25.3701 22.732 25.0419L25.3199 26.9057C25.3849 26.9527 25.4389 27.0132 25.4783 27.083C25.5177 27.1529 25.5414 27.2305 25.5479 27.3104C25.5543 27.3904 25.5433 27.4708 25.5157 27.5461C25.488 27.6214 25.4444 27.6898 25.3877 27.7465V27.7451ZM25.8584 26.3896L23.0025 24.3339C22.9529 24.2983 22.8952 24.2757 22.8347 24.268C22.7742 24.2603 22.7127 24.2679 22.6558 24.29C21.8404 24.6064 21.1631 24.6318 20.6416 24.3676C19.9512 24.0165 19.7398 23.249 19.7378 23.2446C19.7236 23.1887 19.6963 23.137 19.6583 23.0936C19.6203 23.0503 19.5725 23.0165 19.519 22.9951C19.4655 22.9737 19.4076 22.9652 19.3502 22.9704C19.2928 22.9756 19.2374 22.9942 19.1885 23.0248L17.2803 24.2216C17.1173 24.3229 16.9274 24.3725 16.7356 24.3638C16.5439 24.3551 16.3593 24.2885 16.2061 24.1728C16.1525 24.1323 16.1091 24.0799 16.0794 24.0198C16.0496 23.9596 16.0343 23.8934 16.0346 23.8262C16.0349 23.7591 16.0509 23.693 16.0813 23.6331C16.1116 23.5733 16.1555 23.5213 16.2095 23.4814L19.3609 21.1425C19.5367 21.0124 19.7374 20.9199 19.9505 20.8708C20.1637 20.8218 20.3846 20.8172 20.5996 20.8574L23.9434 21.4853C24.0194 21.4999 24.0981 21.4898 24.168 21.4565L26.1973 20.4926L28.0952 25.2954L25.8584 26.3896ZM29.1031 25.8496L26.4981 19.2578L27.3897 18.9399L28.5581 22.2675C28.5905 22.3592 28.658 22.4343 28.7457 22.4762C28.8334 22.5182 28.9342 22.5235 29.0259 22.4912C29.1176 22.4588 29.1927 22.3913 29.2346 22.3036C29.2765 22.2159 29.2819 22.1151 29.2495 22.0234L28.0777 18.6923L28.6856 18.476L31.1646 24.9579L29.1031 25.8496Z" fill="#65991D"/>
<path d="M19.5 18.4746C20.6347 18.4746 21.744 18.1381 22.6875 17.5077C23.631 16.8773 24.3663 15.9812 24.8006 14.9329C25.2348 13.8845 25.3484 12.7309 25.1271 11.618C24.9057 10.5051 24.3593 9.4828 23.5569 8.68042C22.7545 7.87804 21.7322 7.33162 20.6193 7.11024C19.5064 6.88887 18.3528 7.00249 17.3044 7.43673C16.2561 7.87097 15.36 8.60634 14.7296 9.54983C14.0992 10.4933 13.7627 11.6026 13.7627 12.7373C13.7644 14.2584 14.3694 15.7167 15.445 16.7923C16.5206 17.8679 17.9789 18.4729 19.5 18.4746ZM19.5 7.73242C20.4899 7.73242 21.4575 8.02596 22.2806 8.5759C23.1036 9.12584 23.7451 9.9075 24.1239 10.822C24.5027 11.7365 24.6018 12.7429 24.4087 13.7137C24.2156 14.6846 23.7389 15.5763 23.039 16.2763C22.339 16.9762 21.4473 17.4529 20.4764 17.646C19.5056 17.8391 18.4992 17.74 17.5847 17.3612C16.6702 16.9824 15.8885 16.3409 15.3386 15.5179C14.7886 14.6948 14.4951 13.7272 14.4951 12.7373C14.4965 11.4104 15.0243 10.1382 15.9626 9.19989C16.9009 8.2616 18.1731 7.73385 19.5 7.73242Z" fill="#65991D"/>
<path d="M19.5 17.0098C20.345 17.0098 21.171 16.7592 21.8737 16.2897C22.5763 15.8203 23.1239 15.153 23.4472 14.3723C23.7706 13.5916 23.8552 12.7326 23.6904 11.9038C23.5255 11.075 23.1186 10.3137 22.5211 9.71622C21.9236 9.11871 21.1623 8.71179 20.3335 8.54694C19.5047 8.38209 18.6457 8.46669 17.865 8.79007C17.0843 9.11344 16.417 9.66105 15.9476 10.3637C15.4781 11.0663 15.2275 11.8923 15.2275 12.7373C15.2288 13.87 15.6794 14.956 16.4803 15.757C17.2813 16.5579 18.3673 17.0085 19.5 17.0098ZM19.5 9.19727C20.2002 9.19727 20.8846 9.40489 21.4667 9.79387C22.0489 10.1829 22.5026 10.7357 22.7706 11.3826C23.0385 12.0294 23.1086 12.7412 22.972 13.4279C22.8354 14.1146 22.4983 14.7454 22.0032 15.2405C21.5081 15.7356 20.8773 16.0727 20.1906 16.2093C19.5039 16.3459 18.7921 16.2758 18.1453 16.0079C17.4984 15.7399 16.9455 15.2862 16.5566 14.704C16.1676 14.1219 15.96 13.4375 15.96 12.7373C15.961 11.7987 16.3343 10.8989 16.998 10.2353C17.6616 9.5716 18.5614 9.1983 19.5 9.19727ZM26.8701 12.7373C26.8701 12.7854 26.8796 12.833 26.898 12.8774C26.9164 12.9219 26.9434 12.9623 26.9774 12.9963C27.0114 13.0303 27.0518 13.0572 27.0962 13.0756C27.1406 13.094 27.1882 13.1035 27.2363 13.1035H29.2656C29.3628 13.1035 29.4559 13.0649 29.5246 12.9963C29.5933 12.9276 29.6318 12.8344 29.6318 12.7373C29.6318 12.6402 29.5933 12.547 29.5246 12.4784C29.4559 12.4097 29.3628 12.3711 29.2656 12.3711H27.2363C27.1392 12.3711 27.0461 12.4097 26.9774 12.4784C26.9087 12.547 26.8701 12.6402 26.8701 12.7373ZM26.4756 11.0679C26.5407 11.0684 26.6047 11.0515 26.6611 11.019L28.1826 10.125C28.2668 10.0759 28.328 9.99529 28.3528 9.90101C28.3775 9.80674 28.3638 9.70649 28.3147 9.62232C28.2656 9.53814 28.185 9.47694 28.0907 9.45217C27.9964 9.4274 27.8962 9.44109 27.812 9.49024L26.29 10.3857C26.2199 10.4261 26.1651 10.4885 26.1343 10.5633C26.1034 10.6381 26.0981 10.721 26.1193 10.7991C26.1405 10.8771 26.1869 10.946 26.2514 10.9949C26.3159 11.0438 26.3947 11.07 26.4756 11.0693V11.0679ZM26.29 15.0889L27.812 15.9844C27.8537 16.0087 27.8998 16.0246 27.9476 16.0311C27.9954 16.0377 28.044 16.0347 28.0907 16.0224C28.1374 16.0102 28.1812 15.9888 28.2196 15.9596C28.2581 15.9305 28.2904 15.894 28.3147 15.8523C28.339 15.8106 28.3549 15.7646 28.3615 15.7167C28.368 15.6689 28.365 15.6203 28.3528 15.5736C28.3405 15.5269 28.3192 15.4831 28.29 15.4447C28.2608 15.4063 28.2243 15.3739 28.1826 15.3496L26.6611 14.4561C26.6196 14.4308 26.5736 14.414 26.5255 14.4068C26.4775 14.3995 26.4285 14.4018 26.3814 14.4137C26.3343 14.4255 26.29 14.4466 26.2511 14.4757C26.2122 14.5048 26.1795 14.5414 26.1549 14.5833C26.1303 14.6251 26.1143 14.6715 26.1078 14.7196C26.1012 14.7678 26.1043 14.8167 26.1169 14.8636C26.1295 14.9105 26.1513 14.9545 26.181 14.9929C26.2107 15.0313 26.2478 15.0634 26.29 15.0874V15.0889ZM9.73438 13.1035H11.7637C11.8608 13.1035 11.9539 13.0649 12.0226 12.9963C12.0913 12.9276 12.1299 12.8344 12.1299 12.7373C12.1299 12.6402 12.0913 12.547 12.0226 12.4784C11.9539 12.4097 11.8608 12.3711 11.7637 12.3711H9.73438C9.63725 12.3711 9.5441 12.4097 9.47542 12.4784C9.40675 12.547 9.36816 12.6402 9.36816 12.7373C9.36816 12.8344 9.40675 12.9276 9.47542 12.9963C9.5441 13.0649 9.63725 13.1035 9.73438 13.1035ZM10.8174 10.125L12.3389 11.0186C12.3804 11.0438 12.4264 11.0606 12.4745 11.0679C12.5225 11.0751 12.5715 11.0728 12.6186 11.061C12.6657 11.0491 12.71 11.028 12.7489 10.9989C12.7878 10.9698 12.8205 10.9332 12.8451 10.8914C12.8697 10.8495 12.8857 10.8031 12.8922 10.755C12.8988 10.7069 12.8957 10.6579 12.8831 10.611C12.8705 10.5641 12.8487 10.5201 12.819 10.4817C12.7893 10.4433 12.7522 10.4112 12.71 10.3872L11.188 9.49024C11.1463 9.4659 11.1002 9.45002 11.0524 9.44348C11.0046 9.43695 10.956 9.4399 10.9093 9.45217C10.815 9.47694 10.7344 9.53814 10.6853 9.62232C10.6362 9.70649 10.6225 9.80674 10.6472 9.90101C10.672 9.99529 10.7332 10.0759 10.8174 10.125ZM12.3389 14.4575L10.8174 15.3496C10.7332 15.3988 10.672 15.4793 10.6472 15.5736C10.6225 15.6679 10.6362 15.7681 10.6853 15.8523C10.7344 15.9365 10.815 15.9977 10.9093 16.0224C11.0036 16.0472 11.1038 16.0335 11.188 15.9844L12.71 15.0903C12.7522 15.0664 12.7893 15.0343 12.819 14.9958C12.8487 14.9574 12.8705 14.9135 12.8831 14.8666C12.8957 14.8196 12.8988 14.7707 12.8922 14.7225C12.8857 14.6744 12.8697 14.6281 12.8451 14.5862C12.8205 14.5443 12.7878 14.5077 12.7489 14.4786C12.71 14.4495 12.6657 14.4284 12.6186 14.4166C12.5715 14.4047 12.5225 14.4024 12.4745 14.4097C12.4264 14.417 12.3804 14.4337 12.3389 14.459V14.4575Z" fill="#65991D"/>
<path d="M18.6783 14.33C18.7126 14.367 18.7542 14.3964 18.8004 14.4165C18.8466 14.4367 18.8965 14.447 18.9469 14.447C18.9973 14.447 19.0471 14.4367 19.0933 14.4165C19.1395 14.3964 19.1811 14.367 19.2154 14.33L21.7223 11.6445C21.7551 11.6092 21.7806 11.5678 21.7975 11.5227C21.8143 11.4775 21.8221 11.4295 21.8204 11.3814C21.8187 11.3332 21.8075 11.2859 21.7874 11.2421C21.7674 11.1982 21.739 11.1588 21.7037 11.1259C21.6684 11.0931 21.627 11.0675 21.5819 11.0507C21.5368 11.0339 21.4887 11.0261 21.4406 11.0278C21.3924 11.0295 21.3451 11.0407 21.3013 11.0608C21.2574 11.0808 21.218 11.1092 21.1851 11.1445L18.9464 13.5429L17.8145 12.3305C17.7482 12.2593 17.6564 12.2173 17.5591 12.2139C17.4619 12.2104 17.3672 12.2457 17.296 12.312C17.2248 12.3783 17.1828 12.4702 17.1793 12.5674C17.1758 12.6647 17.2111 12.7593 17.2774 12.8305L18.6783 14.33Z" fill="#65991D"/>
</svg>
