<svg width="79" height="78" viewBox="0 0 79 78" fill="none" xmlns="http://www.w3.org/2000/svg">
<path d="M72.5553 64.8075L71.5587 64.7259C71.5652 64.6463 71.5398 64.5675 71.4882 64.5066C71.4365 64.4458 71.3628 64.4079 71.2833 64.4014C71.2038 64.3949 71.125 64.4202 71.0641 64.4718C71.0641 64.4718 71.0641 64.4719 71.064 64.4719L70.417 63.7094L72.5553 64.8075ZM72.5553 64.8075L71.5587 64.7259M72.5553 64.8075L71.5587 64.7259M71.5587 64.7259C71.5522 64.8054 71.5143 64.8791 71.4535 64.9307L71.5587 64.7259ZM40.3704 71.2003H40.3716L71.4535 64.9308C69.5429 66.5518 65.8201 68.2818 60.4818 69.6025C55.1749 70.9154 48.3665 71.8003 40.3716 71.8003C37.9857 71.7979 35.6005 71.7146 33.2202 71.5504L33.2182 71.5503C33.1389 71.545 33.0649 71.5084 33.0125 71.4485C32.9601 71.3887 32.9337 71.3105 32.9389 71.2311L32.939 71.2311L32.9396 71.2194C32.9417 71.1815 32.9513 71.1444 32.968 71.1103C32.9846 71.0762 33.0079 71.0458 33.0364 71.0208C33.065 70.9958 33.0983 70.9768 33.1343 70.9649C33.1703 70.953 33.2084 70.9484 33.2462 70.9514L33.2462 70.9515L33.2572 70.9522C35.6248 71.1147 37.9972 71.1974 40.3704 71.2003ZM27.1204 70.7128C27.1001 70.7466 27.0734 70.7761 27.0417 70.7996L26.9358 70.8498C26.8975 70.8594 26.8577 70.8613 26.8187 70.8556C25.355 70.6378 23.9299 70.3859 22.5794 70.1064C22.5053 70.0879 22.4409 70.0419 22.3995 69.9775C22.357 69.9114 22.3421 69.8313 22.3581 69.7543C22.374 69.6774 22.4195 69.6097 22.4848 69.566C22.5485 69.5233 22.626 69.5067 22.7014 69.5194C24.0955 69.8075 25.4976 70.055 26.9061 70.2614C26.9466 70.2675 26.9849 70.2815 27.0171 70.3008C27.0509 70.321 27.0804 70.3478 27.1039 70.3794L27.907 69.7835L27.1039 70.3794C27.1274 70.4111 27.1445 70.4471 27.1541 70.4854C27.1637 70.5236 27.1656 70.5634 27.1598 70.6024C27.1541 70.6414 27.1407 70.6789 27.1204 70.7128Z" fill="#65991D" stroke="#65991D" stroke-width="2"/>
<path d="M10.8216 46.6999V45.8363L9.96727 45.7105C8.53996 45.5004 6.51848 44.8281 4.84211 42.8101C3.16184 40.7874 1.72337 37.2866 1.72168 31.2108C1.89609 23.1995 4.79135 15.4862 9.93104 9.339C10.0835 9.18288 10.2651 9.05807 10.4657 8.97169C10.6745 8.88178 10.8995 8.8354 11.1268 8.8354C11.3542 8.8354 11.5791 8.88178 11.7879 8.97169L12.174 8.07502L11.7879 8.97169C11.989 9.05828 12.171 9.1835 12.3237 9.34015C14.0747 11.419 15.5701 13.7004 16.7777 16.1354L17.7662 18.1287L18.6006 16.0662C19.9702 12.6806 21.872 9.53565 24.234 6.75028C24.3867 6.59334 24.569 6.46803 24.7704 6.38162C24.97 6.29597 25.1844 6.25028 25.4014 6.24701L24.6419 7.16119C21.7887 10.5957 19.6132 14.5405 18.2307 18.7862L18.1192 19.1286L18.2516 19.4634C19.7297 23.2029 20.4995 27.1846 20.5216 31.2056L20.5216 31.2136L20.5218 31.2216C20.578 33.8348 20.217 36.441 19.4548 38.9411L19.3017 39.4434L19.6283 39.8546C20.7053 41.2107 22.235 42.1331 23.9369 42.4528L25.1215 42.6753V41.47V36.4C25.1215 36.3205 25.1531 36.2442 25.2094 36.1879C25.2657 36.1316 25.342 36.1 25.4215 36.1C25.5011 36.1 25.5774 36.1316 25.6337 36.1879C25.6899 36.2442 25.7215 36.3205 25.7215 36.4V41.47V42.6756L26.9064 42.4528C29.343 41.9945 31.2003 40.4113 32.4185 38.0097C33.6221 35.6366 34.2215 32.4406 34.2215 28.6001V28.59L34.2213 28.5798C34.0623 20.7304 31.2239 13.1714 26.1772 7.15738L25.4131 6.24688C25.419 6.24683 25.4249 6.24682 25.4308 6.24683C25.6579 6.24744 25.8824 6.29452 26.0906 6.38516C26.2914 6.47259 26.4728 6.59876 26.6246 6.75637C31.764 12.8958 34.6556 20.6049 34.8215 28.6102C34.8199 34.6864 33.3814 38.1873 31.701 40.2101C30.0247 42.2281 28.0032 42.9004 26.5759 43.1105L25.7215 43.2363V44.0999V50.3177V51.4554L26.8498 51.3095C27.047 51.284 27.2412 51.2583 27.4341 51.2328C27.9128 51.1694 28.3836 51.1072 28.8719 51.0515C28.9111 51.047 28.9508 51.0504 28.9887 51.0613L29.2655 50.1004L28.9887 51.0613C29.0266 51.0722 29.0619 51.0905 29.0928 51.1151C29.1236 51.1397 29.1493 51.1701 29.1684 51.2046C29.1875 51.2392 29.1996 51.2771 29.204 51.3163C29.2084 51.3555 29.2051 51.3952 29.1941 51.4331L30.1551 51.7099L29.1941 51.4331C29.1832 51.471 29.1649 51.5064 29.1404 51.5372L29.9222 52.1607L29.1403 51.5372C29.1157 51.5681 29.0853 51.5938 29.0508 51.6128L29.5345 52.4881L29.0508 51.6128C29.0163 51.6319 28.9783 51.644 28.9391 51.6484L28.9381 51.6485C28.1506 51.7381 27.3645 51.839 26.58 51.9512L25.7215 52.0739V52.9411V57.1999C25.7215 57.2795 25.6899 57.3558 25.6337 57.412L26.3408 58.1191L25.6337 57.412C25.5774 57.4683 25.5011 57.4999 25.4215 57.4999C25.342 57.4999 25.2657 57.4683 25.2094 57.412L24.5023 58.1191L25.2094 57.412C25.1531 57.3558 25.1215 57.2795 25.1215 57.1999V53.3428V52.1666L23.9607 52.3559C19.8817 53.0206 15.8878 54.1301 12.0504 55.6643L11.4216 55.9156V56.5928V59.7999C11.4216 59.8795 11.39 59.9558 11.3337 60.012C11.2775 60.0683 11.2012 60.0999 11.1216 60.0999C11.0421 60.0999 10.9657 60.0683 10.9095 60.012C10.8532 59.9558 10.8216 59.8795 10.8216 59.7999V57.8161V56.1383L9.34587 56.9365C7.64115 57.8586 6.23512 58.8776 5.2436 59.9823C4.25081 61.0883 3.62166 62.342 3.62166 63.6999C3.62166 65.5383 4.82782 67.2183 6.62253 68.6454C8.44542 70.0949 11.0506 71.43 14.2622 72.5677C20.6955 74.8467 29.7499 76.3998 40.3714 76.3998C47.7074 76.3998 54.7754 75.6171 60.7126 74.2442C66.6164 72.8791 71.5228 70.9033 74.4285 68.4362L74.4297 68.4352C74.4909 68.383 74.5703 68.3574 74.6504 68.3638C74.7305 68.3702 74.8048 68.4081 74.8569 68.4693C74.909 68.5305 74.9347 68.6099 74.9283 68.69C74.9219 68.7699 74.8841 68.844 74.8232 68.8961C72.0096 71.2796 67.2497 73.3184 61.2001 74.7561C55.1761 76.1878 47.9747 76.9998 40.3714 76.9998C31.025 76.9998 21.5514 75.6716 14.4495 73.2594C10.8941 72.0518 7.99381 70.5926 6.00138 68.9404C4.01265 67.2913 3.02167 65.5351 3.02167 63.6999C3.02167 60.9745 5.35915 58.1847 10.2589 55.8021L10.8216 55.5285V54.9028V46.6999ZM11.4216 53.7744V55.2155L12.7716 54.7112C16.494 53.3205 20.3484 52.3124 24.275 51.7024L25.1215 51.5709V50.7142V44.1077V43.227L24.2479 43.1157C22.6442 42.9114 21.1466 42.2038 19.9703 41.0947L19.0109 40.1901L18.3986 41.358C17.7924 42.5143 16.9217 43.5112 15.8575 44.2676C14.7933 45.0239 13.5656 45.5184 12.2743 45.7108L11.4216 45.8378V46.6999V53.7744ZM11.888 9.75782L11.1199 8.8414L10.3538 9.75949C5.32718 15.7834 2.49593 23.3335 2.32191 31.1779L2.32166 31.189V31.2001C2.32166 35.0412 2.92099 38.2373 4.12471 40.6102C5.34288 43.0117 7.20023 44.5945 9.63678 45.0528L10.8216 45.2756V44.07V39.5382V39.124L10.5287 38.8311L7.01793 35.3203C6.96575 35.2642 6.93697 35.1902 6.93763 35.1134C6.93832 35.0347 6.96987 34.9595 7.02549 34.9039C7.08111 34.8483 7.15635 34.8167 7.23501 34.816C7.31179 34.8154 7.38583 34.8442 7.44195 34.8964L10.4145 37.8689L11.1216 38.576L11.8287 37.8689L14.8013 34.8963C14.8574 34.8441 14.9315 34.8154 15.0082 34.816C15.0869 34.8167 15.1621 34.8483 15.2177 34.9039C15.2734 34.9595 15.3049 35.0347 15.3056 35.1134C15.3063 35.1902 15.2775 35.2642 15.2253 35.3203L11.7145 38.8311L11.4216 39.124V39.5382V44.07V45.2756L12.6065 45.0528C15.0431 44.5945 16.9004 43.0113 18.1185 40.6097C19.3222 38.2366 19.9216 35.0406 19.9216 31.2001L19.9216 31.1952C19.9018 27.1375 19.1108 23.1205 17.5907 19.3582L17.5757 19.3213L17.5686 19.3071C16.2008 15.8394 14.2827 12.6149 11.888 9.75782Z" fill="#65991D" stroke="#65991D" stroke-width="2"/>
<mask id="path-3-inside-1_1_2404" fill="white">
<path d="M76.2236 64.2084C76.2903 64.3656 76.3874 64.5082 76.5092 64.6279C76.6311 64.7476 76.7753 64.8422 76.9337 64.9061C77.092 64.9701 77.2615 65.0023 77.4323 65.0008C77.6031 64.9993 77.7719 64.9641 77.9292 64.8974C78.0864 64.8306 78.2289 64.7336 78.3487 64.6117C78.4684 64.4899 78.5629 64.3457 78.6269 64.1873C78.6909 64.0289 78.723 63.8595 78.7215 63.6887C78.72 63.5179 78.6849 63.349 78.6182 63.1918L63.9581 28.547C64.2662 27.546 64.4222 26.5021 64.4209 25.4543C64.4218 23.8549 64.0733 22.2747 63.3996 20.8241C62.726 19.3735 61.7435 18.0876 60.521 17.0564V14.3004C60.5176 13.4967 60.2661 12.7136 59.8006 12.0583C59.3352 11.403 58.6788 10.9075 57.921 10.6396V4.55046C57.921 3.34373 57.4416 2.18643 56.5883 1.33314C55.735 0.479859 54.5777 0.000488281 53.371 0.000488281C52.1643 0.000488281 51.007 0.479859 50.1537 1.33314C49.3004 2.18643 48.821 3.34373 48.821 4.55046V10.6396C48.0633 10.9075 47.4068 11.403 46.9414 12.0583C46.476 12.7136 46.2244 13.4967 46.221 14.3004V17.0564C44.9988 18.0878 44.0165 19.3738 43.3429 20.8243C42.6692 22.2749 42.3205 23.855 42.3211 25.4543C42.3197 26.5029 42.4752 27.5458 42.7826 28.5483L28.1252 63.1918C28.0011 63.507 28.0049 63.8582 28.1359 64.1706C28.2668 64.483 28.5145 64.7319 28.8263 64.8644C29.1381 64.9969 29.4892 65.0025 29.805 64.88C30.1208 64.7575 30.3763 64.5165 30.5171 64.2084L31.9081 60.9207L39.1348 57.8202C40.3353 57.2994 41.2975 56.3483 41.8323 55.1539L50.3082 36.0701C52.3031 36.6534 54.4233 36.6534 56.4182 36.0701L64.9071 55.1618C65.4423 56.3564 66.4056 57.3072 67.6072 57.8267L74.8274 60.9246L76.2236 64.2084ZM56.621 25.6883C56.621 26.1151 56.5369 26.5377 56.3736 26.932C56.2103 27.3264 55.9709 27.6846 55.6691 27.9864C55.3673 28.2882 55.009 28.5276 54.6147 28.6909C54.2204 28.8542 53.7978 28.9383 53.371 28.9383C52.9442 28.9383 52.5216 28.8542 52.1273 28.6909C51.733 28.5276 51.3747 28.2882 51.0729 27.9864C50.7711 27.6846 50.5317 27.3264 50.3684 26.932C50.2051 26.5377 50.121 26.1151 50.121 25.6883C50.1249 25.3516 50.1834 25.0188 50.2926 24.7003H56.4481C56.5599 25.0175 56.6171 25.3516 56.621 25.6883ZM51.421 4.55046C51.421 4.03329 51.6265 3.5373 51.9922 3.17161C52.3578 2.80592 52.8538 2.60047 53.371 2.60047C53.8882 2.60047 54.3842 2.80592 54.7499 3.17161C55.1155 3.5373 55.321 4.03329 55.321 4.55046V10.4004H51.421V4.55046ZM48.821 14.3004C48.821 13.9556 48.958 13.625 49.2018 13.3812C49.4456 13.1374 49.7762 13.0004 50.121 13.0004H56.621C56.9658 13.0004 57.2964 13.1374 57.5402 13.3812C57.784 13.625 57.921 13.9556 57.921 14.3004V20.8004C57.921 21.1451 57.784 21.4758 57.5402 21.7196C57.2964 21.9634 56.9658 22.1004 56.621 22.1004H50.121C49.7762 22.1004 49.4456 21.9634 49.2018 21.7196C48.958 21.4758 48.821 21.1451 48.821 20.8004V14.3004ZM38.1026 55.4334L33.3706 57.4601L44.2711 31.6917C45.2147 33.073 46.4592 34.2224 47.911 35.0535L40.1111 52.6346L39.4611 54.0932C39.1911 54.6936 38.7066 55.1716 38.1026 55.4334ZM50.108 33.253C49.0048 32.7886 48.0131 32.0945 47.1989 31.2169C46.3848 30.3394 45.767 29.2985 45.3865 28.1635C45.0729 27.2949 44.9153 26.3778 44.9211 25.4543C44.9193 23.8548 45.3753 22.2881 46.2353 20.9395C46.2743 22.1238 46.8541 23.2248 47.807 23.9294C47.6214 24.4974 47.5249 25.0908 47.521 25.6883C47.521 27.2398 48.1374 28.7278 49.2345 29.8249C50.3315 30.922 51.8195 31.5383 53.371 31.5383C54.9225 31.5383 56.4105 30.922 57.5076 29.8249C58.6046 28.7278 59.221 27.2398 59.221 25.6883C59.2191 25.0882 59.1231 24.492 58.9363 23.9216C59.4052 23.5744 59.7899 23.126 60.0618 22.6097C60.3336 22.0935 60.4857 21.5226 60.5067 20.9395C61.3667 22.2881 61.8227 23.8548 61.821 25.4543C61.8262 26.3903 61.665 27.3198 61.3426 28.1999C60.9627 29.3293 60.3455 30.3644 59.5325 31.2355C58.7194 32.1066 57.7294 32.7936 56.6288 33.2504C54.5415 34.1157 52.196 34.1167 50.108 33.253ZM68.6446 55.4361C68.039 55.1761 67.5525 54.6989 67.2809 54.0984L58.831 35.0548C60.2847 34.228 61.5299 33.0794 62.4709 31.6969L73.3701 57.4601L68.6446 55.4361Z"/>
</mask>
<path d="M76.2236 64.2084C76.2903 64.3656 76.3874 64.5082 76.5092 64.6279C76.6311 64.7476 76.7753 64.8422 76.9337 64.9061C77.092 64.9701 77.2615 65.0023 77.4323 65.0008C77.6031 64.9993 77.7719 64.9641 77.9292 64.8974C78.0864 64.8306 78.2289 64.7336 78.3487 64.6117C78.4684 64.4899 78.5629 64.3457 78.6269 64.1873C78.6909 64.0289 78.723 63.8595 78.7215 63.6887C78.72 63.5179 78.6849 63.349 78.6182 63.1918L63.9581 28.547C64.2662 27.546 64.4222 26.5021 64.4209 25.4543C64.4218 23.8549 64.0733 22.2747 63.3996 20.8241C62.726 19.3735 61.7435 18.0876 60.521 17.0564V14.3004C60.5176 13.4967 60.2661 12.7136 59.8006 12.0583C59.3352 11.403 58.6788 10.9075 57.921 10.6396V4.55046C57.921 3.34373 57.4416 2.18643 56.5883 1.33314C55.735 0.479859 54.5777 0.000488281 53.371 0.000488281C52.1643 0.000488281 51.007 0.479859 50.1537 1.33314C49.3004 2.18643 48.821 3.34373 48.821 4.55046V10.6396C48.0633 10.9075 47.4068 11.403 46.9414 12.0583C46.476 12.7136 46.2244 13.4967 46.221 14.3004V17.0564C44.9988 18.0878 44.0165 19.3738 43.3429 20.8243C42.6692 22.2749 42.3205 23.855 42.3211 25.4543C42.3197 26.5029 42.4752 27.5458 42.7826 28.5483L28.1252 63.1918C28.0011 63.507 28.0049 63.8582 28.1359 64.1706C28.2668 64.483 28.5145 64.7319 28.8263 64.8644C29.1381 64.9969 29.4892 65.0025 29.805 64.88C30.1208 64.7575 30.3763 64.5165 30.5171 64.2084L31.9081 60.9207L39.1348 57.8202C40.3353 57.2994 41.2975 56.3483 41.8323 55.1539L50.3082 36.0701C52.3031 36.6534 54.4233 36.6534 56.4182 36.0701L64.9071 55.1618C65.4423 56.3564 66.4056 57.3072 67.6072 57.8267L74.8274 60.9246L76.2236 64.2084ZM56.621 25.6883C56.621 26.1151 56.5369 26.5377 56.3736 26.932C56.2103 27.3264 55.9709 27.6846 55.6691 27.9864C55.3673 28.2882 55.009 28.5276 54.6147 28.6909C54.2204 28.8542 53.7978 28.9383 53.371 28.9383C52.9442 28.9383 52.5216 28.8542 52.1273 28.6909C51.733 28.5276 51.3747 28.2882 51.0729 27.9864C50.7711 27.6846 50.5317 27.3264 50.3684 26.932C50.2051 26.5377 50.121 26.1151 50.121 25.6883C50.1249 25.3516 50.1834 25.0188 50.2926 24.7003H56.4481C56.5599 25.0175 56.6171 25.3516 56.621 25.6883ZM51.421 4.55046C51.421 4.03329 51.6265 3.5373 51.9922 3.17161C52.3578 2.80592 52.8538 2.60047 53.371 2.60047C53.8882 2.60047 54.3842 2.80592 54.7499 3.17161C55.1155 3.5373 55.321 4.03329 55.321 4.55046V10.4004H51.421V4.55046ZM48.821 14.3004C48.821 13.9556 48.958 13.625 49.2018 13.3812C49.4456 13.1374 49.7762 13.0004 50.121 13.0004H56.621C56.9658 13.0004 57.2964 13.1374 57.5402 13.3812C57.784 13.625 57.921 13.9556 57.921 14.3004V20.8004C57.921 21.1451 57.784 21.4758 57.5402 21.7196C57.2964 21.9634 56.9658 22.1004 56.621 22.1004H50.121C49.7762 22.1004 49.4456 21.9634 49.2018 21.7196C48.958 21.4758 48.821 21.1451 48.821 20.8004V14.3004ZM38.1026 55.4334L33.3706 57.4601L44.2711 31.6917C45.2147 33.073 46.4592 34.2224 47.911 35.0535L40.1111 52.6346L39.4611 54.0932C39.1911 54.6936 38.7066 55.1716 38.1026 55.4334ZM50.108 33.253C49.0048 32.7886 48.0131 32.0945 47.1989 31.2169C46.3848 30.3394 45.767 29.2985 45.3865 28.1635C45.0729 27.2949 44.9153 26.3778 44.9211 25.4543C44.9193 23.8548 45.3753 22.2881 46.2353 20.9395C46.2743 22.1238 46.8541 23.2248 47.807 23.9294C47.6214 24.4974 47.5249 25.0908 47.521 25.6883C47.521 27.2398 48.1374 28.7278 49.2345 29.8249C50.3315 30.922 51.8195 31.5383 53.371 31.5383C54.9225 31.5383 56.4105 30.922 57.5076 29.8249C58.6046 28.7278 59.221 27.2398 59.221 25.6883C59.2191 25.0882 59.1231 24.492 58.9363 23.9216C59.4052 23.5744 59.7899 23.126 60.0618 22.6097C60.3336 22.0935 60.4857 21.5226 60.5067 20.9395C61.3667 22.2881 61.8227 23.8548 61.821 25.4543C61.8262 26.3903 61.665 27.3198 61.3426 28.1999C60.9627 29.3293 60.3455 30.3644 59.5325 31.2355C58.7194 32.1066 57.7294 32.7936 56.6288 33.2504C54.5415 34.1157 52.196 34.1167 50.108 33.253ZM68.6446 55.4361C68.039 55.1761 67.5525 54.6989 67.2809 54.0984L58.831 35.0548C60.2847 34.228 61.5299 33.0794 62.4709 31.6969L73.3701 57.4601L68.6446 55.4361Z" fill="#65991D" stroke="#65991D" stroke-width="4" mask="url(#path-3-inside-1_1_2404)"/>
</svg>
