<svg width="83" height="78" viewBox="0 0 83 78" fill="none" xmlns="http://www.w3.org/2000/svg">
<path d="M81.4315 70.2591H71.6827C72.1271 69.497 72.4005 68.6229 72.4005 67.6788H75.5099C76.5581 67.6788 77.5485 67.2228 78.2287 66.4277C78.5647 66.0346 78.8114 65.5733 78.952 65.0757C79.0925 64.578 79.1234 64.0558 79.0426 63.545C78.1973 58.1261 75.0324 55.3834 73.2205 54.2299C72.8577 53.9993 72.6019 53.6119 72.5048 53.1602L71.948 50.3367C71.6419 48.8519 70.5462 47.6929 69.1628 47.2445L76.3664 8.83542C76.4147 8.57196 76.5291 8.3251 76.6991 8.11804C76.869 7.91097 77.0887 7.7505 77.3377 7.65171L80.5581 6.3635C82.1796 5.71585 83.0174 3.91109 82.4643 2.25616C82.3193 1.82336 82.0864 1.42519 81.7803 1.08665C81.4742 0.748101 81.1014 0.476487 80.6853 0.288848C79.8475 -0.0872298 78.8786 -0.0973898 78.0332 0.266109L74.2749 1.87686C71.8294 2.92446 70.0932 5.11416 69.6309 7.73412L62.6958 47.0365H54.0802C52.3843 47.0365 50.8852 48.0494 50.2627 49.6142L49.1427 52.4125C48.8227 53.2089 48.1385 53.8085 47.3158 54.0157L37.0135 56.5947C34.5718 57.1932 32.6328 58.9841 31.8278 61.3874L31.2974 62.978C30.9319 64.0842 31.1122 65.2592 31.7925 66.2002C32.4716 67.14 33.5274 67.6787 34.689 67.6787H37.5667C37.5667 68.6227 37.84 69.4968 38.2845 70.259H33.7454C32.5914 70.259 31.5507 69.9516 30.7368 69.37C29.4228 68.4321 29.5247 67.5016 29.7592 66.7967C31.285 62.222 27.0491 57.9163 26.8677 57.7354C26.6721 57.5394 26.4185 57.4116 26.1446 57.371C25.8707 57.3304 25.591 57.3791 25.3469 57.5099C25.1026 57.6405 24.9069 57.8463 24.7887 58.0968C24.6705 58.3473 24.6361 58.6292 24.6905 58.9008C25.3142 62.0191 24.586 63.6437 23.8942 64.4488C22.9366 61.2783 24.0303 55.8972 24.6162 53.841C24.69 53.5812 24.6804 53.3048 24.5889 53.0506C24.4974 52.7965 24.3285 52.5774 24.1059 52.4243C23.6486 52.11 23.0413 52.1232 22.6016 52.4551C19.7857 54.5661 18.0495 57.9944 17.0151 60.9015C16.3197 54.316 16.6573 43.8877 16.9219 39.3709C16.9373 39.1097 16.8728 38.8501 16.7371 38.6264C16.6014 38.4027 16.4009 38.2256 16.1622 38.1185C15.9237 38.0112 15.6581 37.979 15.4009 38.0263C15.1436 38.0736 14.9069 38.198 14.7221 38.3832C10.6841 42.4205 9.47198 50.8518 9.1646 57.1911C6.41804 52.9155 2.44681 50.0385 2.19233 49.8566C1.95301 49.6851 1.66215 49.6008 1.36823 49.6178C1.0743 49.6348 0.79507 49.7519 0.577063 49.9498C0.359073 50.1472 0.215015 50.4131 0.168737 50.7034C0.122459 50.9938 0.176735 51.2913 0.322582 51.5467C4.33284 58.5656 3.39168 67.4071 2.93561 70.3041C1.35809 70.5665 0.152283 71.9412 0.152283 73.5922V76.7099C0.152283 77.4223 0.729301 78 1.44243 78H81.4315C82.1446 78 82.7216 77.4223 82.7216 76.7099V71.5493C82.7216 70.8368 82.1446 70.2591 81.4315 70.2591ZM47.8877 67.6788H62.0793C62.0793 68.6229 62.3526 69.497 62.7971 70.2591H47.17C47.6143 69.497 47.8877 68.6229 47.8877 67.6788ZM64.6596 67.6788C64.6596 66.2558 65.8175 65.0985 67.2399 65.0985C68.6623 65.0985 69.8202 66.2558 69.8202 67.6788C69.8202 69.1019 68.6623 70.2591 67.2399 70.2591C65.8175 70.2591 64.6596 69.1019 64.6596 67.6788ZM75.2907 4.24815L79.0491 2.63804C79.3048 2.52838 79.519 2.59515 79.6287 2.64304C79.7198 2.68356 79.8014 2.74273 79.8682 2.81673C79.935 2.89073 79.9856 2.97791 80.0167 3.07266C80.0744 3.24676 80.0635 3.43631 79.9862 3.60265C79.909 3.76899 79.7712 3.89961 79.6009 3.96786L76.3806 5.25607C75.1791 5.73649 74.3152 6.73958 73.9577 7.96344L72.4171 7.30031C72.9101 5.94049 73.9336 4.83032 75.2907 4.24815ZM71.8726 9.87512L73.4215 10.5418L66.578 47.0365H65.3148L71.8726 9.87512ZM34.6889 65.0985C34.365 65.0985 34.0715 64.9492 33.8838 64.6891C33.6935 64.4264 33.6445 64.0982 33.7453 63.7908L34.2744 62.2059C34.7885 60.6719 36.0735 59.4819 37.6346 59.0995L47.9457 56.5186C48.3512 56.4156 48.7427 56.2642 49.1119 56.0675H63.5547C64.2679 56.0675 64.8449 55.4899 64.8449 54.7774C64.8449 54.0649 64.2679 53.4872 63.5547 53.4872H51.4753C51.4927 53.4469 51.5214 53.4138 51.5377 53.3732L52.6603 50.5712C52.8896 49.9916 53.4477 49.6168 54.0802 49.6168H67.9103C68.6498 49.6168 69.2711 50.127 69.4185 50.8465L69.9395 53.4872H68.6687C67.9556 53.4872 67.3786 54.0649 67.3786 54.7774C67.3786 55.4899 67.9556 56.0675 68.6687 56.0675H71.4056C71.5453 56.1854 71.6804 56.3086 71.836 56.4076C73.2799 57.3261 75.8036 59.5266 76.4927 63.9443C76.5557 64.3425 76.378 64.6209 76.2672 64.7507C76.1564 64.8805 75.9106 65.0985 75.5099 65.0985H71.6827C70.7876 63.5636 69.1417 62.5182 67.2399 62.5182C65.3381 62.5182 63.6921 63.5636 62.7971 65.0985H47.17C46.275 63.5636 44.6291 62.5182 42.7273 62.5182C40.8254 62.5182 39.1795 63.5636 38.2845 65.0985H34.6889ZM40.1468 67.6788C40.1468 66.2558 41.3047 65.0985 42.7271 65.0985C44.1495 65.0985 45.3074 66.2558 45.3074 67.6788C45.3074 69.1019 44.1495 70.2591 42.7271 70.2591C41.3047 70.2591 40.1468 69.1019 40.1468 67.6788ZM80.1413 75.4197H2.73258V73.5922C2.73275 73.3927 2.81202 73.2014 2.95303 73.0603C3.09403 72.9192 3.28524 72.8398 3.48473 72.8394H4.02272C4.3163 72.8393 4.60107 72.7391 4.83008 72.5554C5.05909 72.3717 5.21869 72.1155 5.28255 71.8289C5.37076 71.4295 7.03634 63.6816 4.83406 55.7814C6.80073 57.9869 8.79513 60.9533 9.13283 64.1591C9.1567 64.7279 9.17944 65.0871 9.18573 65.184C9.23104 65.8789 9.88627 66.3961 10.5162 66.3879C10.8508 66.3767 11.1679 66.236 11.4006 65.9954C11.6334 65.7548 11.7635 65.4331 11.7634 65.0984C11.7634 64.7405 11.7459 64.3859 11.7143 64.035C11.592 60.8506 11.442 50.6183 14.127 44.083C13.894 51.0163 13.807 63.039 15.77 66.9655C16.0232 67.4695 16.57 67.7485 17.1308 67.6622C17.4021 67.6179 17.6523 67.4882 17.8449 67.292C18.0375 67.0957 18.1625 66.8432 18.2018 66.5711C18.2106 66.508 18.8997 61.8704 21.1475 58.0384C20.7658 61.0589 20.7417 64.765 22.3015 67.1041C22.4585 67.3396 22.6886 67.517 22.9564 67.6089C23.2242 67.7007 23.5147 67.702 23.7832 67.6124C23.9306 67.5632 26.4908 66.6612 27.282 63.2681C27.539 64.1337 27.6158 65.0692 27.3123 65.98C26.5979 68.1231 27.2808 70.0729 29.2375 71.4694C30.491 72.3653 32.0497 72.8389 33.7454 72.8389H80.1415V75.4197H80.1413Z" fill="#65991D"/>
<path d="M37.3573 36.7187C36.9555 35.5198 36.0345 34.6027 34.8325 34.2014C34.4181 34.0653 33.9594 34.1442 33.618 34.4182C33.434 34.5656 29.0886 38.1052 28.0304 44.4697C27.4835 47.7631 29.5033 51.0565 32.726 52.1312C32.9347 52.2007 33.1577 52.2156 33.3737 52.1748C33.5898 52.1339 33.7919 52.0384 33.9607 51.8976C34.1298 51.7568 34.26 51.5751 34.3389 51.3698C34.4179 51.1645 34.443 50.9424 34.4118 50.7246C33.7377 46.0108 35.3668 42.4471 36.8523 40.2869C37.5791 39.229 37.7631 37.9282 37.3573 36.7187ZM34.7254 38.8258C33.2677 40.9461 31.6904 44.2194 31.6739 48.4698C30.7982 47.5148 30.3586 46.2025 30.5754 44.8922C31.2419 40.8863 33.4946 38.1567 34.6034 37.0228C34.7422 37.1703 34.8472 37.3464 34.9107 37.5387C35.0569 37.9735 34.9888 38.4421 34.7254 38.8258ZM43.1543 42.9375C43.363 42.9911 43.5818 42.9916 43.7907 42.9387C43.9996 42.8859 44.1919 42.7815 44.3499 42.6351C44.491 42.5042 47.8222 39.3707 48.311 34.1427C48.5705 31.3621 46.692 28.7339 43.9403 28.0297C43.7274 27.9748 43.5039 27.9754 43.2912 28.0315C43.0786 28.0877 42.8839 28.1974 42.7258 28.3503C42.5673 28.5028 42.4504 28.6932 42.3863 28.9036C42.3221 29.114 42.3128 29.3372 42.3592 29.5522C43.1467 33.187 42.0757 36.0552 41.0388 37.8216C40.478 38.7766 40.4 39.9081 40.8233 40.9247C41.2442 41.9328 42.0933 42.6666 43.1543 42.9375ZM43.2638 39.1275C44.2466 37.455 45.2532 34.9749 45.2129 31.8787C45.6085 32.4652 45.8101 33.1745 45.7407 33.9021C45.4685 36.8156 44.0814 38.9593 43.2436 40.0114C43.2297 39.9854 43.2171 39.9587 43.2059 39.9314C43.0962 39.6699 43.1177 39.3764 43.2638 39.1275ZM38.6438 27.3922C38.835 27.2835 38.9952 27.1276 39.109 26.9393C39.2229 26.751 39.2865 26.5367 39.2939 26.3169C39.4248 22.6014 41.1686 20.0846 42.6061 18.6282C43.3848 17.8408 43.74 16.7636 43.58 15.6738C43.4201 14.5928 42.7774 13.6718 41.815 13.1477C41.6257 13.0449 41.4137 12.9911 41.1984 12.991C40.983 12.9909 40.771 13.0445 40.5816 13.147C40.4127 13.239 36.4138 15.4571 34.6537 20.4048C33.7175 23.0367 34.893 26.0454 37.3877 27.4048C37.5808 27.5097 37.7975 27.5636 38.0174 27.5614C38.2372 27.5592 38.4528 27.501 38.6438 27.3922ZM37.1003 23.3623C36.861 22.6964 36.8395 21.9587 37.0851 21.2695C38.0653 18.5115 39.9388 16.7754 41.0098 15.9615C41.0173 15.9936 41.0223 16.0233 41.0262 16.0497C41.0678 16.3294 40.9746 16.6079 40.7704 16.8144C39.4085 18.1947 37.8223 20.3511 37.1003 23.3623Z" fill="#65991D"/>
</svg>
