<svg width="83" height="78" viewBox="0 0 83 78" fill="none" xmlns="http://www.w3.org/2000/svg">
<mask id="path-1-inside-1_1_2440" fill="white">
<path d="M81.4315 70.2591H71.6827C72.1271 69.497 72.4005 68.6229 72.4005 67.6788H75.5099C76.5581 67.6788 77.5485 67.2228 78.2287 66.4277C78.5647 66.0346 78.8114 65.5733 78.952 65.0757C79.0925 64.578 79.1234 64.0558 79.0426 63.545C78.1973 58.1261 75.0324 55.3834 73.2205 54.2299C72.8577 53.9993 72.6019 53.6119 72.5048 53.1602L71.948 50.3367C71.6419 48.8519 70.5462 47.6929 69.1628 47.2445L76.3664 8.83542C76.4147 8.57196 76.5291 8.3251 76.6991 8.11804C76.869 7.91097 77.0887 7.7505 77.3377 7.65171L80.5581 6.3635C82.1796 5.71585 83.0174 3.91109 82.4643 2.25616C82.3193 1.82336 82.0864 1.42519 81.7803 1.08665C81.4742 0.748101 81.1014 0.476487 80.6853 0.288848C79.8475 -0.0872298 78.8786 -0.0973898 78.0332 0.266109L74.2749 1.87686C71.8294 2.92446 70.0932 5.11416 69.6309 7.73412L62.6958 47.0365H54.0802C52.3843 47.0365 50.8852 48.0494 50.2627 49.6142L49.1427 52.4125C48.8227 53.2089 48.1385 53.8085 47.3158 54.0157L37.0135 56.5947C34.5718 57.1932 32.6328 58.9841 31.8278 61.3874L31.2974 62.978C30.9319 64.0842 31.1122 65.2592 31.7925 66.2002C32.4716 67.14 33.5274 67.6787 34.689 67.6787H37.5667C37.5667 68.6227 37.84 69.4968 38.2845 70.259H33.7454C32.5914 70.259 31.5507 69.9516 30.7368 69.37C29.4228 68.4321 29.5247 67.5016 29.7592 66.7967C31.285 62.222 27.0491 57.9163 26.8677 57.7354C26.6721 57.5394 26.4185 57.4116 26.1446 57.371C25.8707 57.3304 25.591 57.3791 25.3469 57.5099C25.1026 57.6405 24.9069 57.8463 24.7887 58.0968C24.6705 58.3473 24.6361 58.6292 24.6905 58.9008C25.3142 62.0191 24.586 63.6437 23.8942 64.4488C22.9366 61.2783 24.0303 55.8972 24.6162 53.841C24.69 53.5812 24.6804 53.3048 24.5889 53.0506C24.4974 52.7965 24.3285 52.5774 24.1059 52.4243C23.6486 52.11 23.0413 52.1232 22.6016 52.4551C19.7857 54.5661 18.0495 57.9944 17.0151 60.9015C16.3197 54.316 16.6573 43.8877 16.9219 39.3709C16.9373 39.1097 16.8728 38.8501 16.7371 38.6264C16.6014 38.4027 16.4009 38.2256 16.1622 38.1185C15.9237 38.0112 15.6581 37.979 15.4009 38.0263C15.1436 38.0736 14.9069 38.198 14.7221 38.3832C10.6841 42.4205 9.47198 50.8518 9.1646 57.1911C6.41804 52.9155 2.44681 50.0385 2.19233 49.8566C1.95301 49.6851 1.66215 49.6008 1.36823 49.6178C1.0743 49.6348 0.79507 49.7519 0.577063 49.9498C0.359073 50.1472 0.215015 50.4131 0.168737 50.7034C0.122459 50.9938 0.176735 51.2913 0.322582 51.5467C4.33284 58.5656 3.39168 67.4071 2.93561 70.3041C1.35809 70.5665 0.152283 71.9412 0.152283 73.5922V76.7099C0.152283 77.4223 0.729301 78 1.44243 78H81.4315C82.1446 78 82.7216 77.4223 82.7216 76.7099V71.5493C82.7216 70.8368 82.1446 70.2591 81.4315 70.2591ZM47.8877 67.6788H62.0793C62.0793 68.6229 62.3526 69.497 62.7971 70.2591H47.17C47.6143 69.497 47.8877 68.6229 47.8877 67.6788ZM64.6596 67.6788C64.6596 66.2558 65.8175 65.0985 67.2399 65.0985C68.6623 65.0985 69.8202 66.2558 69.8202 67.6788C69.8202 69.1019 68.6623 70.2591 67.2399 70.2591C65.8175 70.2591 64.6596 69.1019 64.6596 67.6788ZM75.2907 4.24815L79.0491 2.63804C79.3048 2.52838 79.519 2.59515 79.6287 2.64304C79.7198 2.68356 79.8014 2.74273 79.8682 2.81673C79.935 2.89073 79.9856 2.97791 80.0167 3.07266C80.0744 3.24676 80.0635 3.43631 79.9862 3.60265C79.909 3.76899 79.7712 3.89961 79.6009 3.96786L76.3806 5.25607C75.1791 5.73649 74.3152 6.73958 73.9577 7.96344L72.4171 7.30031C72.9101 5.94049 73.9336 4.83032 75.2907 4.24815ZM71.8726 9.87512L73.4215 10.5418L66.578 47.0365H65.3148L71.8726 9.87512ZM34.6889 65.0985C34.365 65.0985 34.0715 64.9492 33.8838 64.6891C33.6935 64.4264 33.6445 64.0982 33.7453 63.7908L34.2744 62.2059C34.7885 60.6719 36.0735 59.4819 37.6346 59.0995L47.9457 56.5186C48.3512 56.4156 48.7427 56.2642 49.1119 56.0675H63.5547C64.2679 56.0675 64.8449 55.4899 64.8449 54.7774C64.8449 54.0649 64.2679 53.4872 63.5547 53.4872H51.4753C51.4927 53.4469 51.5214 53.4138 51.5377 53.3732L52.6603 50.5712C52.8896 49.9916 53.4477 49.6168 54.0802 49.6168H67.9103C68.6498 49.6168 69.2711 50.127 69.4185 50.8465L69.9395 53.4872H68.6687C67.9556 53.4872 67.3786 54.0649 67.3786 54.7774C67.3786 55.4899 67.9556 56.0675 68.6687 56.0675H71.4056C71.5453 56.1854 71.6804 56.3086 71.836 56.4076C73.2799 57.3261 75.8036 59.5266 76.4927 63.9443C76.5557 64.3425 76.378 64.6209 76.2672 64.7507C76.1564 64.8805 75.9106 65.0985 75.5099 65.0985H71.6827C70.7876 63.5636 69.1417 62.5182 67.2399 62.5182C65.3381 62.5182 63.6921 63.5636 62.7971 65.0985H47.17C46.275 63.5636 44.6291 62.5182 42.7273 62.5182C40.8254 62.5182 39.1795 63.5636 38.2845 65.0985H34.6889ZM40.1468 67.6788C40.1468 66.2558 41.3047 65.0985 42.7271 65.0985C44.1495 65.0985 45.3074 66.2558 45.3074 67.6788C45.3074 69.1019 44.1495 70.2591 42.7271 70.2591C41.3047 70.2591 40.1468 69.1019 40.1468 67.6788ZM80.1413 75.4197H2.73258V73.5922C2.73275 73.3927 2.81202 73.2014 2.95303 73.0603C3.09403 72.9192 3.28524 72.8398 3.48473 72.8394H4.02272C4.3163 72.8393 4.60107 72.7391 4.83008 72.5554C5.05909 72.3717 5.21869 72.1155 5.28255 71.8289C5.37076 71.4295 7.03634 63.6816 4.83406 55.7814C6.80073 57.9869 8.79513 60.9533 9.13283 64.1591C9.1567 64.7279 9.17944 65.0871 9.18573 65.184C9.23104 65.8789 9.88627 66.3961 10.5162 66.3879C10.8508 66.3767 11.1679 66.236 11.4006 65.9954C11.6334 65.7548 11.7635 65.4331 11.7634 65.0984C11.7634 64.7405 11.7459 64.3859 11.7143 64.035C11.592 60.8506 11.442 50.6183 14.127 44.083C13.894 51.0163 13.807 63.039 15.77 66.9655C16.0232 67.4695 16.57 67.7485 17.1308 67.6622C17.4021 67.6179 17.6523 67.4882 17.8449 67.292C18.0375 67.0957 18.1625 66.8432 18.2018 66.5711C18.2106 66.508 18.8997 61.8704 21.1475 58.0384C20.7658 61.0589 20.7417 64.765 22.3015 67.1041C22.4585 67.3396 22.6886 67.517 22.9564 67.6089C23.2242 67.7007 23.5147 67.702 23.7832 67.6124C23.9306 67.5632 26.4908 66.6612 27.282 63.2681C27.539 64.1337 27.6158 65.0692 27.3123 65.98C26.5979 68.1231 27.2808 70.0729 29.2375 71.4694C30.491 72.3653 32.0497 72.8389 33.7454 72.8389H80.1415V75.4197H80.1413Z"/>
</mask>
<path d="M81.4315 70.2591H71.6827C72.1271 69.497 72.4005 68.6229 72.4005 67.6788H75.5099C76.5581 67.6788 77.5485 67.2228 78.2287 66.4277C78.5647 66.0346 78.8114 65.5733 78.952 65.0757C79.0925 64.578 79.1234 64.0558 79.0426 63.545C78.1973 58.1261 75.0324 55.3834 73.2205 54.2299C72.8577 53.9993 72.6019 53.6119 72.5048 53.1602L71.948 50.3367C71.6419 48.8519 70.5462 47.6929 69.1628 47.2445L76.3664 8.83542C76.4147 8.57196 76.5291 8.3251 76.6991 8.11804C76.869 7.91097 77.0887 7.7505 77.3377 7.65171L80.5581 6.3635C82.1796 5.71585 83.0174 3.91109 82.4643 2.25616C82.3193 1.82336 82.0864 1.42519 81.7803 1.08665C81.4742 0.748101 81.1014 0.476487 80.6853 0.288848C79.8475 -0.0872298 78.8786 -0.0973898 78.0332 0.266109L74.2749 1.87686C71.8294 2.92446 70.0932 5.11416 69.6309 7.73412L62.6958 47.0365H54.0802C52.3843 47.0365 50.8852 48.0494 50.2627 49.6142L49.1427 52.4125C48.8227 53.2089 48.1385 53.8085 47.3158 54.0157L37.0135 56.5947C34.5718 57.1932 32.6328 58.9841 31.8278 61.3874L31.2974 62.978C30.9319 64.0842 31.1122 65.2592 31.7925 66.2002C32.4716 67.14 33.5274 67.6787 34.689 67.6787H37.5667C37.5667 68.6227 37.84 69.4968 38.2845 70.259H33.7454C32.5914 70.259 31.5507 69.9516 30.7368 69.37C29.4228 68.4321 29.5247 67.5016 29.7592 66.7967C31.285 62.222 27.0491 57.9163 26.8677 57.7354C26.6721 57.5394 26.4185 57.4116 26.1446 57.371C25.8707 57.3304 25.591 57.3791 25.3469 57.5099C25.1026 57.6405 24.9069 57.8463 24.7887 58.0968C24.6705 58.3473 24.6361 58.6292 24.6905 58.9008C25.3142 62.0191 24.586 63.6437 23.8942 64.4488C22.9366 61.2783 24.0303 55.8972 24.6162 53.841C24.69 53.5812 24.6804 53.3048 24.5889 53.0506C24.4974 52.7965 24.3285 52.5774 24.1059 52.4243C23.6486 52.11 23.0413 52.1232 22.6016 52.4551C19.7857 54.5661 18.0495 57.9944 17.0151 60.9015C16.3197 54.316 16.6573 43.8877 16.9219 39.3709C16.9373 39.1097 16.8728 38.8501 16.7371 38.6264C16.6014 38.4027 16.4009 38.2256 16.1622 38.1185C15.9237 38.0112 15.6581 37.979 15.4009 38.0263C15.1436 38.0736 14.9069 38.198 14.7221 38.3832C10.6841 42.4205 9.47198 50.8518 9.1646 57.1911C6.41804 52.9155 2.44681 50.0385 2.19233 49.8566C1.95301 49.6851 1.66215 49.6008 1.36823 49.6178C1.0743 49.6348 0.79507 49.7519 0.577063 49.9498C0.359073 50.1472 0.215015 50.4131 0.168737 50.7034C0.122459 50.9938 0.176735 51.2913 0.322582 51.5467C4.33284 58.5656 3.39168 67.4071 2.93561 70.3041C1.35809 70.5665 0.152283 71.9412 0.152283 73.5922V76.7099C0.152283 77.4223 0.729301 78 1.44243 78H81.4315C82.1446 78 82.7216 77.4223 82.7216 76.7099V71.5493C82.7216 70.8368 82.1446 70.2591 81.4315 70.2591ZM47.8877 67.6788H62.0793C62.0793 68.6229 62.3526 69.497 62.7971 70.2591H47.17C47.6143 69.497 47.8877 68.6229 47.8877 67.6788ZM64.6596 67.6788C64.6596 66.2558 65.8175 65.0985 67.2399 65.0985C68.6623 65.0985 69.8202 66.2558 69.8202 67.6788C69.8202 69.1019 68.6623 70.2591 67.2399 70.2591C65.8175 70.2591 64.6596 69.1019 64.6596 67.6788ZM75.2907 4.24815L79.0491 2.63804C79.3048 2.52838 79.519 2.59515 79.6287 2.64304C79.7198 2.68356 79.8014 2.74273 79.8682 2.81673C79.935 2.89073 79.9856 2.97791 80.0167 3.07266C80.0744 3.24676 80.0635 3.43631 79.9862 3.60265C79.909 3.76899 79.7712 3.89961 79.6009 3.96786L76.3806 5.25607C75.1791 5.73649 74.3152 6.73958 73.9577 7.96344L72.4171 7.30031C72.9101 5.94049 73.9336 4.83032 75.2907 4.24815ZM71.8726 9.87512L73.4215 10.5418L66.578 47.0365H65.3148L71.8726 9.87512ZM34.6889 65.0985C34.365 65.0985 34.0715 64.9492 33.8838 64.6891C33.6935 64.4264 33.6445 64.0982 33.7453 63.7908L34.2744 62.2059C34.7885 60.6719 36.0735 59.4819 37.6346 59.0995L47.9457 56.5186C48.3512 56.4156 48.7427 56.2642 49.1119 56.0675H63.5547C64.2679 56.0675 64.8449 55.4899 64.8449 54.7774C64.8449 54.0649 64.2679 53.4872 63.5547 53.4872H51.4753C51.4927 53.4469 51.5214 53.4138 51.5377 53.3732L52.6603 50.5712C52.8896 49.9916 53.4477 49.6168 54.0802 49.6168H67.9103C68.6498 49.6168 69.2711 50.127 69.4185 50.8465L69.9395 53.4872H68.6687C67.9556 53.4872 67.3786 54.0649 67.3786 54.7774C67.3786 55.4899 67.9556 56.0675 68.6687 56.0675H71.4056C71.5453 56.1854 71.6804 56.3086 71.836 56.4076C73.2799 57.3261 75.8036 59.5266 76.4927 63.9443C76.5557 64.3425 76.378 64.6209 76.2672 64.7507C76.1564 64.8805 75.9106 65.0985 75.5099 65.0985H71.6827C70.7876 63.5636 69.1417 62.5182 67.2399 62.5182C65.3381 62.5182 63.6921 63.5636 62.7971 65.0985H47.17C46.275 63.5636 44.6291 62.5182 42.7273 62.5182C40.8254 62.5182 39.1795 63.5636 38.2845 65.0985H34.6889ZM40.1468 67.6788C40.1468 66.2558 41.3047 65.0985 42.7271 65.0985C44.1495 65.0985 45.3074 66.2558 45.3074 67.6788C45.3074 69.1019 44.1495 70.2591 42.7271 70.2591C41.3047 70.2591 40.1468 69.1019 40.1468 67.6788ZM80.1413 75.4197H2.73258V73.5922C2.73275 73.3927 2.81202 73.2014 2.95303 73.0603C3.09403 72.9192 3.28524 72.8398 3.48473 72.8394H4.02272C4.3163 72.8393 4.60107 72.7391 4.83008 72.5554C5.05909 72.3717 5.21869 72.1155 5.28255 71.8289C5.37076 71.4295 7.03634 63.6816 4.83406 55.7814C6.80073 57.9869 8.79513 60.9533 9.13283 64.1591C9.1567 64.7279 9.17944 65.0871 9.18573 65.184C9.23104 65.8789 9.88627 66.3961 10.5162 66.3879C10.8508 66.3767 11.1679 66.236 11.4006 65.9954C11.6334 65.7548 11.7635 65.4331 11.7634 65.0984C11.7634 64.7405 11.7459 64.3859 11.7143 64.035C11.592 60.8506 11.442 50.6183 14.127 44.083C13.894 51.0163 13.807 63.039 15.77 66.9655C16.0232 67.4695 16.57 67.7485 17.1308 67.6622C17.4021 67.6179 17.6523 67.4882 17.8449 67.292C18.0375 67.0957 18.1625 66.8432 18.2018 66.5711C18.2106 66.508 18.8997 61.8704 21.1475 58.0384C20.7658 61.0589 20.7417 64.765 22.3015 67.1041C22.4585 67.3396 22.6886 67.517 22.9564 67.6089C23.2242 67.7007 23.5147 67.702 23.7832 67.6124C23.9306 67.5632 26.4908 66.6612 27.282 63.2681C27.539 64.1337 27.6158 65.0692 27.3123 65.98C26.5979 68.1231 27.2808 70.0729 29.2375 71.4694C30.491 72.3653 32.0497 72.8389 33.7454 72.8389H80.1415V75.4197H80.1413Z" fill="white" stroke="white" stroke-width="2" mask="url(#path-1-inside-1_1_2440)"/>
<path d="M36.8833 36.8777L36.8833 36.8776C36.5317 35.8287 35.7285 35.028 34.6753 34.6761C34.4185 34.5922 34.1375 34.6424 33.931 34.8081L33.9306 34.8084C33.7791 34.9298 29.5515 38.3703 28.5236 44.5516L36.8833 36.8777ZM36.8833 36.8777C37.2388 37.9372 37.0786 39.0744 36.4401 40.0037M36.8833 36.8777L36.8523 40.2869M32.726 52.1312C32.9347 52.2007 33.1577 52.2156 33.3737 52.1748C33.5898 52.1339 33.7919 52.0384 33.9607 51.8976C34.1298 51.7568 34.26 51.5751 34.3389 51.3698C34.4179 51.1645 34.443 50.9424 34.4118 50.7246C33.7377 46.0108 35.3668 42.4471 36.8523 40.2869M32.726 52.1312L32.8842 51.6569M32.726 52.1312L32.8839 51.6568C32.884 51.6568 32.8841 51.6569 32.8842 51.6569M32.726 52.1312C29.5033 51.0565 27.4835 47.7631 28.0304 44.4697L28.5236 44.5517C28.0182 47.5959 29.8883 50.6579 32.8842 51.6569M32.8842 51.6569C33.012 51.6994 33.1485 51.7085 33.2808 51.6835C33.4131 51.6584 33.5369 51.6 33.6404 51.5136L33.6408 51.5133C33.7442 51.4272 33.8239 51.316 33.8722 51.1903C33.9206 51.0647 33.9359 50.9288 33.9168 50.7955L33.9168 50.7954C33.22 45.9226 34.9064 42.2342 36.4401 40.0037M36.4401 40.0037L36.8523 40.2869M36.4401 40.0037C36.4402 40.0037 36.4402 40.0036 36.4403 40.0036L36.8523 40.2869M43.278 42.453L43.2788 42.4532C43.4065 42.4861 43.5403 42.4863 43.6681 42.454C43.7957 42.4217 43.9132 42.358 44.0098 42.2686L43.278 42.453ZM43.278 42.453C42.3691 42.2209 41.6453 41.5953 41.2849 40.7325C40.9222 39.8616 40.9884 38.895 41.47 38.0747L41.47 38.0747C42.55 36.2349 43.6693 33.2384 42.848 29.4466C42.8195 29.315 42.8252 29.1783 42.8645 29.0495C42.9038 28.9206 42.9754 28.804 43.0724 28.7106L43.0734 28.7097C43.17 28.6163 43.2889 28.5493 43.4188 28.515C43.5488 28.4807 43.6853 28.4803 43.8154 28.5138L43.8163 28.5141M43.278 42.453L43.8163 28.5141M43.8163 28.5141C46.3359 29.1589 48.0492 31.5666 47.8132 34.0962M43.8163 28.5141L47.8132 34.0962M38.3963 26.9577L38.3967 26.9575C38.5137 26.891 38.6116 26.7957 38.6812 26.6806C38.7507 26.5655 38.7896 26.4345 38.7941 26.3001L38.7942 26.2992C38.9308 22.4232 40.7531 19.7939 42.2503 18.277L42.2506 18.2767C42.9195 17.6002 43.2223 16.68 43.0854 15.7468C42.9484 14.8214 42.4006 14.036 41.5761 13.587C41.4601 13.524 41.3301 13.491 41.1981 13.491C41.0661 13.4909 40.9362 13.5237 40.8201 13.5865C40.678 13.6639 36.8204 15.8059 35.1248 20.5723M38.3963 26.9577L35.1248 20.5723M38.3963 26.9577C38.2793 27.0244 38.1471 27.0601 38.0123 27.0615C37.8777 27.0628 37.7449 27.0298 37.6266 26.9656M38.3963 26.9577L37.6266 26.9656M35.1248 20.5723C34.2732 22.9664 35.3424 25.7207 37.6266 26.9656M35.1248 20.5723L37.6266 26.9656M47.8132 34.0962C47.3422 39.1336 44.1282 42.1586 44.0102 42.2683L47.8132 34.0962ZM35.1375 39.1091L35.1377 39.1088C35.4877 38.5988 35.5818 37.9672 35.3851 37.3806C35.2986 37.1194 35.156 36.8803 34.9674 36.68L34.6102 36.3007L34.2459 36.6732C33.1009 37.8442 30.7722 40.6629 30.0822 44.8102L30.0821 44.8106C29.8384 46.2838 30.3339 47.7481 31.3054 48.8077L32.169 49.7495L32.1739 48.4717C32.1899 44.3485 33.7194 41.1717 35.1375 39.1091ZM42.8327 38.8742L42.8326 38.8744C42.6091 39.2551 42.5728 39.7131 42.7441 40.1231C42.7616 40.1656 42.7812 40.2072 42.803 40.2477L43.1618 40.9169L43.6348 40.3229C44.506 39.2288 45.9537 36.9951 46.2385 33.9495C46.3196 33.0985 46.0831 32.2747 45.6274 31.5991L44.6911 30.2109L44.7129 31.8852C44.7518 34.8669 43.7826 37.2577 42.8327 38.8742ZM36.6298 23.5314L37.1961 25.1071L37.5865 23.4788C38.2818 20.5791 39.8097 18.5001 41.1263 17.1656C41.437 16.8511 41.586 16.4171 41.5209 15.9773C41.5159 15.9429 41.5085 15.8978 41.4964 15.8466L41.3196 15.098L40.7072 15.5634C39.5937 16.4097 37.6388 18.2184 36.614 21.102C36.327 21.9078 36.3542 22.7646 36.6298 23.5314Z" fill="white" stroke="white"/>
</svg>
