<svg width="73" height="78" viewBox="0 0 73 78" fill="none" xmlns="http://www.w3.org/2000/svg">
<path d="M20.9129 66.4575H9.83709C7.34469 66.4575 5.31879 64.4316 5.31879 61.9392V37.0952C5.31879 34.6028 7.34469 32.5769 9.83709 32.5769H20.9129C23.4053 32.5769 25.4312 34.6028 25.4312 37.0952V61.9526C25.4312 64.445 23.4053 66.4575 20.9129 66.4575ZM9.83709 35.2426C8.82414 35.2426 7.98445 36.0689 7.98445 37.0952V61.9526C7.98445 62.9655 8.81081 63.8052 9.83709 63.8052H20.9129C21.9259 63.8052 22.7656 62.9788 22.7656 61.9526V37.0952C22.7656 36.0823 21.9392 35.2426 20.9129 35.2426H9.83709Z" fill="#65991D"/>
<path d="M45.2905 45.5187C45.1155 45.523 44.9413 45.4929 44.7779 45.43C44.6145 45.367 44.4651 45.2725 44.3383 45.1518C44.0821 44.9081 43.9332 44.5726 43.9243 44.2191C43.9155 43.8657 44.0474 43.5231 44.2911 43.2669C44.5348 43.0107 44.8704 42.8618 45.2238 42.853L66.0027 41.7867C66.6425 41.7601 67.1356 41.2269 67.1356 40.5872V38.3214C67.1356 37.9881 67.0023 37.6949 66.7758 37.455C66.6608 37.3446 66.525 37.2582 66.3762 37.201C66.2274 37.1438 66.0687 37.1169 65.9094 37.1218L45.2772 37.6816C43.9976 37.7216 42.7581 37.2418 41.8384 36.3354C40.9055 35.4291 40.399 34.2296 40.399 32.9367V31.8171L24.6715 39.2943C24.0051 39.6142 23.2188 39.321 22.8989 38.6679C22.579 38.0148 22.8722 37.2018 23.5253 36.8952L41.1587 28.5117C41.3605 28.4126 41.5847 28.3679 41.8091 28.3819C42.0335 28.3959 42.2503 28.4682 42.4382 28.5917C42.8247 28.8316 43.0646 29.2581 43.0646 29.7246V32.95C43.0646 33.5232 43.2912 34.043 43.6911 34.4428C44.1043 34.8427 44.6374 35.0559 45.1972 35.0293L65.8295 34.4695C66.8691 34.4295 67.882 34.8293 68.6284 35.5624C69.3881 36.2954 69.8013 37.2817 69.8013 38.3347V40.6005C69.8013 42.6531 68.1886 44.3591 66.136 44.4657L45.3571 45.532C45.3438 45.5187 45.3171 45.5187 45.2905 45.5187Z" fill="#65991D"/>
<path d="M48.8359 53.6626C48.1295 53.6626 47.5431 53.1028 47.5031 52.3964C47.4631 51.6633 48.0362 51.0369 48.7693 50.9969L61.5778 50.3571C63.2838 50.2772 64.6433 48.8644 64.67 47.1583L64.7366 43.0932C64.7499 42.3601 65.363 41.747 66.0961 41.787C66.8292 41.8003 67.4156 42.4134 67.4023 43.1465L67.3356 47.2116C67.2823 50.3171 64.8033 52.8629 61.7111 53.0228L48.9025 53.6626H48.8359Z" fill="#65991D"/>
<path d="M48.8358 60.9532C48.1294 60.9532 47.5296 60.3934 47.503 59.6736C47.4763 58.9406 48.0494 58.3141 48.7825 58.2875L58.8987 57.861C60.1915 57.8077 61.2045 56.7547 61.2045 55.4619V51.65C61.2045 50.9169 61.8043 50.3171 62.5373 50.3171C63.2704 50.3171 63.8702 50.9169 63.8702 51.65V55.4619C63.8702 58.1942 61.7376 60.42 59.0053 60.5266L48.8891 60.9532H48.8358Z" fill="#65991D"/>
<path d="M51.968 67.5106H36.4271C33.3216 67.5106 30.2428 66.7376 27.5105 65.2848L23.472 63.1256C23.3178 63.0435 23.1812 62.9319 23.0702 62.7969C22.9593 62.662 22.876 62.5065 22.8252 62.3394C22.7745 62.1722 22.7572 61.9967 22.7744 61.8228C22.7916 61.649 22.843 61.4802 22.9255 61.3263C23.2721 60.6732 24.0718 60.4333 24.7249 60.7798L28.7633 62.939C31.1091 64.1919 33.7615 64.8583 36.4271 64.8583H51.968C54.2605 64.8583 56.1264 62.9923 56.1264 60.6998V59.6202C56.1264 58.8872 56.7262 58.2874 57.4593 58.2874C58.1923 58.2874 58.7921 58.8872 58.7921 59.6202V60.6998C58.7921 64.4451 55.7266 67.5106 51.968 67.5106ZM62.5374 37.2153C61.8043 37.2153 61.2045 36.6155 61.2045 35.8825V27.6589C61.1779 26.9391 60.6047 11.7448 65.9627 4.37427C64.4566 4.88074 62.7639 5.72043 61.1912 7.13323C57.8591 10.1588 56.0198 14.917 55.7266 21.2879C55.6866 22.021 55.0868 22.5675 54.3271 22.5541C54.1519 22.5459 53.98 22.5032 53.8214 22.4283C53.6628 22.3534 53.5205 22.2479 53.4028 22.1178C53.2851 21.9878 53.1943 21.8357 53.1357 21.6704C53.077 21.5051 53.0516 21.3298 53.0609 21.1546C53.3941 14.024 55.54 8.63934 59.4319 5.12065C64.3633 0.682316 70.2411 0.962212 70.4944 0.97554C70.7952 0.99163 71.0817 1.10906 71.3073 1.30872C71.5329 1.50838 71.6843 1.77852 71.7368 2.07516C71.7894 2.37181 71.74 2.6775 71.5966 2.94249C71.4533 3.20748 71.2245 3.41616 70.9475 3.53458C64.43 6.30688 63.6303 21.8477 63.8702 27.5922V35.8691C63.8702 36.6155 63.2704 37.2153 62.5374 37.2153ZM48.8358 37.5885H48.7558C48.5807 37.5785 48.4092 37.5339 48.2512 37.4574C48.0933 37.3809 47.9521 37.2739 47.8357 37.1426C47.7192 37.0113 47.6299 36.8583 47.5728 36.6923C47.5157 36.5264 47.492 36.3508 47.503 36.1757C48.1427 24.8199 44.2909 19.3686 40.7322 16.7696C43.4778 22.1143 43.0913 29.3649 43.0646 29.7914C43.0247 30.5245 42.4116 31.0709 41.6518 31.0443C40.9188 31.0043 40.359 30.3645 40.399 29.6315C40.399 29.5115 41.0654 17.1162 34.7877 14.3305C34.188 14.064 33.8681 13.4109 34.0414 12.7711C34.2146 12.1314 34.8144 11.7182 35.4675 11.7848C35.6274 11.8115 51.4482 13.6375 50.1687 36.3356C50.1287 37.042 49.5422 37.5885 48.8358 37.5885Z" fill="#65991D"/>
<path d="M55.6866 37.4019H55.6466C55.2943 37.388 54.9614 37.2364 54.7197 36.9797C54.4779 36.7229 54.3465 36.3816 54.3538 36.0291C55.0069 15.9566 47.5697 8.94587 42.7048 6.52011C45.2372 10.0921 48.5026 16.2365 48.9691 24.62C49.0091 25.3531 48.4493 25.9795 47.7163 26.0328C46.9965 26.0728 46.3568 25.513 46.3168 24.7799C45.6104 12.2646 37.9599 4.97402 37.88 4.90738C37.6796 4.7187 37.5426 4.47264 37.4877 4.20297C37.4328 3.9333 37.4628 3.65326 37.5734 3.40128C37.8 2.88147 38.3198 2.56159 38.8929 2.61491C39.0795 2.62824 58.0457 4.48088 57.0061 36.149C56.9928 36.8421 56.4063 37.4019 55.6866 37.4019ZM46.5034 78H43.8244C41.8918 78 40.319 76.4273 40.319 74.4946V66.1778C40.319 65.4447 40.9188 64.8449 41.6519 64.8449C42.3849 64.8449 42.9847 65.4447 42.9847 66.1778V74.4946C42.9847 74.9611 43.3579 75.3343 43.8244 75.3343H46.5034C47.0898 75.3343 47.583 74.8545 47.583 74.2547V66.1778C47.583 65.4447 48.1828 64.8449 48.9158 64.8449C49.6489 64.8449 50.2487 65.4447 50.2487 66.1778V74.2547C50.2455 75.2471 49.8499 76.1979 49.1482 76.8995C48.4465 77.6012 47.4957 77.9968 46.5034 78Z" fill="#65991D"/>
<path d="M53.9806 75.7743H48.9025C48.1694 75.7743 47.5696 75.1745 47.5696 74.4414C47.5696 73.7084 48.1694 73.1086 48.9025 73.1086H53.9806C55.1668 73.1086 56.1264 72.149 56.1264 70.9627V60.6866C56.1264 59.9535 56.7262 59.3538 57.4593 59.3538C58.1923 59.3538 58.7921 59.9535 58.7921 60.6866V70.9627C58.7921 73.6151 56.6329 75.7743 53.9806 75.7743Z" fill="#65991D"/>
<path d="M60.2449 72.2155H57.4593C56.7262 72.2155 56.1265 71.6157 56.1265 70.8826C56.1265 70.1496 56.7262 69.5498 57.4593 69.5498H60.2449C61.4311 69.5498 62.3908 68.5902 62.3908 67.4039V51.0767C62.3908 50.3437 62.9906 49.7439 63.7236 49.7439C64.4567 49.7439 65.0564 50.3437 65.0564 51.0767V67.4173C65.0494 68.69 64.5398 69.9083 63.6386 70.807C62.7374 71.7057 61.5176 72.212 60.2449 72.2155ZM67.4156 37.5884C66.7358 37.5884 66.1627 37.0686 66.0961 36.3889C65.4963 30.2045 67.0157 24.7932 68.2552 21.5678C63.2038 24.6733 63.8436 31.3641 63.8702 31.6973C63.8887 31.8715 63.8727 32.0476 63.823 32.2156C63.7734 32.3835 63.6911 32.5401 63.581 32.6762C63.4708 32.8124 63.3349 32.9255 63.181 33.0091C63.0271 33.0927 62.8582 33.1452 62.684 33.1634C61.9643 33.2434 61.2979 32.7103 61.2179 31.9905C60.7781 27.9654 62.1509 19.8351 70.5077 17.8092C71.0275 17.6759 71.5607 17.8758 71.8806 18.3023C72.2004 18.7288 72.2404 19.302 71.9872 19.7551C71.9472 19.8351 67.8821 27.2323 68.7484 36.1357C68.7818 36.4873 68.6742 36.8379 68.4493 37.1103C68.2244 37.3827 67.9005 37.5547 67.5489 37.5884H67.4156Z" fill="#65991D"/>
<path d="M64.6299 67.5106H63.7236C62.9905 67.5106 62.3908 66.9108 62.3908 66.1777C62.3908 65.4447 62.9905 64.8449 63.7236 64.8449H64.6299C65.7362 64.8449 66.6292 63.9519 66.6292 62.8457V42.1201C66.6292 41.387 67.229 40.7873 67.962 40.7873C68.6951 40.7873 69.2948 41.387 69.2948 42.1201V62.8457C69.2815 65.418 67.189 67.5106 64.6299 67.5106ZM51.6615 15.2235C51.075 15.2235 50.5419 14.837 50.3819 14.2505C49.3157 10.3853 49.1291 2.4283 56.0731 0.0691805C56.553 -0.0907596 57.0994 0.0291955 57.4593 0.402389C57.8191 0.775583 57.9258 1.32204 57.7525 1.80186C57.7392 1.85518 55.8599 6.98659 57.5526 11.4516C57.8191 12.1447 57.4726 12.9044 56.7795 13.1709C56.6159 13.2335 56.4416 13.2631 56.2665 13.258C56.0914 13.253 55.919 13.2134 55.7593 13.1416C55.5995 13.0698 55.4555 12.9671 55.3356 12.8395C55.2156 12.7118 55.122 12.5618 55.0602 12.3979C53.9406 9.439 54.0606 6.36016 54.4338 4.121C51.2883 7.3198 52.8743 13.2376 52.9543 13.5308C53.1542 14.2372 52.7277 14.9703 52.0213 15.1702C51.9014 15.2102 51.7814 15.2235 51.6615 15.2235ZM67.4156 21.8477C66.7225 21.8477 66.136 21.3012 66.0827 20.5948C65.8695 17.1561 66.4026 14.5704 67.0957 12.7311C65.0165 14.3971 64.43 17.0228 64.43 17.0628C64.2701 17.7825 63.5637 18.249 62.8439 18.0891C62.1242 17.9425 61.671 17.2228 61.8176 16.503C61.8843 16.2231 63.3904 9.47899 70.0013 8.77259C70.5744 8.70594 71.1075 9.02582 71.3474 9.54563C71.5873 10.0654 71.4674 10.6785 71.0542 11.0784C70.9476 11.185 68.3352 13.8507 68.7351 20.4349C68.7462 20.6101 68.7226 20.7857 68.6656 20.9517C68.6086 21.1177 68.5193 21.2708 68.4028 21.4022C68.2863 21.5335 68.145 21.6405 67.987 21.7169C67.829 21.7934 67.6574 21.8378 67.4822 21.8477H67.4156ZM6.66498 62.9656H1.72016C0.987104 62.9656 0.387329 62.3658 0.387329 61.6328V37.0953C0.387329 36.3623 0.987104 35.7625 1.72016 35.7625H6.66498C7.39804 35.7625 7.99781 36.3623 7.99781 37.0953C7.99781 37.8284 7.39804 38.4281 6.66498 38.4281H3.053V60.2999H6.66498C7.39804 60.2999 7.99781 60.8997 7.99781 61.6328C7.99781 62.3658 7.39804 62.9656 6.66498 62.9656Z" fill="#65991D"/>
</svg>
