<svg width="79" height="78" viewBox="0 0 79 78" fill="none" xmlns="http://www.w3.org/2000/svg">
<path d="M35.4128 69.9257C35.067 66.3024 32.0394 63.5171 28.3596 63.5171C28.2275 63.5171 28.0926 63.5215 27.9526 63.5303C26.3879 61.433 24.0029 60.1232 21.409 59.9173C21.7628 57.0589 24.2929 53.8584 25.0395 52.9677C25.2028 52.9746 25.4151 52.9805 25.674 52.9805C27.5959 52.9805 31.929 52.6579 35.3623 50.0334C39.8171 46.6281 40.9297 40.7449 40.9749 40.4961C40.9917 40.4035 40.989 40.3083 40.967 40.2168C40.9449 40.1253 40.904 40.0393 40.8468 39.9645C40.7896 39.8897 40.7174 39.8277 40.6349 39.7824C40.5524 39.7371 40.4613 39.7095 40.3675 39.7014C40.1155 39.6798 34.1465 39.2097 29.6916 42.6151C25.6234 45.7249 24.3431 50.8987 24.117 51.9631C23.7072 52.4378 22.3986 54.0192 21.3673 55.9774V50.845C22.1668 49.8994 25.3598 45.8091 25.3598 40.7966C25.3598 35.1892 21.3613 30.7325 21.1911 30.5455C21.1277 30.4759 21.0505 30.4202 20.9644 30.3822C20.8783 30.3441 20.7852 30.3245 20.691 30.3245C20.5969 30.3245 20.5037 30.3441 20.4176 30.3822C20.3315 30.4202 20.2543 30.4759 20.1909 30.5455C20.0207 30.7325 16.0223 35.1892 16.0223 40.7966C16.0223 45.8091 19.2152 49.8994 20.0147 50.845V55.9774C18.9833 54.0192 17.6747 52.4378 17.265 51.9631C17.0389 50.8987 15.7586 45.7249 11.6903 42.6151C7.23539 39.2097 1.26646 39.6798 1.01455 39.7014C0.920748 39.7095 0.829661 39.7371 0.747124 39.7824C0.664587 39.8277 0.592418 39.8897 0.535239 39.9645C0.47806 40.0393 0.43713 40.1253 0.415068 40.2168C0.393007 40.3083 0.3903 40.4034 0.407122 40.4961C0.452299 40.7449 1.56486 46.6281 6.01972 50.0334C9.45337 52.6581 13.7863 52.9805 15.7079 52.9805C15.967 52.9805 16.1794 52.9746 16.3427 52.9677C17.0896 53.8574 19.6199 57.0544 19.9731 59.9173C17.3791 60.1231 14.994 61.4329 13.4293 63.5303C13.2939 63.5216 13.1581 63.5172 13.0224 63.5171C9.34252 63.5171 6.31496 66.3024 5.96911 69.9257C3.92922 71.1152 2.43818 72.8416 1.75094 74.8202C1.49672 75.5519 1.61278 76.3654 2.06138 76.9961C2.51509 77.6339 3.22408 77.9998 4.0067 77.9998H37.3753C38.1578 77.9998 38.8669 77.634 39.3206 76.9961C39.7692 76.3654 39.8852 75.552 39.631 74.8202C38.9438 72.8415 37.4527 71.1152 35.4128 69.9257ZM30.513 43.6896C33.6419 41.2979 37.7463 41.0253 39.4535 41.0253H39.4602C39.0162 42.6681 37.6817 46.5579 34.5408 48.9588C31.9948 50.905 28.8029 51.448 26.7823 51.5828L31.7379 47.8436C32.036 47.6187 32.0953 47.1946 31.8704 46.8965C31.6455 46.5983 31.2214 46.5389 30.9232 46.7639L25.9276 50.5332C26.5797 48.6219 27.9399 45.6566 30.513 43.6896ZM17.3749 40.7966C17.3749 36.853 19.6569 33.4228 20.6917 32.0702C21.7273 33.4207 24.0071 36.8431 24.0071 40.7966C24.0071 44.0137 22.4886 46.8886 21.3672 48.5732V42.3126C21.3672 41.9391 21.0644 41.6363 20.6909 41.6363C20.3174 41.6363 20.0147 41.9391 20.0147 42.3126V48.5731C18.8932 46.8883 17.3749 44.0134 17.3749 40.7966ZM6.84109 48.9588C3.7088 46.5644 2.36935 42.6695 1.92291 41.0253H1.9284C3.63607 41.0253 7.74024 41.2981 10.8689 43.6896C13.4343 45.6507 14.7966 48.6176 15.4512 50.5308L10.4587 46.7639C10.1605 46.5389 9.73638 46.5982 9.51149 46.8964C9.28654 47.1946 9.34585 47.6187 9.644 47.8436L14.5996 51.5827C12.5787 51.4479 9.38704 50.9048 6.84109 48.9587V48.9588ZM38.2183 76.2121C38.0217 76.4886 37.7144 76.6472 37.3753 76.6472H4.00666C3.66752 76.6472 3.36023 76.4886 3.16358 76.212C2.9653 75.9333 2.91613 75.5878 3.02864 75.264C3.64097 73.5011 5.02993 71.9626 6.93968 70.9319C7.04277 70.8763 7.12965 70.7948 7.19179 70.6955C7.25393 70.5962 7.28921 70.4824 7.29417 70.3654C7.42484 67.2837 9.94096 64.8697 13.0224 64.8697C13.2246 64.8697 13.4393 64.8829 13.6787 64.9102C13.8012 64.9241 13.9252 64.9042 14.0373 64.8528C14.1493 64.8014 14.2452 64.7203 14.3145 64.6183C15.753 62.5016 18.1368 61.2379 20.691 61.2379C23.2452 61.2379 25.6289 62.5016 27.0674 64.6183C27.1367 64.7204 27.2326 64.8015 27.3447 64.8529C27.4567 64.9044 27.5808 64.9242 27.7033 64.9102C27.9426 64.8829 28.1573 64.8697 28.3596 64.8697C31.441 64.8697 33.9571 67.2837 34.0878 70.3654C34.0927 70.4824 34.128 70.5962 34.1902 70.6955C34.2523 70.7948 34.3392 70.8763 34.4423 70.9319C36.352 71.9626 37.741 73.5011 38.3533 75.264C38.4658 75.5878 38.4166 75.9333 38.2183 76.2121Z" fill="#65991D"/>
<path d="M23.6859 64.1066C23.3124 64.1066 23.0096 64.4093 23.0096 64.7828C23.0096 66.0614 21.9695 67.1015 20.691 67.1015C19.4125 67.1015 18.3723 66.0614 18.3723 64.7828C18.3723 64.4093 18.0695 64.1066 17.696 64.1066C17.3225 64.1066 17.0198 64.4093 17.0198 64.7828C17.0198 66.8072 18.6667 68.4541 20.691 68.4541C22.7153 68.4541 24.3622 66.8072 24.3622 64.7828C24.3622 64.4093 24.0594 64.1066 23.6859 64.1066ZM20.691 71.0384C18.9026 71.0384 17.4476 72.4933 17.4476 74.2817C17.4476 74.6552 17.7504 74.958 18.1239 74.958C18.4974 74.958 18.8002 74.6552 18.8002 74.2817C18.8002 73.2391 19.6484 72.3909 20.691 72.3909C21.7336 72.3909 22.5819 73.2391 22.5819 74.2817C22.5819 74.6552 22.8847 74.958 23.2582 74.958C23.6317 74.958 23.9344 74.6552 23.9344 74.2817C23.9344 72.4933 22.4794 71.0384 20.691 71.0384ZM31.1076 72.8663C30.3941 73.5798 29.233 73.5798 28.5196 72.8663C28.1739 72.5206 27.9836 72.0611 27.9836 71.5722C27.9836 71.0834 28.1739 70.6239 28.5196 70.2782C28.7837 70.0141 28.7837 69.5859 28.5196 69.3218C28.2555 69.0577 27.8273 69.0577 27.5632 69.3218C26.962 69.9229 26.631 70.7221 26.631 71.5722C26.631 72.4224 26.962 73.2216 27.5632 73.8227C28.1643 74.4238 28.9635 74.7548 29.8136 74.7548C30.6637 74.7548 31.4629 74.4238 32.064 73.8227C32.3281 73.5586 32.3281 73.1304 32.064 72.8663C31.7999 72.6022 31.3717 72.6022 31.1076 72.8663ZM12.8624 69.3219C12.5983 69.586 12.5983 70.0141 12.8624 70.2783C13.2081 70.6239 13.3984 71.0835 13.3984 71.5723C13.3984 72.0611 13.2081 72.5206 12.8624 72.8663C12.1489 73.5798 10.9879 73.5798 10.2744 72.8663C10.0103 72.6022 9.58215 72.6022 9.31804 72.8663C9.0539 73.1304 9.0539 73.5586 9.31804 73.8227C9.91914 74.4238 10.7184 74.7549 11.5685 74.7549C12.4186 74.7549 13.2178 74.4238 13.8189 73.8227C14.42 73.2216 14.751 72.4224 14.751 71.5723C14.751 70.7222 14.42 69.923 13.8189 69.3219C13.5548 69.0577 13.1266 69.0577 12.8624 69.3219ZM41.2827 72.8149C41.2827 73.1884 41.5855 73.4912 41.959 73.4912H69.1449C71.7553 73.4912 73.879 71.3675 73.879 68.7571V34.7939C73.879 33.178 72.5643 31.8633 70.9483 31.8633H26.4617C26.0882 31.8633 25.7854 32.1661 25.7854 32.5396C25.7854 32.9131 26.0882 33.2159 26.4617 33.2159H70.9483C71.8185 33.2159 72.5263 33.9238 72.5263 34.7939V68.7571C72.5263 70.6216 71.0094 72.1386 69.1448 72.1386H41.959C41.5855 72.1386 41.2827 72.4414 41.2827 72.8149ZM27.9783 6.7562H45.0361C45.4096 6.7562 45.7124 6.4534 45.7124 6.07988V2.47974C45.7124 1.1124 44.6 0 43.2326 0H29.7818C28.4144 0 27.302 1.1124 27.302 2.47974V6.07985C27.302 6.4534 27.6048 6.7562 27.9783 6.7562ZM28.6545 2.47974C28.6545 1.85821 29.1602 1.35255 29.7817 1.35255H31.2433V3.18898C31.2433 3.56251 31.5461 3.8653 31.9196 3.8653C32.2931 3.8653 32.5959 3.56251 32.5959 3.18898V1.35255H35.8309V3.18898C35.8309 3.56251 36.1337 3.8653 36.5072 3.8653C36.8807 3.8653 37.1835 3.56251 37.1835 3.18898V1.35255H40.4185V3.18898C40.4185 3.56251 40.7213 3.8653 41.0948 3.8653C41.4683 3.8653 41.7711 3.56251 41.7711 3.18898V1.35255H43.2326C43.8542 1.35255 44.3598 1.85821 44.3598 2.47974V5.40359H28.6546L28.6545 2.47974Z" fill="#65991D"/>
<path d="M77.404 16.7356L61.9427 1.18213C61.3125 0.548144 60.4384 0.18457 59.5445 0.18457H55.5123C54.6091 0.18457 53.7599 0.536319 53.1212 1.17498L50.5366 3.75956C49.8979 4.39822 49.5462 5.24739 49.5462 6.15066V8.6354C49.2812 8.58516 49.012 8.55984 48.7422 8.55977H28.4805C27.3071 8.55977 26.172 9.04904 25.3664 9.90224L21.5692 13.9233C20.8153 14.7216 20.4001 15.766 20.4001 16.8641V28.0312C20.4001 28.4047 20.7029 28.7075 21.0764 28.7075H77.0348V69.6591C77.0348 73.5125 73.8997 76.6475 70.0463 76.6475H41.9587C41.5852 76.6475 41.2824 76.9503 41.2824 77.3238C41.2824 77.6973 41.5852 78.0001 41.9587 78.0001H70.0463C74.6456 78.0001 78.3873 74.2584 78.3873 69.6591V19.1196C78.3873 18.2201 78.0381 17.3735 77.404 16.7356ZM50.8988 6.15069C50.8988 5.60872 51.1098 5.09922 51.493 4.71602L54.0777 2.13142C54.4609 1.74825 54.9704 1.53715 55.5123 1.53715H59.5445C60.0808 1.53715 60.6053 1.75533 60.9834 2.13572L76.4448 17.6892C76.8253 18.0719 77.0348 18.5799 77.0348 19.1196V20.8857H73.8788V20.6074C73.8788 19.9478 73.6227 19.3269 73.1577 18.8591L59.8029 5.42473C59.3408 4.95982 58.6998 4.69322 58.0443 4.69322H57.0064C56.344 4.69322 55.7213 4.95118 55.253 5.41952L54.7811 5.89133C54.3127 6.35973 54.0548 6.98242 54.0548 7.6448V12.0683L51.7511 9.79457C51.4954 9.54206 51.2091 9.32256 50.8988 9.14118L50.8988 6.15069ZM58.5203 16.4758L55.4073 13.4033V7.64477C55.4073 7.34372 55.5246 7.06067 55.7375 6.84779L56.2094 6.37593C56.4222 6.16302 56.7053 6.0458 57.0063 6.0458H58.0442C58.3422 6.0458 58.6335 6.16698 58.8435 6.3783L72.1984 19.8127C72.4098 20.0254 72.5262 20.3076 72.5262 20.6074V20.8856H60.9703C60.1001 20.8856 59.3922 20.1777 59.3922 19.3076V18.5616C59.3923 17.7829 59.0745 17.0227 58.5203 16.4758ZM21.7527 27.3548V16.8641C21.7527 16.1128 22.0368 15.3982 22.5526 14.8519L26.3499 10.8309C26.9011 10.2472 27.6777 9.91235 28.4806 9.91235H48.7423C49.5179 9.91235 50.249 10.2124 50.801 10.7572L57.5702 17.4384C57.8686 17.7329 58.0397 18.1422 58.0397 18.5616V19.3076C58.0397 20.9236 59.3544 22.2382 60.9704 22.2382H77.0348V27.3548H21.7527V27.3548Z" fill="#65991D"/>
<path d="M52.7422 17.166H25.6526C25.2791 17.166 24.9763 17.4688 24.9763 17.8423C24.9763 18.2159 25.2791 18.5187 25.6526 18.5187H52.7422C53.1157 18.5187 53.4185 18.2159 53.4185 17.8423C53.4184 17.4688 53.1157 17.166 52.7422 17.166ZM45.0369 65.5948V54.6605H47.0024C47.4666 54.6605 47.8814 54.3834 48.059 53.9545C48.2366 53.5257 48.1393 53.0365 47.8111 52.7082L42.4358 47.3329C42.1717 47.0688 41.7435 47.0688 41.4794 47.3329L36.104 52.7082C35.7758 53.0365 35.6785 53.5257 35.8561 53.9545C36.0338 54.3834 36.4485 54.6605 36.9128 54.6605H38.8782V65.5948C38.8782 66.2254 39.3913 66.7384 40.0219 66.7384H43.8933C44.5239 66.7384 45.0369 66.2254 45.0369 65.5948ZM43.6844 65.3859H40.2308V54.4516C40.2308 53.821 39.7178 53.308 39.0872 53.308H37.4172L41.9576 48.7675L46.498 53.308H44.828C44.1974 53.308 43.6844 53.821 43.6844 54.4516V65.3859Z" fill="#65991D"/>
<path d="M51.0359 66.7666H54.9073C55.5379 66.7666 56.0509 66.2536 56.0509 65.623V46.39H58.0164C58.4806 46.39 58.8954 46.1129 59.0731 45.684C59.2507 45.2551 59.1534 44.7659 58.8251 44.4376L53.4498 39.0624C53.1857 38.7982 52.7575 38.7982 52.4934 39.0624L47.1181 44.4376C46.7899 44.7659 46.6926 45.2551 46.8702 45.684C47.0478 46.1129 47.4626 46.39 47.9268 46.39H49.8922V65.623C49.8922 66.2536 50.4053 66.7666 51.0359 66.7666ZM48.4312 45.0374L52.9716 40.497L57.512 45.0374H55.842C55.2114 45.0374 54.6984 45.5505 54.6984 46.1811V65.414H51.2448V46.1811C51.2448 45.5505 50.7317 45.0374 50.1011 45.0374H48.4312Z" fill="#65991D"/>
<path d="M62.05 66.7382H65.9214C66.5521 66.7382 67.0651 66.2252 67.0651 65.5945V54.6603H69.0306C69.4948 54.6603 69.9095 54.3831 70.0872 53.9543C70.2648 53.5254 70.1675 53.0362 69.8392 52.7079L64.4639 47.3326C64.1998 47.0685 63.7716 47.0685 63.5075 47.3326L58.1322 52.7079C57.804 53.0362 57.7067 53.5254 57.8843 53.9543C58.0619 54.3831 58.4767 54.6603 58.9409 54.6603H60.9064V65.5945C60.9064 66.2252 61.4194 66.7382 62.05 66.7382ZM59.4453 53.3077L63.9857 48.7673L68.5262 53.3077H66.8562C66.2255 53.3077 65.7125 53.8207 65.7125 54.4513V65.3856H62.259V54.4513C62.259 53.8207 61.7459 53.3077 61.1153 53.3077H59.4453Z" fill="#65991D"/>
</svg>
