<svg width="79" height="78" viewBox="0 0 79 78" fill="none" xmlns="http://www.w3.org/2000/svg">
<path d="M35.3491 69.9318L35.3522 69.9645L35.3806 69.981C37.4092 71.1639 38.889 72.8789 39.5706 74.8412C39.818 75.5535 39.705 76.3452 39.2684 76.959C38.8267 77.58 38.1371 77.9358 37.3753 77.9358H4.0067C3.2448 77.9358 2.55524 77.5799 2.11353 76.959C1.67695 76.3452 1.56396 75.5534 1.81139 74.8412L1.75094 74.8202L1.81139 74.8412C2.49296 72.8789 3.9728 71.1639 6.00135 69.981L6.0297 69.9645L6.03282 69.9318C6.37556 66.3412 9.37569 63.5811 13.0223 63.5811C13.1568 63.5812 13.2911 63.5856 13.4253 63.5942L13.4599 63.5964L13.4806 63.5686C15.0343 61.486 17.4025 60.1854 19.9782 59.9811L20.0448 59.9758L20.0366 59.9095C19.8584 58.4645 19.1319 56.9402 18.3602 55.6693C17.5878 54.3972 16.7663 53.3728 16.3917 52.9266L16.3715 52.9025L16.34 52.9038C16.1775 52.9106 15.966 52.9165 15.7079 52.9165C13.7904 52.9165 9.47512 52.5942 6.05858 49.9826C3.84291 48.2889 2.45665 45.9774 1.61845 44.0555C0.780436 42.1339 0.492145 40.6061 0.470092 40.4846C0.454862 40.4008 0.457313 40.3146 0.477287 40.2318C0.497261 40.1489 0.534317 40.0711 0.586085 40.0034C0.637853 39.9357 0.703193 39.8795 0.777919 39.8385C0.852645 39.7975 0.935112 39.7725 1.02004 39.7652C1.14301 39.7546 2.69293 39.6319 4.76701 39.9364C6.84154 40.241 9.43575 40.9722 11.6515 42.6659C15.7002 45.7608 16.9768 50.9143 17.2024 51.9764L17.2058 51.9925L17.2165 52.005C17.625 52.478 18.93 54.0553 19.9581 56.0072L20.0787 55.9774V50.845V50.8216L20.0636 50.8037C19.2658 49.86 16.0863 45.7849 16.0863 40.7966C16.0863 38.0077 17.0808 35.5026 18.0987 33.6695C19.1164 31.8367 20.1552 30.6799 20.2382 30.5886C20.2956 30.5255 20.3655 30.4752 20.4435 30.4407C20.5215 30.4063 20.6058 30.3885 20.691 30.3885C20.7763 30.3885 20.8606 30.4063 20.9385 30.4407C21.0165 30.4752 21.0864 30.5255 21.1438 30.5886C21.2269 30.6799 22.2656 31.8367 23.2833 33.6695C24.3012 35.5026 25.2958 38.0077 25.2958 40.7966C25.2958 45.7849 22.1162 49.86 21.3184 50.8037L21.3033 50.8216V50.845V55.9774L21.4239 56.0072C22.452 54.0553 23.757 52.4781 24.1655 52.005L24.1762 51.9925L24.1796 51.9764C24.4052 50.9143 25.6817 45.7608 29.7305 42.6659C31.9462 40.9722 34.5404 40.241 36.6149 39.9364C38.689 39.6319 40.239 39.7546 40.362 39.7652C40.4469 39.7725 40.5294 39.7975 40.6041 39.8385C40.6788 39.8795 40.7442 39.9357 40.796 40.0034C40.8477 40.0711 40.8848 40.1489 40.9047 40.2318C40.9247 40.3147 40.9272 40.4008 40.9119 40.4847C40.8899 40.6061 40.6016 42.1339 39.7635 44.0555C38.9253 45.9774 37.5391 48.2889 35.3234 49.9826C31.9072 52.5939 27.5918 52.9165 25.674 52.9165C25.4161 52.9165 25.2047 52.9106 25.0422 52.9038L25.0107 52.9025L24.9905 52.9266C24.616 53.3733 23.7946 54.3989 23.0222 55.6714C22.2506 56.9427 21.524 58.4667 21.3455 59.9094L21.3372 59.9758L21.4039 59.9811C23.9796 60.1855 26.3477 61.4861 27.9013 63.5686L27.9221 63.5964L27.9567 63.5942C28.0954 63.5854 28.229 63.5811 28.3596 63.5811C32.0063 63.5811 35.0064 66.3412 35.3491 69.9318ZM39.522 41.042L39.5438 40.9613H39.4602H39.4535C37.7432 40.9613 33.6205 41.2337 30.4741 43.6387C27.8861 45.6171 26.5206 48.5967 25.8671 50.5125L25.7998 50.7099L25.9662 50.5843L30.9617 46.815L30.9232 46.7639L30.9617 46.815C31.2317 46.6113 31.6157 46.6651 31.8193 46.935L31.8704 46.8965L31.8193 46.935C32.023 47.2049 31.9693 47.5889 31.6993 47.7926L26.7437 51.5317L26.5725 51.6609L26.7865 51.6466C28.8119 51.5115 32.0188 50.9672 34.5797 49.0096C37.7381 46.5953 39.0772 42.6879 39.522 41.042ZM20.7424 32.0313L20.6916 31.965L20.6408 32.0314C19.6041 33.3864 17.3109 36.831 17.3109 40.7966C17.3109 44.0322 18.8373 46.9198 19.9614 48.6085L20.0787 48.7847V48.5731V42.3126C20.0787 41.9744 20.3528 41.7003 20.6909 41.7003C21.0291 41.7003 21.3032 41.9744 21.3032 42.3126V48.5732V48.7848L21.4205 48.6086C22.5444 46.9202 24.0711 44.0324 24.0711 40.7966C24.0711 36.821 21.78 33.3843 20.7424 32.0313ZM6.80222 49.0096L6.90509 49.0883V49.0872C9.44836 50.9815 12.5967 51.5132 14.5953 51.6466L14.8094 51.6609L14.6381 51.5316L9.68255 47.7925C9.41262 47.5889 9.35892 47.2049 9.56258 46.935L9.56259 46.935C9.76618 46.665 10.1501 46.6113 10.4201 46.815L15.4126 50.5819L15.5793 50.7077L15.5117 50.5101C14.8557 48.5925 13.4881 45.6112 10.9077 43.6387C7.76162 41.2339 3.63923 40.9613 1.9284 40.9613H1.92291H1.83922L1.86115 41.0421C2.30841 42.6893 3.65242 46.6019 6.80222 49.0096ZM27.3447 64.8529C27.4567 64.9044 27.5808 64.9242 27.7033 64.9102L14.3145 64.6183C15.753 62.5016 18.1368 61.2379 20.691 61.2379C23.2452 61.2379 25.6289 62.5016 27.0674 64.6183C27.1367 64.7204 27.2326 64.8015 27.3447 64.8529ZM27.1204 64.5824L27.1204 64.5824C25.67 62.4481 23.2664 61.1739 20.691 61.1739C18.1155 61.1739 15.712 62.4481 14.2616 64.5824C14.1988 64.6747 14.112 64.7481 14.0106 64.7946C13.9091 64.8412 13.7969 64.8592 13.6859 64.8466C13.4446 64.8191 13.2275 64.8057 13.0224 64.8057C9.90662 64.8057 7.36235 67.2468 7.23023 70.3627C7.22574 70.4686 7.1938 70.5716 7.13754 70.6615C7.08127 70.7515 7.00262 70.8252 6.90928 70.8756C4.9879 71.9125 3.58661 73.4625 2.96818 75.243C2.84889 75.5863 2.90111 75.9535 3.11142 76.2491C3.32007 76.5425 3.64679 76.7112 4.00666 76.7112H37.3753C37.7351 76.7112 38.0618 76.5425 38.2705 76.2492C38.4808 75.9535 38.5331 75.5863 38.4138 75.243C37.7953 73.4625 36.394 71.9125 34.4727 70.8756C34.3793 70.8252 34.3007 70.7515 34.2444 70.6615C34.1882 70.5716 34.1562 70.4686 34.1517 70.3627C34.0196 67.2468 31.4753 64.8057 28.3596 64.8057C28.1545 64.8057 27.9374 64.8191 27.6961 64.8466L27.696 64.8466C27.5851 64.8593 27.4728 64.8413 27.3714 64.7948C27.2699 64.7482 27.1831 64.6748 27.1204 64.5824Z" fill="white" stroke="white" stroke-width="0.128"/>
<path d="M9.36329 73.7775L9.36329 73.7774C9.12415 73.5383 9.12415 73.1507 9.36329 72.9116C9.60241 72.6724 9.99007 72.6724 10.2292 72.9116C10.9677 73.6501 12.1692 73.6501 12.9077 72.9116L12.8624 72.8663L12.9077 72.9115C13.2653 72.5539 13.4624 72.0781 13.4624 71.5723C13.4624 71.0665 13.2653 70.5907 12.9077 70.233L12.8624 70.2783L12.9077 70.233C12.6686 69.9939 12.6686 69.6062 12.9077 69.3671C13.1468 69.128 13.5345 69.128 13.7736 69.3671C14.3628 69.9562 14.687 70.7392 14.687 71.5723C14.687 72.4054 14.3628 73.1883 13.7736 73.7774L13.8189 73.8227L13.7736 73.7775C13.1845 74.3666 12.4016 74.6909 11.5685 74.6909C10.7353 74.6909 9.95239 74.3666 9.36329 73.7775ZM31.3073 1.35255V1.28855H31.2433H29.7817C29.1248 1.28855 28.5905 1.82286 28.5905 2.47974L28.5906 5.40359V5.46759H28.6546H44.3598H44.4238V5.40359V2.47974C44.4238 1.82286 43.8895 1.28855 43.2326 1.28855H41.7711H41.7071V1.35255V3.18898C41.7071 3.52716 41.4329 3.8013 41.0948 3.8013C40.7566 3.8013 40.4825 3.52716 40.4825 3.18898V1.35255V1.28855H40.4185H37.1835H37.1195V1.35255V3.18898C37.1195 3.52716 36.8453 3.8013 36.5072 3.8013C36.169 3.8013 35.8949 3.52716 35.8949 3.18898V1.35255V1.28855H35.8309H32.5959H32.5319V1.35255V3.18898C32.5319 3.52716 32.2577 3.8013 31.9196 3.8013C31.5814 3.8013 31.3073 3.52716 31.3073 3.18898V1.35255ZM28.4743 70.233L28.5196 70.2782L28.4743 70.233C28.1167 70.5906 27.9196 71.0665 27.9196 71.5722C27.9196 72.078 28.1167 72.5538 28.4743 72.9115C29.2128 73.65 30.4143 73.65 31.1528 72.9115C31.3919 72.6724 31.7796 72.6724 32.0188 72.9115C32.2579 73.1506 32.2579 73.5383 32.0188 73.7774C31.4297 74.3665 30.6467 74.6908 29.8136 74.6908C28.9805 74.6908 28.1975 74.3665 27.6084 73.7774C27.0193 73.1883 26.695 72.4054 26.695 71.5722C26.695 70.7391 27.0193 69.9562 27.6084 69.3671C27.8475 69.128 28.2352 69.128 28.4743 69.3671C28.7135 69.6062 28.7135 69.9939 28.4743 70.233ZM23.0736 64.7828C23.0736 64.4447 23.3478 64.1706 23.6859 64.1706C24.0241 64.1706 24.2982 64.4447 24.2982 64.7828C24.2982 66.7718 22.68 68.3901 20.691 68.3901C18.702 68.3901 17.0838 66.7718 17.0838 64.7828C17.0838 64.4447 17.3579 64.1706 17.696 64.1706C18.0342 64.1706 18.3083 64.4447 18.3083 64.7828C18.3083 66.0967 19.3771 67.1655 20.691 67.1655C22.0048 67.1655 23.0736 66.0967 23.0736 64.7828ZM17.5116 74.2817C17.5116 72.5287 18.9379 71.1024 20.691 71.1024C22.4441 71.1024 23.8704 72.5287 23.8704 74.2817C23.8704 74.6199 23.5963 74.894 23.2582 74.894C22.92 74.894 22.6459 74.6199 22.6459 74.2817C22.6459 73.2038 21.769 72.3269 20.691 72.3269C19.6131 72.3269 18.7362 73.2038 18.7362 74.2817C18.7362 74.6199 18.4621 74.894 18.1239 74.894C17.7857 74.894 17.5116 74.6199 17.5116 74.2817ZM41.959 73.4272C41.6208 73.4272 41.3467 73.1531 41.3467 72.8149C41.3467 72.4767 41.6208 72.2026 41.959 72.2026H69.1448C71.0447 72.2026 72.5903 70.657 72.5903 68.7571V34.7939C72.5903 33.8884 71.8538 33.1519 70.9483 33.1519H26.4617C26.1235 33.1519 25.8494 32.8778 25.8494 32.5396C25.8494 32.2014 26.1235 31.9273 26.4617 31.9273H70.9483C72.5289 31.9273 73.815 33.2133 73.815 34.7939V68.7571C73.815 71.3322 71.7199 73.4272 69.1449 73.4272H41.959ZM45.0361 6.6922H27.9783C27.6401 6.6922 27.366 6.41806 27.366 6.07985V2.47974C27.366 1.14775 28.4498 0.064 29.7818 0.064H43.2326C44.5646 0.064 45.6484 1.14775 45.6484 2.47974V6.07988C45.6484 6.41806 45.3743 6.6922 45.0361 6.6922Z" fill="white" stroke="white" stroke-width="0.128"/>
<path d="M49.5343 8.69828L49.6102 8.71267V8.6354V6.15066C49.6102 5.26436 49.9552 4.43147 50.5819 3.80481L53.1665 1.22024C53.7931 0.593576 54.626 0.24857 55.5123 0.24857H59.5445C60.4214 0.24857 61.2791 0.605349 61.8973 1.22725L61.9422 1.1826L61.8973 1.22725L77.3586 16.7807C77.9808 17.4066 78.3233 18.237 78.3233 19.1196V69.6591C78.3233 74.223 74.6102 77.9361 70.0463 77.9361H41.9587C41.6206 77.9361 41.3464 77.662 41.3464 77.3238C41.3464 76.9857 41.6206 76.7115 41.9587 76.7115H70.0463C73.9351 76.7115 77.0988 73.5479 77.0988 69.6591V28.7075V28.6435H77.0348H21.0764C20.7382 28.6435 20.4641 28.3694 20.4641 28.0312V16.8641C20.4641 15.7824 20.873 14.7537 21.6157 13.9672L25.413 9.94618L25.3664 9.90224L25.413 9.94618C26.2065 9.10579 27.3247 8.62377 28.4805 8.62377H48.7422C49.008 8.62384 49.2732 8.64879 49.5343 8.69828ZM77.0348 20.9497H77.0988V20.8857V19.1196C77.0988 18.563 76.8826 18.0388 76.4902 17.6441L61.0288 2.09061C60.6387 1.69813 60.0979 1.47315 59.5445 1.47315H55.5123C54.9534 1.47315 54.4276 1.691 54.0325 2.08616L51.4478 4.67077C51.0526 5.06597 50.8348 5.59174 50.8348 6.15069L50.8348 9.14118V9.1779L50.8665 9.19643C51.1721 9.37511 51.4542 9.59135 51.7061 9.84011L51.7061 9.84012L54.0098 12.1139L54.1188 12.2214V12.0683V7.6448C54.1188 6.9994 54.37 6.39299 54.8264 5.93658L55.2982 5.46478C55.7546 5.00843 56.361 4.75722 57.0064 4.75722H58.0443C58.6828 4.75722 59.3074 5.01703 59.7575 5.46985L59.8029 5.42473L59.7575 5.46985L73.1123 18.9043C73.5654 19.36 73.8148 19.9647 73.8148 20.6074V20.8857V20.9497H73.8788H77.0348ZM55.3433 13.4033V13.43L55.3624 13.4488L58.4754 16.5213C59.0173 17.0562 59.3283 17.8001 59.3282 18.5616V19.3076C59.3282 20.213 60.0648 20.9496 60.9703 20.9496H72.5262H72.5902V20.8856V20.6074C72.5902 20.2906 72.4671 19.9922 72.2438 19.7676L58.8889 6.33318C58.6668 6.10978 58.3592 5.9818 58.0442 5.9818H57.0063C56.6883 5.9818 56.389 6.10576 56.1641 6.33067L55.6922 6.80254C55.4674 7.02741 55.3433 7.32674 55.3433 7.64477V13.4033ZM77.0988 22.2382V22.1742H77.0348H60.9704C59.3898 22.1742 58.1037 20.8882 58.1037 19.3076V18.5616C58.1037 18.1251 57.9257 17.6994 57.6152 17.3929L50.8459 10.7116C50.282 10.155 49.5347 9.84835 48.7423 9.84835H28.4806C27.6601 9.84835 26.8667 10.1904 26.3034 10.7869L22.5061 14.808C21.979 15.3661 21.6887 16.0964 21.6887 16.8641V27.2908V27.3548V27.3548L21.7527 27.3548V27.4188H77.0348H77.0988V27.3548V22.2382Z" fill="white" stroke="white" stroke-width="0.128"/>
<path d="M45.0369 54.5965H44.9729V54.6605V65.5948C44.9729 66.1901 44.4886 66.6744 43.8933 66.6744H40.0219C39.4266 66.6744 38.9422 66.1901 38.9422 65.5948V54.6605V54.5965H38.8782H36.9128C36.4744 54.5965 36.083 54.335 35.9152 53.93C35.7475 53.5251 35.8393 53.0634 36.1493 52.7534L41.5246 47.3781C41.7637 47.139 42.1514 47.139 42.3905 47.3781L47.7658 52.7534C48.0757 53.0634 48.1676 53.5251 47.9999 53.93C47.8322 54.335 47.4407 54.5965 47.0024 54.5965H45.0369ZM43.6844 65.4499H43.7484V65.3859V54.4516C43.7484 53.8563 44.2328 53.372 44.828 53.372H46.498H46.6525L46.5433 53.2627L42.0028 48.7223L41.9576 48.677L41.9123 48.7223L37.3719 53.2627L37.2626 53.372H37.4172H39.0872C39.6824 53.372 40.1668 53.8563 40.1668 54.4516V65.3859V65.4499H40.2308H43.6844ZM25.6526 17.23H52.7422C53.0803 17.23 53.3544 17.5042 53.3545 17.8423C53.3545 18.1805 53.0804 18.4547 52.7422 18.4547H25.6526C25.3145 18.4547 25.0403 18.1805 25.0403 17.8423C25.0403 17.5042 25.3145 17.23 25.6526 17.23Z" fill="white" stroke="white" stroke-width="0.128"/>
<path d="M56.0509 46.326H55.9869V46.39V65.623C55.9869 66.2182 55.5025 66.7026 54.9073 66.7026H51.0359C50.4406 66.7026 49.9562 66.2182 49.9562 65.623V46.39V46.326H49.8922H47.9268C47.4885 46.326 47.0971 46.0645 46.9294 45.6595L46.9294 45.6595C46.7616 45.2545 46.8534 44.7929 47.1634 44.4829L52.5387 39.1076L52.5387 39.1076C52.7778 38.8685 53.1655 38.8685 53.4046 39.1076L53.4046 39.1076L58.7799 44.4829C59.0898 44.7928 59.1817 45.2545 59.0139 45.6595C58.8462 46.0645 58.4548 46.326 58.0164 46.326H56.0509ZM48.386 44.9922L48.2767 45.1014H48.4312H50.1011C50.6964 45.1014 51.1808 45.5858 51.1808 46.1811V65.414V65.478H51.2448H54.6984H54.7624V65.414V46.1811C54.7624 45.5858 55.2467 45.1014 55.842 45.1014H57.512H57.6665L57.5572 44.9922L53.0168 40.4517L52.9716 40.4065L52.9263 40.4517L48.386 44.9922Z" fill="white" stroke="white" stroke-width="0.128"/>
<path d="M67.0651 54.5963H67.0011V54.6603V65.5945C67.0011 66.1898 66.5167 66.6742 65.9214 66.6742H62.05C61.4547 66.6742 60.9704 66.1898 60.9704 65.5945V54.6603V54.5963H60.9064H58.9409C58.5026 54.5963 58.1112 54.3347 57.9435 53.9298L57.9434 53.9298C57.7757 53.5249 57.8675 53.0632 58.1775 52.7532L63.5528 47.3779C63.7919 47.1387 64.1796 47.1387 64.4187 47.3779L69.794 52.7532C70.1039 53.0632 70.1958 53.5249 70.028 53.9298L70.0872 53.9543L70.028 53.9298C69.8603 54.3347 69.4689 54.5963 69.0306 54.5963H67.0651ZM59.4001 53.2625L59.2908 53.3717H59.4453H61.1153C61.7106 53.3717 62.195 53.8561 62.195 54.4513V65.3856V65.4496H62.259H65.7125H65.7765V65.3856V54.4513C65.7765 53.8561 66.2609 53.3717 66.8562 53.3717H68.5262H68.6807L68.5714 53.2625L64.031 48.722L63.9857 48.6768L63.9405 48.722L59.4001 53.2625Z" fill="white" stroke="white" stroke-width="0.128"/>
</svg>
