<svg width="76" height="78" viewBox="0 0 76 78" fill="none" xmlns="http://www.w3.org/2000/svg">
<path d="M36.5892 20.5513C42.8506 18.1921 48.258 16.1546 52.784 18.0942C53.0999 18.2248 53.4546 18.2256 53.7711 18.0965C54.0876 17.9674 54.3406 17.7188 54.4752 17.4046C54.6098 17.0904 54.6153 16.7358 54.4903 16.4176C54.3654 16.0994 54.1202 15.8432 53.8077 15.7045C48.4546 13.4101 42.4771 15.5568 36.1496 17.9384C38.3493 14.1305 38.9507 9.54032 38.9855 9.26082C39.0105 9.05998 38.9882 8.85608 38.9206 8.66535C38.8529 8.47462 38.7416 8.30233 38.5956 8.16219C38.4495 8.02206 38.2728 7.91795 38.0795 7.85816C37.8861 7.79837 37.6815 7.78455 37.4818 7.8178L31.3664 8.83701C31.3965 6.45051 30.4925 4.28372 28.7022 2.49327C27.6854 1.48293 26.4907 0.669161 25.1782 0.0929608C24.9978 0.0208041 24.8035 -0.00999232 24.6096 0.00283675C24.4157 0.0156658 24.2271 0.071794 24.0578 0.167093C23.8885 0.262392 23.7427 0.394438 23.6311 0.553518C23.5195 0.712599 23.445 0.894668 23.4131 1.08633C23.4022 1.15296 22.1829 7.79928 18.1956 7.79928C14.3811 7.79928 9.11976 3.38167 7.41479 1.67995C7.21374 1.47883 6.95228 1.34918 6.6705 1.31088C6.38871 1.27257 6.10213 1.32772 5.85469 1.46788C5.60724 1.60803 5.41258 1.82545 5.30053 2.08683C5.18849 2.3482 5.16523 2.63911 5.23434 2.91496L7.82706 13.2857C6.24591 12.6102 4.75828 11.7341 3.40084 10.6788C3.18119 10.5055 2.91149 10.4077 2.63181 10.3999C2.35213 10.3921 2.0774 10.4747 1.84844 10.6355C1.61947 10.7963 1.44849 11.0267 1.3609 11.2924C1.27331 11.5581 1.27378 11.845 1.36225 12.1104C1.40548 12.2404 2.45313 15.3241 5.19892 18.4131C7.74808 21.2809 12.2976 24.6995 19.4957 24.6995C25.5799 24.6995 31.4288 22.4956 36.5892 20.5513ZM18.1956 10.3993C20.8475 10.3993 23.0476 8.80224 24.5584 5.78068C24.9607 4.96558 25.2935 4.118 25.5534 3.24696C27.1069 4.29022 29.3537 6.48074 28.6209 10.1443C28.5797 10.3507 28.5891 10.5641 28.6485 10.766C28.7078 10.9679 28.8154 11.1524 28.9618 11.3036C29.1082 11.4548 29.2891 11.5682 29.489 11.6341C29.6889 11.6999 29.9018 11.7162 30.1094 11.6816L36.0945 10.6842C35.4861 13.4329 34.0695 17.6007 31.4975 19.4615C29.7011 17.725 26.732 14.4841 25.9562 11.3841C25.8981 11.1513 25.7768 10.9391 25.6055 10.771C25.4343 10.6029 25.2199 10.4855 24.986 10.4318C24.7522 10.3781 24.508 10.3901 24.2806 10.4666C24.0532 10.543 23.8513 10.6809 23.6975 10.865L23.5899 10.9936C22 12.8948 20.4957 14.6931 17.9933 15.5933C15.546 15.47 13.1221 15.0547 10.7734 14.3561L8.74779 6.24836C11.2671 8.17059 14.8988 10.3993 18.1956 10.3993ZM7.20776 16.7591C6.80179 16.3067 6.41904 15.8339 6.06099 15.3426C11.9037 18.1116 17.8739 18.1969 18.1856 18.1994C18.3282 18.2 18.4701 18.1776 18.6056 18.1331C21.1244 17.2957 22.8003 15.8218 24.2444 14.2243C25.3868 16.6265 27.252 18.8556 28.8684 20.5131C25.8144 21.4411 22.6934 22.0991 19.496 22.0991C14.5275 22.0994 10.3933 20.3026 7.20776 16.7591ZM75.1816 52.7147C75.3 52.5351 75.372 52.329 75.3911 52.1147C75.4102 51.9004 75.3758 51.6848 75.2911 51.487C73.546 47.4151 70.072 44.4122 65.2447 42.8033C64.0356 42.4029 62.7968 42.0986 61.5397 41.8933C64.8495 38.8182 71.027 32.774 73.9111 27.9669C74.0885 27.6712 74.1412 27.3172 74.0576 26.9827C73.9739 26.6482 73.7609 26.3606 73.4652 26.1833C73.1696 26.0059 72.8156 25.9532 72.4811 26.0368C72.1466 26.1204 71.859 26.3335 71.6816 26.6292C68.9301 31.2151 62.7094 37.2568 59.5531 40.1836C59.3484 38.8139 59.0268 37.4643 58.5919 36.1495C56.9832 31.3222 53.9801 27.8482 49.9082 26.1031C49.7103 26.0183 49.4945 25.984 49.2801 26.0032C49.0657 26.0223 48.8594 26.0945 48.6797 26.2131C48.5001 26.3317 48.3527 26.493 48.2508 26.6826C48.1489 26.8723 48.0957 27.0842 48.0959 27.2995V32.1918C44.7894 31.558 37.0718 30.4705 30.7846 32.5663C30.6 32.6279 30.4315 32.7301 30.2916 32.8655C30.1517 33.0009 30.0441 33.166 29.9765 33.3486C29.909 33.5311 29.8833 33.7265 29.9014 33.9204C29.9195 34.1142 29.9809 34.3015 30.081 34.4684L33.3245 39.8737L24.0067 45.6973C23.8225 45.8124 23.67 45.9718 23.5633 46.161C23.4565 46.3503 23.3989 46.5632 23.3957 46.7804C23.3924 46.9977 23.4437 47.2122 23.5448 47.4045C23.6458 47.5968 23.7935 47.7607 23.9742 47.8813L31.1447 52.6618L29.8992 70.1073C29.8859 70.2931 29.9128 70.4797 29.9779 70.6542C30.043 70.8288 30.1449 70.9873 30.2766 71.119C30.4084 71.2508 30.5669 71.3527 30.7415 71.4178C30.916 71.4829 31.1026 71.5098 31.2884 71.4965L48.7339 70.2506L53.5144 77.4212C53.6331 77.5992 53.794 77.7452 53.9826 77.8462C54.1713 77.9472 54.382 78 54.596 78H54.6152C54.8324 77.9968 55.0454 77.9392 55.2346 77.8325C55.4238 77.7258 55.5833 77.5734 55.6984 77.3892L61.522 68.0712L66.9273 71.3144C67.0942 71.4144 67.2814 71.4756 67.4751 71.4936C67.6689 71.5116 67.8642 71.4859 68.0466 71.4184C68.2291 71.3508 68.3941 71.2432 68.5294 71.1034C68.6647 70.9637 68.767 70.7953 68.8286 70.6107C70.9248 64.3235 69.8361 56.6062 69.2031 53.2994H74.0962C74.3114 53.2994 74.5232 53.246 74.7126 53.1439C74.902 53.0419 75.0632 52.8944 75.1816 52.7147ZM67.5961 50.6997C67.3986 50.6997 67.2036 50.7448 67.0261 50.8314C66.8485 50.918 66.6931 51.044 66.5715 51.1997C66.4499 51.3554 66.3654 51.5368 66.3245 51.73C66.2835 51.9233 66.2871 52.1233 66.335 52.315C66.3582 52.4084 68.4832 61.0803 66.8077 68.2109L61.7649 65.1851C61.4728 65.0098 61.1235 64.9562 60.7923 65.0359C60.461 65.1155 60.1742 65.322 59.9937 65.6109L54.5607 74.3034L50.4776 68.1787C50.3589 68.0007 50.198 67.8547 50.0093 67.7537C49.8207 67.6527 49.61 67.5999 49.396 67.5999C49.3652 67.5999 49.3342 67.601 49.3032 67.6033L32.5991 68.7964L33.7922 52.0924C33.8086 51.8633 33.764 51.6339 33.6629 51.4276C33.5618 51.2214 33.4079 51.0456 33.2168 50.9181L27.0921 46.8349L35.7847 41.402C36.0736 41.2215 36.28 40.9347 36.3597 40.6034C36.4393 40.2722 36.3857 39.9229 36.2104 39.6308L33.1848 34.5882C40.3042 32.9176 48.9874 35.0375 49.0805 35.0607C49.2722 35.1087 49.4723 35.1123 49.6656 35.0713C49.8588 35.0303 50.0402 34.9458 50.196 34.8243C50.3517 34.7027 50.4777 34.5472 50.5643 34.3696C50.6509 34.1921 50.696 33.9971 50.696 33.7995V29.4658C56.2123 33.0834 57.048 40.3843 57.1738 42.3834L55.9627 43.5945C50.499 37.7716 43.2209 37.6996 42.8959 37.6996C42.5511 37.6996 42.2204 37.8366 41.9766 38.0803C41.7328 38.3242 41.5959 38.6548 41.5959 38.9996C41.5959 39.3444 41.7328 39.675 41.9766 39.9188C42.2204 40.1626 42.5511 40.2996 42.8959 40.2996C42.9565 40.2996 48.0825 40.3484 52.5387 43.9559C42.7373 43.6398 37.2798 46.8338 37.027 46.9851C36.7316 47.1623 36.5187 47.4495 36.4348 47.7835C36.351 48.1176 36.4032 48.4713 36.58 48.767C36.7567 49.0626 37.0435 49.276 37.3775 49.3603C37.7114 49.4447 38.0652 49.393 38.3611 49.2167C38.4177 49.1833 43.6519 46.1667 52.9796 46.5777L39.3766 60.1807C39.1328 60.4245 38.9958 60.7552 38.9958 61.1C38.9958 61.4448 39.1328 61.7755 39.3766 62.0193C39.6204 62.2631 39.9511 62.4 40.2959 62.4C40.6407 62.4 40.9713 62.2631 41.2151 62.0193L54.818 48.4162C55.2285 57.7359 52.218 62.9689 52.1791 63.0346C52.0022 63.3305 51.9501 63.6846 52.0342 64.019C52.1183 64.3534 52.3319 64.6406 52.6278 64.8175C52.9237 64.9945 53.2778 65.0466 53.6122 64.9625C53.9466 64.8783 54.2338 64.6648 54.4108 64.3689C54.562 64.1167 57.7552 58.6607 57.4403 48.8625C61.0187 53.3015 61.0961 58.4348 61.0961 58.5029C61.0965 58.8477 61.2338 59.1782 61.4779 59.4217C61.722 59.6652 62.0528 59.8018 62.3976 59.8014C62.7424 59.8009 63.0729 59.6636 63.3164 59.4195C63.5599 59.1754 63.6965 58.8446 63.6961 58.4998C63.6961 58.1748 63.6241 50.8967 57.8012 45.433L59.0122 44.2219C61.0142 44.348 68.3129 45.1846 71.9299 50.6997H67.5961ZM61.0961 14.2993C61.2614 14.2992 61.4251 14.2676 61.5785 14.2061C61.8691 14.0897 68.7124 11.2927 70.157 5.51418C70.1998 5.3481 70.2093 5.17519 70.185 5.00542C70.1606 4.83566 70.1029 4.67238 70.0152 4.52501C69.9275 4.37763 69.8115 4.24907 69.6739 4.14673C69.5362 4.04438 69.3797 3.97028 69.2133 3.92869C69.047 3.8871 68.874 3.87884 68.7044 3.90439C68.5348 3.92994 68.372 3.9888 68.2252 4.07757C68.0785 4.16634 67.9507 4.28326 67.8494 4.42161C67.748 4.55996 67.6751 4.717 67.6347 4.88367C66.5147 9.36336 60.6706 11.7687 60.6112 11.7928C60.3308 11.9052 60.0983 12.1118 59.9537 12.3771C59.8091 12.6423 59.7614 12.9496 59.8188 13.2462C59.8762 13.5428 60.035 13.8102 60.2681 14.0024C60.5012 14.1946 60.794 14.2996 61.0961 14.2993ZM74.4989 5.26328C74.1711 5.1565 73.8143 5.18431 73.507 5.34058C73.1997 5.49686 72.967 5.76879 72.8602 6.09659C70.1591 14.3889 62.1389 16.9192 62.0231 16.954C61.8585 17.0019 61.705 17.082 61.5715 17.1895C61.4379 17.297 61.327 17.4299 61.245 17.5804C61.163 17.731 61.1116 17.8963 61.0937 18.0668C61.0759 18.2374 61.0919 18.4097 61.141 18.574C61.19 18.7383 61.2711 18.8913 61.3795 19.0241C61.4879 19.1569 61.6215 19.267 61.7727 19.348C61.9238 19.429 62.0894 19.4793 62.2601 19.496C62.4307 19.5127 62.603 19.4954 62.7669 19.4453C63.1504 19.3315 72.193 16.5399 75.3322 6.90194C75.439 6.57414 75.4112 6.21735 75.2549 5.91004C75.0986 5.60274 74.8267 5.37009 74.4989 5.26328ZM15.5027 45.9825C15.5661 45.8239 15.5977 45.6545 15.5956 45.4837C15.5935 45.313 15.5578 45.1444 15.4906 44.9874C15.4233 44.8305 15.3258 44.6883 15.2036 44.5691C15.0814 44.4498 14.9369 44.3558 14.7784 44.2924C13.6717 43.8121 12.6217 43.2104 11.6478 42.4983C10.1911 41.4389 8.33358 39.6917 7.75669 37.3843C7.7163 37.2177 7.64332 37.0606 7.54196 36.9223C7.4406 36.7839 7.31287 36.667 7.16613 36.5782C7.01939 36.4895 6.85653 36.4306 6.68694 36.4051C6.51735 36.3795 6.34438 36.3878 6.178 36.4293C6.01162 36.4709 5.85511 36.545 5.71749 36.6474C5.57987 36.7497 5.46386 36.8783 5.37614 37.0257C5.28843 37.173 5.23074 37.3363 5.2064 37.5061C5.18207 37.6759 5.19156 37.8488 5.23434 38.0148C6.67898 43.7934 13.5219 46.5904 13.8128 46.7067C13.9713 46.7703 14.1408 46.802 14.3116 46.8C14.4823 46.798 14.651 46.7623 14.808 46.695C14.965 46.6278 15.1071 46.5302 15.2264 46.4079C15.3456 46.2857 15.4394 46.1411 15.5027 45.9825ZM2.53145 38.5969C2.42175 38.2728 2.18865 38.0049 1.88272 37.8515C1.5768 37.6982 1.22273 37.6716 0.89734 37.7776C0.57195 37.8836 0.301485 38.1136 0.144628 38.4178C-0.012229 38.722 -0.0428254 39.0757 0.0594773 39.4023C3.19868 49.0403 12.2413 51.8315 12.6248 51.9456C12.9546 52.0425 13.3093 52.0048 13.6114 51.8408C13.9135 51.6768 14.1383 51.3999 14.2368 51.0705C14.3352 50.7412 14.2992 50.3863 14.1366 50.0834C13.974 49.7806 13.6981 49.5544 13.3692 49.4545C13.2881 49.4301 5.23841 46.9076 2.53145 38.5969Z" fill="#65991D"/>
</svg>
