<svg width="109" height="78" viewBox="0 0 109 78" fill="none" xmlns="http://www.w3.org/2000/svg">
<path d="M105.594 78V61.4894C104.138 63.1469 102.929 65.0672 102.017 67.1736C101.86 67.5408 101.607 67.8423 101.292 68.0356C100.978 68.2288 100.618 68.304 100.264 68.2506C99.9104 68.1971 99.5802 68.0177 99.3202 67.7377C99.0602 67.4577 98.8836 67.0912 98.8153 66.69C98.2997 63.628 96.7922 60.9024 94.595 59.0597C95.1097 61.4281 95.3716 63.8593 95.375 66.3C95.3748 66.6088 95.3106 66.9132 95.1875 67.188C95.0645 67.4628 94.8862 67.7002 94.6674 67.8807C94.4485 68.0612 94.1954 68.1796 93.9287 68.2262C93.6621 68.2728 93.3896 68.2462 93.1337 68.1486C91.2607 67.5248 89.5878 66.2878 88.3207 64.5899C86.0393 66.9138 83.1004 68.2139 80.0469 68.25C79.6896 68.2497 79.3414 68.1207 79.0517 67.8814C78.7619 67.642 78.5452 67.3043 78.4323 66.9162C77.7452 63.9782 77.9426 60.8609 78.9927 58.0671C75.8953 61.2072 73.308 64.9505 71.3508 69.1236C71.1789 69.5162 70.8964 69.8308 70.5489 70.0167C70.2014 70.2025 69.8093 70.2486 69.4361 70.1475C69.0629 70.0464 68.7304 69.8041 68.4925 69.4597C68.2545 69.1153 68.1251 68.6891 68.125 68.25C68.1721 66.3723 68.389 64.5053 68.7722 62.6789C67.7049 63.8763 66.8734 65.321 66.3333 66.9162C66.2117 67.3323 65.9711 67.6893 65.6504 67.9294C65.3297 68.1696 64.9476 68.2789 64.5659 68.2396C64.1842 68.2004 63.8253 68.0149 63.5471 67.7132C63.2688 67.4115 63.0876 67.0111 63.0327 66.5769C62.6159 62.687 61.3398 58.983 59.325 55.8149C60.2036 60.9664 59.6447 66.3039 57.7275 71.0716C57.5246 71.5334 57.1699 71.8841 56.7413 72.0466C56.5298 72.1303 56.3057 72.1642 56.0824 72.1465C55.8591 72.1287 55.6413 72.0596 55.4419 71.9433C54.3949 71.4317 53.4636 70.6538 52.7184 69.6685C51.9733 68.6833 51.434 67.5166 51.1415 66.2571C50.907 65.0481 50.8995 63.7959 51.1193 62.5833C49.4663 64.2056 48.2565 66.3388 47.6347 68.7277C47.5236 69.2189 47.2496 69.6411 46.871 69.9047C46.4924 70.1684 46.039 70.2527 45.6069 70.1397C45.1749 70.0268 44.7984 69.7255 44.5572 69.2999C44.3161 68.8742 44.2293 68.3577 44.3153 67.86C44.8937 64.7505 44.914 61.5388 44.375 58.4201C43.7242 59.6492 42.954 60.79 42.0791 61.8209C41.8738 62.0555 41.6196 62.2262 41.3405 62.3168C41.0613 62.4074 40.7667 62.4149 40.4843 62.3385C40.202 62.2622 39.9414 62.1045 39.7272 61.8805C39.513 61.6564 39.3524 61.3735 39.2605 61.0584C38.9327 59.9418 38.4306 58.9025 37.7787 57.991C38.2041 60.0182 38.1979 62.1327 37.7608 64.1565C37.3236 66.1804 36.4682 68.0544 35.2666 69.6208C34.9412 69.9732 34.5104 70.1695 34.0625 70.1695C33.6147 70.1695 33.1838 69.9732 32.8584 69.6208C31.9024 68.4777 31.1747 67.1103 30.726 65.6133C30.2772 64.1163 30.118 62.5256 30.2595 60.9512C28.8263 61.8028 27.7213 63.2348 27.1598 64.9682C27.0668 65.2821 26.9054 65.5637 26.6909 65.7863C26.4764 66.009 26.2159 66.1654 25.934 66.2407C25.652 66.3161 25.3579 66.3079 25.0795 66.2169C24.8011 66.126 24.5476 65.9552 24.3428 65.7208C23.4901 64.7209 22.8189 63.5374 22.3679 62.2388C21.9168 60.9402 21.6949 59.5522 21.7149 58.1549C18.794 61.5069 18.7344 68.1701 18.7344 68.25C18.7401 68.7672 18.566 69.2657 18.2506 69.636C17.9352 70.0063 17.5043 70.2179 17.0526 70.2244C16.6009 70.2308 16.1654 70.0316 15.842 69.6705C15.5187 69.3093 15.3338 68.8159 15.3282 68.2988V68.25C15.5285 64.1488 14.6204 60.0764 12.7275 56.5871C13.3794 60.1451 13.038 63.8478 11.7516 67.1716C11.5487 67.6334 11.1941 67.9841 10.7655 68.1466C10.5538 68.2297 10.3298 68.2634 10.1066 68.2456C9.88341 68.2279 9.66558 68.1591 9.466 68.0433C8.42822 67.3668 7.53271 66.4378 6.84265 65.3219C6.15258 64.206 5.68475 62.9304 5.47217 61.5849C4.83203 62.1336 4.31214 62.8452 3.95359 63.6635C3.59504 64.4819 3.40767 65.3845 3.40628 66.3V78H3.05176e-05V66.3C3.05176e-05 59.126 6.01717 56.745 6.27434 56.6514C6.52976 56.5522 6.80222 56.5244 7.06892 56.5706C7.33561 56.6167 7.58876 56.7354 7.80716 56.9166C8.02648 57.0973 8.20512 57.3351 8.32831 57.6104C8.45151 57.8857 8.51572 58.1907 8.51566 58.5C8.56385 59.9594 8.87401 61.3919 9.42683 62.7081C9.74396 60.8204 9.70517 58.8769 9.31305 57.0077C8.92092 55.1385 8.18452 53.3869 7.15316 51.87C6.94574 51.5536 6.82731 51.1724 6.81357 50.7771C6.79983 50.3817 6.89144 49.991 7.07624 49.6567C7.26104 49.3224 7.53028 49.0603 7.84821 48.9054C8.16614 48.7504 8.51773 48.7098 8.85628 48.789C9.16455 48.8592 14.7423 50.2515 17.3804 58.4318C17.9682 57.0326 18.8143 55.7962 19.8602 54.8081C20.9062 53.8199 22.127 53.1036 23.4384 52.7085C23.7343 52.6244 24.0445 52.6327 24.3366 52.7326C24.6287 52.8325 24.892 53.0204 25.0991 53.2766C25.3061 53.5328 25.4493 53.8479 25.5137 54.1891C25.5781 54.5303 25.5613 54.885 25.4652 55.2162C25.0301 56.9597 25.0301 58.8079 25.4652 60.5514C26.2516 59.3024 27.288 58.2874 28.4875 57.5912C29.687 56.8951 31.0147 56.538 32.3594 56.55C32.6291 56.5502 32.8949 56.6238 33.135 56.7647C33.375 56.9055 33.5824 57.1097 33.74 57.3602C33.8977 57.6108 34.0011 57.9007 34.0418 58.2059C34.0824 58.5112 34.0592 58.8232 33.974 59.1162C33.5224 60.9235 33.5431 62.8427 34.0336 64.6367C34.8068 62.4409 35.2411 58.6911 32.603 53.6543C32.4242 53.3127 32.3411 52.9167 32.3647 52.5195C32.3883 52.1223 32.5176 51.7428 32.7351 51.4322C32.9527 51.1216 33.248 50.8946 33.5815 50.7818C33.915 50.6691 34.2707 50.6759 34.6007 50.8014C37.3061 51.9611 39.6248 54.0647 41.2293 56.8152C42.0021 55.5935 42.4686 54.1532 42.5782 52.65C42.5781 52.2315 42.6956 51.824 42.9134 51.4878C43.1312 51.1517 43.4376 50.9047 43.7875 50.7833C44.1373 50.662 44.512 50.6727 44.8561 50.814C45.2002 50.9552 45.4955 51.2195 45.6983 51.5678C47.083 54.2913 47.8958 57.3461 48.0724 60.491C49.7282 58.589 51.8094 57.2458 54.0879 56.6085C54.4291 56.5112 54.7882 56.5372 55.116 56.6829C55.4438 56.8286 55.7242 57.0869 55.9186 57.4223C56.1131 57.7578 56.2121 58.1539 56.202 58.5564C56.192 58.9588 56.0734 59.3478 55.8625 59.67C54.7848 61.3022 54.2843 63.3396 54.4609 65.3757C54.6137 66.0831 54.9399 66.7258 55.401 67.2282C56.3209 64.3675 56.5987 61.2881 56.2089 58.2725C55.8191 55.2569 54.7741 52.4017 53.1699 49.9688C52.9344 49.6326 52.8027 49.2166 52.7955 48.7858C52.7884 48.3549 52.906 47.9334 53.1302 47.5872C53.3543 47.2411 53.6723 46.9896 54.0345 46.8722C54.3966 46.7549 54.7825 46.7781 55.1319 46.9384C57.6252 48.3291 59.8325 50.3095 61.6081 52.7488C63.3836 55.1882 64.6871 58.031 65.4324 61.0896C66.8817 59.0374 68.81 57.4984 70.9931 56.6514C71.293 56.537 71.6148 56.5205 71.9224 56.6036C72.2301 56.6868 72.5115 56.8663 72.7351 57.1221C72.9587 57.3779 73.1157 57.6999 73.1885 58.0521C73.2614 58.4043 73.2472 58.7727 73.1475 59.1162C73.1475 59.1162 73.1254 59.1942 73.0879 59.3268C75.6963 55.6509 79.0332 52.7409 82.8213 50.8385C83.1664 50.6804 83.5471 50.656 83.9054 50.7688C84.2637 50.8816 84.58 51.1255 84.806 51.4633C85.0319 51.8011 85.1552 52.2143 85.1569 52.6398C85.1587 53.0653 85.0388 53.4798 84.8157 53.82C83.6967 55.5379 81.1982 60.3486 81.4094 64.194C83.1551 63.8683 86.0538 62.8739 86.9395 59.8358C87.0631 59.3902 87.3223 59.0104 87.67 58.7654C88.0178 58.5204 88.4308 58.4265 88.8339 58.501C89.2369 58.5754 89.6032 58.8131 89.866 59.1709C90.1288 59.5286 90.2707 59.9826 90.2657 60.45C90.3532 60.9747 90.5321 61.4738 90.7916 61.9177C91.0512 62.3616 91.386 62.7411 91.7763 63.0338C91.451 60.0873 90.7068 57.0317 89.5044 56.3453C89.1337 56.1345 88.8427 55.7764 88.6858 55.338C88.5289 54.8995 88.5168 54.4106 88.6518 53.9626C88.7868 53.5147 89.0596 53.1383 89.4193 52.9039C89.779 52.6696 90.201 52.5931 90.6063 52.689C92.7889 53.265 94.8389 54.3685 96.6186 55.9256C98.3983 57.4827 99.8668 59.4575 100.926 61.7175C102.458 59.2527 104.732 56.55 107.297 56.55C107.749 56.55 108.182 56.7554 108.501 57.1211C108.821 57.4868 109 57.9828 109 58.5V78H105.594ZM53.2074 19.5C52.7392 19.503 52.2754 19.3966 51.8444 19.1874C51.4133 18.9781 51.024 18.6705 50.7004 18.2832C50.0244 17.5142 49.5521 16.5422 49.3379 15.4791C48.4255 15.1943 47.6001 14.6253 46.9535 13.8353C46.6011 13.3676 46.3357 12.8226 46.1734 12.2336C46.0112 11.6446 45.9556 11.0238 46.0099 10.4093C46.0643 9.79485 46.2275 9.1995 46.4896 8.65967C46.7517 8.11983 47.1071 7.64684 47.5342 7.26961C47.8912 6.86942 48.3202 6.56329 48.7912 6.37261C48.771 5.52684 48.9113 4.68613 49.2024 3.90846C49.4935 3.13079 49.9284 2.43467 50.4772 1.86811C51.3493 0.764896 52.5627 0.094686 53.8597 7.3616e-06C54.5713 -0.00176144 55.2553 0.31528 55.7655 0.883357C56.3664 1.75662 56.7805 2.77873 56.9748 3.86797C57.1691 4.95722 57.1381 6.0834 56.8844 7.15651C57.8295 6.90411 58.813 6.90919 59.7561 7.17133C60.6991 7.43347 61.5752 7.94535 62.314 8.66581C62.4008 8.76721 64.3969 11.2203 61.2682 14.6777C60.7547 15.2853 60.1321 15.7583 59.4435 16.0639C58.7549 16.3696 58.0166 16.5007 57.2795 16.4483C57.096 16.9796 56.8142 17.4592 56.4535 17.8542C55.7534 18.6515 54.8657 19.1983 53.8988 19.4279C53.6707 19.4754 53.4393 19.4995 53.2074 19.5ZM52.6964 14.5002C52.7022 14.7069 52.7464 14.9097 52.826 15.0953C52.9055 15.2809 53.0187 15.445 53.158 15.5766C53.3373 15.5689 53.5131 15.5178 53.674 15.4267C53.8349 15.3356 53.9771 15.2066 54.0913 15.0482C54.1134 15.0053 54.1117 14.8668 54.0215 14.6367C53.8813 14.2667 53.8447 13.8561 53.9169 13.4614C53.989 13.0666 54.1663 12.7072 54.4242 12.4326C54.6822 12.158 55.0082 11.9817 55.3572 11.928C55.7063 11.8744 56.0614 11.9459 56.3735 12.1329C56.7442 12.4644 57.2113 12.6219 57.6798 12.5734C58.1483 12.5248 58.583 12.2739 58.8958 11.8716C59.1126 11.642 59.3052 11.3841 59.4697 11.1033C57.9672 10.8298 56.4279 11.0363 55.0212 11.7C54.7097 11.8354 54.3703 11.8633 54.0451 11.78C53.7199 11.6968 53.4232 11.5062 53.1917 11.2318C52.9602 10.9574 52.804 10.6112 52.7427 10.2362C52.6813 9.86125 52.7173 9.47388 52.8463 9.12211C53.4756 7.53162 53.7113 5.77377 53.5275 4.04041C53.2805 4.2188 53.0519 4.4288 52.8463 4.66636C52.486 5.01394 52.2533 5.50418 52.1946 6.0394C52.1359 6.57462 52.2555 7.11551 52.5295 7.55431C52.6844 7.91896 52.7362 8.32985 52.6776 8.72977C52.6191 9.12969 52.453 9.49876 52.2027 9.7856C51.9524 10.0724 51.6301 10.2628 51.2809 10.3302C50.9316 10.3975 50.5727 10.3386 50.2541 10.1615C50.1517 10.0894 50.0337 10.0515 49.9135 10.0523C49.6261 10.3161 49.4388 10.6968 49.3907 11.115C49.616 11.4447 49.9435 11.6626 50.3052 11.7234L50.3274 11.7C50.6513 11.3549 51.0798 11.1678 51.5221 11.178C51.9644 11.1883 52.3859 11.3953 52.6973 11.7551C53.0087 12.115 53.1856 12.5994 53.1905 13.106C53.1954 13.6125 53.028 14.1013 52.7237 14.469L52.6964 14.5002ZM100.074 52.65C99.8455 52.6497 99.6175 52.6262 99.3927 52.5798C98.4227 52.3521 97.5319 51.8052 96.8295 51.0062C96.469 50.611 96.1872 50.1315 96.0035 49.6002C95.2666 49.6499 94.529 49.5176 93.8408 49.2121C93.1525 48.9065 92.5298 48.4351 92.0148 47.8296C88.8861 44.3723 90.8822 41.9192 90.969 41.8158C91.7075 41.0954 92.5833 40.5835 93.526 40.3213C94.4688 40.0592 95.4521 40.0541 96.3969 40.3065C96.1426 39.234 96.111 38.1083 96.3047 37.0193C96.4984 35.9304 96.912 34.9085 97.5125 34.0353C98.0232 33.4656 98.7086 33.1477 99.4217 33.15C100.718 33.2413 101.931 33.9122 102.799 35.0181C103.348 35.5845 103.783 36.2805 104.075 37.0582C104.366 37.8359 104.507 38.6767 104.487 39.5226C104.958 39.7123 105.387 40.0178 105.744 40.4177C106.171 40.7954 106.526 41.2688 106.788 41.8091C107.05 42.3493 107.213 42.945 107.267 43.5598C107.322 44.1746 107.266 44.7956 107.103 45.3849C106.941 45.9742 106.675 46.5194 106.323 46.9872C105.677 47.7775 104.851 48.346 103.938 48.6291C103.724 49.6917 103.252 50.6632 102.576 51.4313C102.253 51.8177 101.864 52.125 101.434 52.3345C101.004 52.544 100.541 52.6513 100.074 52.65ZM97.7049 45.045C97.9876 45.0452 98.2659 45.1259 98.5145 45.28C98.7632 45.434 98.9744 45.6565 99.1292 45.9274C99.284 46.1982 99.3775 46.509 99.4012 46.8315C99.4249 47.1541 99.3781 47.4783 99.265 47.775C99.2065 47.8981 99.1771 48.0366 99.1798 48.1767C99.4149 48.495 99.7491 48.6958 100.111 48.7364C100.39 48.4638 100.568 48.0794 100.607 47.6619L100.59 47.6424C100.267 47.2886 100.078 46.8037 100.065 46.2922C100.051 45.7807 100.214 45.2836 100.518 44.9081C100.822 44.5327 101.242 44.3091 101.689 44.2854C102.135 44.2618 102.572 44.44 102.905 44.7818H102.915C103.041 44.8286 103.426 44.694 103.829 44.2182C103.874 44.0817 103.758 43.6332 103.339 43.1613C103.332 43.153 103.325 43.1458 103.317 43.1399C103.202 43.1525 103.091 43.1916 102.99 43.2549C102.671 43.4327 102.312 43.4922 101.962 43.4252C101.613 43.3581 101.29 43.1678 101.039 42.8808C100.789 42.5938 100.623 42.2244 100.564 41.8241C100.505 41.4238 100.557 41.0126 100.713 40.6478C100.976 40.2205 101.093 39.6975 101.041 39.178C100.99 38.6586 100.773 38.1789 100.433 37.83C100.228 37.592 99.9991 37.3814 99.7521 37.2021C99.5687 38.9367 99.8044 40.6957 100.433 42.2877C100.558 42.6386 100.591 43.0234 100.528 43.3953C100.465 43.7672 100.308 44.1099 100.078 44.3817C99.8473 44.6535 99.5527 44.8425 99.2299 44.9257C98.9071 45.0088 98.5701 44.9825 98.2601 44.85C96.852 44.185 95.3112 43.9766 93.8064 44.2475C93.971 44.5283 94.1636 44.7861 94.3804 45.0158C94.6935 45.4167 95.1279 45.6667 95.5957 45.7152C96.0636 45.7637 96.5301 45.6071 96.901 45.2771C97.1484 45.1256 97.4244 45.0459 97.7049 45.045Z" fill="#65991D"/>
<path d="M10.7657 48.7501C9.86226 48.7569 8.99284 48.3562 8.34551 47.6347C7.65529 46.8949 7.15871 45.9495 6.91148 44.9047C5.98342 44.6596 5.13491 44.1188 4.46409 43.3447C4.04365 42.8804 3.73166 42.3028 3.5567 41.6647C3.38174 41.0266 3.34941 40.3484 3.46265 39.6923C3.6615 38.5817 4.13917 37.5618 4.83707 36.7576C5.18179 36.3448 5.60079 36.0227 6.06503 35.8138C6.01895 34.9695 6.13335 34.1238 6.40032 33.335C6.6673 32.5463 7.08051 31.8332 7.61146 31.2449C10.6328 27.6628 12.7736 29.9462 12.8622 30.0457C13.4927 30.8923 13.941 31.8965 14.1712 32.9775C14.4013 34.0585 14.4068 35.1862 14.1872 36.2701C15.1242 35.98 16.1075 35.9449 17.0585 36.1673C18.0095 36.3897 18.9019 36.8637 19.6645 37.5512C20.1613 38.135 20.4388 38.9182 20.4377 39.7333C20.4021 40.4692 20.2397 41.1898 19.9596 41.8535C19.6796 42.5172 19.2875 43.1108 18.8061 43.6001C18.3097 44.2263 17.7014 44.7229 17.0226 45.0564C16.3438 45.3898 15.6103 45.5522 14.8719 45.5326C14.7062 46.0719 14.4394 46.5631 14.0902 46.9717C13.6682 47.5078 13.1566 47.9415 12.5855 48.247C12.0144 48.5525 11.3956 48.7236 10.7657 48.7501ZM10.2189 43.7776C10.1781 43.9121 10.2939 44.3626 10.7112 44.8247C10.8908 44.8105 11.0658 44.7531 11.2249 44.6563C11.3839 44.5596 11.5234 44.4256 11.6342 44.2631C11.6547 44.2222 11.6479 44.0837 11.5525 43.8731C11.3972 43.5083 11.3452 43.097 11.4038 42.6967C11.4624 42.2964 11.6286 41.9271 11.8792 41.6401C12.1299 41.3531 12.4525 41.1628 12.8021 41.0957C13.1517 41.0287 13.5109 41.0882 13.8296 41.266C14.2129 41.581 14.6865 41.7175 15.1544 41.648C15.6223 41.5785 16.0497 41.3081 16.3502 40.8916C16.5585 40.6564 16.7425 40.3947 16.8986 40.1116C15.3842 39.9036 13.8489 40.1733 12.4586 40.8916C12.152 41.035 11.8157 41.0731 11.4906 41.001C11.1655 40.929 10.8657 40.75 10.6281 40.486C10.3905 40.222 10.2252 39.8844 10.1525 39.5145C10.0799 39.1446 10.1029 38.7585 10.2189 38.4034C10.8009 36.7915 10.983 35.0269 10.7452 33.3041C10.4996 33.4927 10.2744 33.714 10.0742 33.9632C9.724 34.3217 9.50568 34.8191 9.46332 35.3547C9.42096 35.8904 9.55772 36.4245 9.84597 36.8492C10.0119 37.2063 10.0767 37.6136 10.0315 38.0148C9.98627 38.4159 9.83322 38.791 9.59354 39.0881C9.35386 39.3853 9.03941 39.5897 8.69375 39.6732C8.34809 39.7566 7.98831 39.7149 7.66426 39.5539C7.55693 39.4865 7.43574 39.4535 7.31342 39.4583C7.03336 39.7273 6.85414 40.1091 6.8127 40.525C7.04956 40.8458 7.38607 41.0485 7.75112 41.0905L7.76815 41.071C8.0805 40.6973 8.5097 40.481 8.96133 40.4697C9.41296 40.4584 9.85002 40.6529 10.1764 41.0105C10.5027 41.3681 10.6916 41.8596 10.7015 42.3767C10.7114 42.8937 10.5415 43.3942 10.2292 43.7678L10.2189 43.7776ZM25.3359 38.6101C24.357 38.6091 23.3897 38.3671 22.4997 37.9005C21.6096 37.434 20.8176 36.7538 20.1773 35.906C19.537 35.0582 19.0634 34.0627 18.7886 32.987C18.5138 31.9113 18.4443 30.7805 18.5847 29.6713C16.9192 29.5453 15.3521 28.7236 14.1807 27.3622C13.0094 26.0008 12.3153 24.1944 12.2302 22.2858C12.1451 20.3773 12.675 18.4994 13.7192 17.0085C14.7634 15.5176 16.2493 14.5175 17.8949 14.198C17.4859 12.3458 17.6848 10.3861 18.4539 8.69066C19.223 6.9952 20.5089 5.68191 22.0676 4.99988C23.6265 4.3205 25.3487 4.31834 26.9089 4.99379C28.4691 5.66924 29.7592 6.97553 30.5355 8.66588C31.9478 7.64375 33.639 7.2515 35.2874 7.56372C36.9358 7.87593 38.4265 8.87084 39.4761 10.3593C40.5256 11.8477 41.0609 13.7258 40.98 15.6366C40.8992 17.5473 40.2079 19.3574 39.0375 20.7227C40.3197 21.9458 41.1652 23.6652 41.4136 25.5547C41.662 27.4442 41.2959 29.3723 40.385 30.9733C39.474 32.5743 38.0814 33.7367 36.4715 34.24C34.8616 34.7434 33.1463 34.5526 31.6511 33.7039C31.1445 35.1485 30.2729 36.3871 29.1479 37.2612C28.0228 38.1352 26.6955 38.6049 25.3359 38.6101ZM21.0781 25.4242C21.3705 25.4241 21.6579 25.5103 21.9128 25.6744C22.1677 25.8384 22.3814 26.0748 22.5333 26.3609C22.6853 26.6469 22.7703 26.9729 22.7803 27.3075C22.7903 27.642 22.725 27.9739 22.5905 28.2712C22.3615 28.7545 22.1782 29.2644 22.0437 29.7922C21.9002 30.2954 21.8477 30.8268 21.8893 31.3541C21.931 31.8813 22.066 32.3933 22.286 32.8589C22.5061 33.3245 22.8066 33.7339 23.1693 34.0622C23.532 34.3905 23.9493 34.6308 24.3958 34.7685C24.8422 34.9062 25.3085 34.9384 25.7661 34.8631C26.2238 34.7878 26.6633 34.6067 27.0578 34.3306C27.4523 34.0546 27.7937 33.6895 28.061 33.2576C28.3283 32.8256 28.516 32.3359 28.6127 31.8182C28.7291 31.2838 28.7947 30.7366 28.8086 30.1861C28.8251 29.8082 28.9372 29.444 29.1314 29.1378C29.3255 28.8316 29.5933 28.5967 29.902 28.4618C30.2107 28.3268 30.547 28.2976 30.87 28.3776C31.193 28.4577 31.4886 28.6436 31.7209 28.9127C32.0518 29.3113 32.4189 29.6682 32.816 29.9774C33.5727 30.5196 34.485 30.7 35.3567 30.4799C36.2284 30.2597 36.9898 29.6566 37.477 28.8002C37.9643 27.9438 38.1385 26.9027 37.9621 25.9008C37.7857 24.8989 37.2729 24.0164 36.5339 23.443C36.1195 23.1513 35.6801 22.9089 35.2225 22.7195C34.9126 22.5866 34.6433 22.3532 34.4474 22.0478C34.2515 21.7424 34.1376 21.3783 34.1195 21C34.1015 20.6216 34.1801 20.2455 34.3457 19.9175C34.5113 19.5895 34.7568 19.3238 35.0522 19.153C35.491 18.9173 35.9081 18.6318 36.2972 18.3008C37.0005 17.6513 37.4496 16.7084 37.5457 15.6797C37.6419 14.651 37.3772 13.6207 36.8098 12.8155C36.2425 12.0102 35.419 11.496 34.5206 11.386C33.6221 11.2759 32.7222 11.579 32.0189 12.2285C31.653 12.584 31.3203 12.982 31.026 13.4161C30.8189 13.7111 30.5412 13.9308 30.2268 14.0482C29.9125 14.1656 29.5751 14.1757 29.2559 14.0773C28.9366 13.9789 28.6492 13.7762 28.4289 13.4939C28.2085 13.2117 28.0647 12.8621 28.0149 12.4879C27.9501 11.9428 27.836 11.4069 27.6743 10.8889C27.3517 9.92286 26.7072 9.14311 25.8825 8.72111C25.0579 8.29911 24.1206 8.26942 23.2768 8.63858C22.8589 8.82127 22.4765 9.09642 22.1515 9.44833C21.8264 9.80023 21.5651 10.222 21.3825 10.6895C21.1998 11.1571 21.0993 11.6612 21.0869 12.1732C21.0744 12.6852 21.1501 13.195 21.3097 13.6735C21.4918 14.1824 21.7201 14.6681 21.9909 15.1223C22.1725 15.4392 22.2695 15.8098 22.27 16.1888C22.2705 16.5678 22.1746 16.9388 21.9939 17.2563C21.8132 17.5739 21.5556 17.8243 21.2526 17.9769C20.9496 18.1295 20.6144 18.1777 20.2878 18.1156C19.8149 18.0174 19.3343 17.9755 18.8538 17.9908C18.4065 18.0164 17.9679 18.1426 17.5632 18.3623C17.1585 18.5819 16.7956 18.8907 16.4951 19.2709C16.1946 19.6512 15.9625 20.0955 15.812 20.5785C15.6614 21.0614 15.5955 21.5736 15.6179 22.0858C15.6402 22.5979 15.7505 23.1 15.9423 23.5634C16.1342 24.0268 16.4038 24.4423 16.736 24.7864C17.0681 25.1304 17.4561 25.3962 17.8779 25.5685C18.2998 25.7409 18.7471 25.8164 19.1944 25.7908C19.6726 25.7497 20.1458 25.6516 20.6063 25.4983C20.7568 25.4478 20.9127 25.4215 21.0696 25.4203L21.0781 25.4242Z" fill="#65991D"/>
<path d="M27.5395 23.3395C28.4801 23.3395 29.2426 22.4664 29.2426 21.3895C29.2426 20.3125 28.4801 19.4395 27.5395 19.4395C26.5988 19.4395 25.8363 20.3125 25.8363 21.3895C25.8363 22.4664 26.5988 23.3395 27.5395 23.3395Z" fill="#65991D"/>
<path d="M41.5051 50.3685C41.09 51.0337 40.8694 51.8324 40.8749 52.65C40.8738 52.8141 40.8566 52.9777 40.8238 53.1375C39.9851 52.148 39.0409 51.2832 38.0137 50.5635C36.8092 45.5284 34.8498 40.7711 32.2231 36.504C32.308 36.3852 32.3876 36.2616 32.4615 36.1335C33.1784 36.3515 33.9168 36.4629 34.6585 36.465C35.1789 36.4656 35.6981 36.4068 36.2084 36.2895C38.6371 40.6177 40.4266 45.3743 41.5051 50.3685ZM78.8546 48.4185C77.4948 48.4134 76.1672 47.9436 75.0421 47.0691C73.917 46.1947 73.0455 44.9555 72.5394 43.5103C71.0442 44.359 69.3289 44.5498 67.719 44.0465C66.1091 43.5432 64.7165 42.3807 63.8055 40.7797C62.8946 39.1788 62.5285 37.2506 62.7769 35.3611C63.0253 33.4716 63.8708 31.7522 65.153 30.5292C63.9857 29.1633 63.2969 27.3544 63.2174 25.4456C63.1378 23.5368 63.6731 21.661 64.7215 20.1742C65.7699 18.6873 67.2586 17.6928 68.9051 17.3795C70.5515 17.0661 72.2411 17.4557 73.6533 18.4743C74.4257 16.778 75.7156 15.4659 77.2778 14.7874C78.84 14.1089 80.5655 14.1113 82.1262 14.7943C83.6868 15.4772 84.9739 16.793 85.7427 18.4915C86.5114 20.19 86.7082 22.1527 86.2956 24.0064C87.9412 24.3259 89.4271 25.326 90.4713 26.8169C91.5155 28.3078 92.0454 30.1857 91.9603 32.0942C91.8752 34.0028 91.1811 35.8092 90.0098 37.1706C88.8384 38.532 87.2713 39.3537 85.6058 39.4797C85.7462 40.5889 85.6767 41.7197 85.4019 42.7954C85.1271 43.8711 84.6535 44.8666 84.0132 45.7144C83.3729 46.5622 82.5809 47.2424 81.6908 47.709C80.8008 48.1755 79.8335 48.4175 78.8546 48.4185ZM73.6805 38.1459C74.1178 38.1453 74.5386 38.3373 74.8557 38.6821C75.1727 39.027 75.3618 39.4983 75.3836 39.9984C75.3987 40.55 75.4638 41.0983 75.5778 41.6344C75.8136 42.6331 76.3862 43.4836 77.1697 43.9989C77.9532 44.5141 78.8833 44.6519 79.7556 44.382C80.6278 44.112 81.3706 43.4564 81.8207 42.5593C82.2707 41.6623 82.3911 40.5973 82.1553 39.5986C82.0208 39.0702 81.8376 38.5596 81.6086 38.0757C81.4568 37.7401 81.3934 37.3612 81.4262 36.9851C81.459 36.6091 81.5866 36.252 81.7934 35.9574C82.0002 35.6628 82.2772 35.4434 82.5909 35.3258C82.9046 35.2082 83.2414 35.1975 83.5603 35.295C84.0214 35.4482 84.4952 35.5456 84.9739 35.5855C85.4207 35.6111 85.8675 35.5357 86.2888 35.3637C86.7101 35.1916 87.0977 34.9261 87.4294 34.5826C87.7611 34.239 88.0305 33.8239 88.2221 33.3612C88.4137 32.8984 88.5239 32.3969 88.5463 31.8854C88.5686 31.3739 88.5028 30.8623 88.3525 30.38C88.2022 29.8976 87.9704 29.4538 87.6703 29.074C87.3702 28.6942 87.0077 28.3858 86.6035 28.1664C86.1993 27.947 85.7613 27.8209 85.3146 27.7953C84.8351 27.7807 84.3557 27.8231 83.8839 27.922C83.5577 27.9838 83.2227 27.9355 82.92 27.7829C82.6173 27.6304 82.36 27.3803 82.1794 27.063C81.9988 26.7458 81.9027 26.3753 81.903 25.9966C81.9033 25.618 81.9998 25.2476 82.1808 24.9307C82.4515 24.475 82.6799 23.9881 82.8621 23.478C83.17 22.5156 83.1346 21.4531 82.7637 20.5204C82.3927 19.5876 81.716 18.8595 80.8798 18.4936C80.0436 18.1277 79.1153 18.1533 78.2955 18.565C77.4757 18.9766 76.8304 19.7412 76.4992 20.6934C76.3367 21.2118 76.2226 21.7484 76.1586 22.2943C76.1085 22.6684 75.9645 23.0178 75.744 23.2998C75.5236 23.5817 75.2362 23.7842 74.917 23.8824C74.5977 23.9806 74.2605 23.9703 73.9462 23.8528C73.632 23.7353 73.3545 23.5156 73.1474 23.2206C72.8517 22.7862 72.5178 22.3876 72.1511 22.0311C71.4476 21.3818 70.5476 21.079 69.6491 21.1895C68.7507 21.2999 67.9273 21.8145 67.3602 22.62C66.7931 23.4255 66.5287 24.4559 66.6252 25.4846C66.7216 26.5133 67.1711 27.456 67.8746 28.1053C68.2642 28.4354 68.6812 28.7208 69.1196 28.9575C69.4147 29.1277 69.6602 29.3925 69.8261 29.7197C69.9921 30.0469 70.0713 30.4224 70.0542 30.8002C70.037 31.1781 69.9242 31.542 69.7296 31.8478C69.5349 32.1535 69.2667 32.3878 68.9578 32.5221C68.4986 32.7117 68.058 32.9554 67.6429 33.2494C66.8854 33.8139 66.3548 34.6998 66.1678 35.7123C65.9808 36.7247 66.1527 37.7807 66.6458 38.648C67.1388 39.5153 67.9125 40.1228 68.7968 40.337C69.681 40.5511 70.6034 40.3542 71.3609 39.7897C71.7576 39.4799 72.1247 39.123 72.456 38.725C72.6149 38.5409 72.8043 38.3949 73.0131 38.2954C73.2219 38.196 73.4459 38.1452 73.672 38.1459H73.6805Z" fill="#65991D"/>
<path d="M76.6407 33.15C77.5813 33.15 78.3438 32.277 78.3438 31.2C78.3438 30.123 77.5813 29.25 76.6407 29.25C75.7 29.25 74.9375 30.123 74.9375 31.2C74.9375 32.277 75.7 33.15 76.6407 33.15Z" fill="#65991D"/>
<path d="M71.2416 46.0591C69.1252 49.1884 67.6944 52.8526 67.0689 56.7451C66.7312 57.0025 66.4071 57.2825 66.0981 57.5836C65.5757 56.2127 64.9428 54.9005 64.2077 53.6641C64.866 50.9248 65.87 48.3102 67.1881 45.9031C67.9463 46.1543 68.7322 46.2791 69.5214 46.2736C70.0998 46.2708 70.6763 46.1989 71.2416 46.0591Z" fill="#65991D"/>
</svg>
