<svg width="73" height="78" viewBox="0 0 73 78" fill="none" xmlns="http://www.w3.org/2000/svg">
<mask id="path-1-inside-1_1_2430" fill="white">
<path d="M20.9129 66.4575H9.83709C7.34469 66.4575 5.31879 64.4316 5.31879 61.9392V37.0952C5.31879 34.6028 7.34469 32.5769 9.83709 32.5769H20.9129C23.4053 32.5769 25.4312 34.6028 25.4312 37.0952V61.9526C25.4312 64.445 23.4053 66.4575 20.9129 66.4575ZM9.83709 35.2426C8.82414 35.2426 7.98445 36.0689 7.98445 37.0952V61.9526C7.98445 62.9655 8.81081 63.8052 9.83709 63.8052H20.9129C21.9259 63.8052 22.7656 62.9788 22.7656 61.9526V37.0952C22.7656 36.0823 21.9392 35.2426 20.9129 35.2426H9.83709Z"/>
</mask>
<path d="M20.9129 66.4575H9.83709C7.34469 66.4575 5.31879 64.4316 5.31879 61.9392V37.0952C5.31879 34.6028 7.34469 32.5769 9.83709 32.5769H20.9129C23.4053 32.5769 25.4312 34.6028 25.4312 37.0952V61.9526C25.4312 64.445 23.4053 66.4575 20.9129 66.4575ZM9.83709 35.2426C8.82414 35.2426 7.98445 36.0689 7.98445 37.0952V61.9526C7.98445 62.9655 8.81081 63.8052 9.83709 63.8052H20.9129C21.9259 63.8052 22.7656 62.9788 22.7656 61.9526V37.0952C22.7656 36.0823 21.9392 35.2426 20.9129 35.2426H9.83709Z" fill="white"/>
<path d="M20.9129 58.4575H9.83709V74.4575H20.9129V58.4575ZM9.83709 58.4575C11.763 58.4575 13.3188 60.0134 13.3188 61.9392H-2.68121C-2.68121 68.8499 2.92642 74.4575 9.83709 74.4575V58.4575ZM13.3188 61.9392V37.0952H-2.68121V61.9392H13.3188ZM13.3188 37.0952C13.3188 39.0211 11.763 40.5769 9.83709 40.5769V24.5769C2.92642 24.5769 -2.68121 30.1845 -2.68121 37.0952H13.3188ZM9.83709 40.5769H20.9129V24.5769H9.83709V40.5769ZM20.9129 40.5769C18.9871 40.5769 17.4312 39.0211 17.4312 37.0952H33.4312C33.4312 30.1845 27.8236 24.5769 20.9129 24.5769V40.5769ZM17.4312 37.0952V61.9526H33.4312V37.0952H17.4312ZM17.4312 61.9526C17.4312 59.9959 19.0179 58.4575 20.9129 58.4575V74.4575C27.7928 74.4575 33.4312 68.894 33.4312 61.9526H17.4312ZM9.83709 27.2426C4.44335 27.2426 -0.0155458 31.6133 -0.0155458 37.0952H15.9845C15.9845 40.5246 13.2049 43.2426 9.83709 43.2426V27.2426ZM-0.0155458 37.0952V61.9526H15.9845V37.0952H-0.0155458ZM-0.0155458 61.9526C-0.0155458 67.3463 4.35515 71.8052 9.83709 71.8052V55.8052C13.2665 55.8052 15.9845 58.5847 15.9845 61.9526H-0.0155458ZM9.83709 71.8052H20.9129V55.8052H9.83709V71.8052ZM20.9129 71.8052C26.3067 71.8052 30.7656 67.4345 30.7656 61.9526H14.7656C14.7656 58.5232 17.5451 55.8052 20.9129 55.8052V71.8052ZM30.7656 61.9526V37.0952H14.7656V61.9526H30.7656ZM30.7656 37.0952C30.7656 31.7014 26.3949 27.2426 20.9129 27.2426V43.2426C17.4836 43.2426 14.7656 40.4631 14.7656 37.0952H30.7656ZM20.9129 27.2426H9.83709V43.2426H20.9129V27.2426Z" fill="white" mask="url(#path-1-inside-1_1_2430)"/>
<mask id="path-3-inside-2_1_2430" fill="white">
<path d="M45.2905 45.5187C45.1155 45.523 44.9413 45.4929 44.7779 45.43C44.6145 45.367 44.4651 45.2725 44.3383 45.1518C44.0821 44.9081 43.9332 44.5726 43.9243 44.2191C43.9155 43.8657 44.0474 43.5231 44.2911 43.2669C44.5348 43.0107 44.8704 42.8618 45.2238 42.853L66.0027 41.7867C66.6425 41.7601 67.1356 41.2269 67.1356 40.5872V38.3214C67.1356 37.9881 67.0023 37.6949 66.7758 37.455C66.6608 37.3446 66.525 37.2582 66.3762 37.201C66.2274 37.1438 66.0687 37.1169 65.9094 37.1218L45.2772 37.6816C43.9976 37.7216 42.7581 37.2418 41.8384 36.3354C40.9055 35.4291 40.399 34.2296 40.399 32.9367V31.8171L24.6715 39.2943C24.0051 39.6142 23.2188 39.321 22.8989 38.6679C22.579 38.0148 22.8722 37.2018 23.5253 36.8952L41.1587 28.5117C41.3605 28.4126 41.5847 28.3679 41.8091 28.3819C42.0335 28.3959 42.2503 28.4682 42.4382 28.5917C42.8247 28.8316 43.0646 29.2581 43.0646 29.7246V32.95C43.0646 33.5232 43.2912 34.043 43.6911 34.4428C44.1043 34.8427 44.6374 35.0559 45.1972 35.0293L65.8295 34.4695C66.8691 34.4295 67.882 34.8293 68.6284 35.5624C69.3881 36.2954 69.8013 37.2817 69.8013 38.3347V40.6005C69.8013 42.6531 68.1886 44.3591 66.136 44.4657L45.3571 45.532C45.3438 45.5187 45.3171 45.5187 45.2905 45.5187Z"/>
</mask>
<path d="M45.2905 45.5187C45.1155 45.523 44.9413 45.4929 44.7779 45.43C44.6145 45.367 44.4651 45.2725 44.3383 45.1518C44.0821 44.9081 43.9332 44.5726 43.9243 44.2191C43.9155 43.8657 44.0474 43.5231 44.2911 43.2669C44.5348 43.0107 44.8704 42.8618 45.2238 42.853L66.0027 41.7867C66.6425 41.7601 67.1356 41.2269 67.1356 40.5872V38.3214C67.1356 37.9881 67.0023 37.6949 66.7758 37.455C66.6608 37.3446 66.525 37.2582 66.3762 37.201C66.2274 37.1438 66.0687 37.1169 65.9094 37.1218L45.2772 37.6816C43.9976 37.7216 42.7581 37.2418 41.8384 36.3354C40.9055 35.4291 40.399 34.2296 40.399 32.9367V31.8171L24.6715 39.2943C24.0051 39.6142 23.2188 39.321 22.8989 38.6679C22.579 38.0148 22.8722 37.2018 23.5253 36.8952L41.1587 28.5117C41.3605 28.4126 41.5847 28.3679 41.8091 28.3819C42.0335 28.3959 42.2503 28.4682 42.4382 28.5917C42.8247 28.8316 43.0646 29.2581 43.0646 29.7246V32.95C43.0646 33.5232 43.2912 34.043 43.6911 34.4428C44.1043 34.8427 44.6374 35.0559 45.1972 35.0293L65.8295 34.4695C66.8691 34.4295 67.882 34.8293 68.6284 35.5624C69.3881 36.2954 69.8013 37.2817 69.8013 38.3347V40.6005C69.8013 42.6531 68.1886 44.3591 66.136 44.4657L45.3571 45.532C45.3438 45.5187 45.3171 45.5187 45.2905 45.5187Z" fill="white"/>
<path d="M45.2905 45.5187V37.5187H45.1905L45.0905 37.5212L45.2905 45.5187ZM44.3383 45.1518L49.852 39.3554L44.3383 45.1518ZM45.2238 42.853L45.4238 50.8505L45.5289 50.8479L45.6338 50.8425L45.2238 42.853ZM66.0027 41.7867L65.6697 33.7937L65.6312 33.7953L65.5927 33.7972L66.0027 41.7867ZM66.7758 37.455L72.5919 31.962L72.4584 31.8207L72.3182 31.686L66.7758 37.455ZM65.9094 37.1218L66.1264 45.1189L66.142 45.1184L66.1576 45.118L65.9094 37.1218ZM45.2772 37.6816L45.0602 29.6845L45.0437 29.685L45.0273 29.6855L45.2772 37.6816ZM41.8384 36.3354L47.4539 30.6374L47.4334 30.6172L47.4127 30.5972L41.8384 36.3354ZM40.399 31.8171H48.399V19.1556L36.964 24.5921L40.399 31.8171ZM24.6715 39.2943L21.2366 32.0693L21.2231 32.0757L21.2097 32.0821L24.6715 39.2943ZM23.5253 36.8952L26.9246 44.1371L26.9425 44.1287L26.9603 44.1202L23.5253 36.8952ZM41.1587 28.5117L44.5937 35.7367L44.639 35.7151L44.6841 35.693L41.1587 28.5117ZM42.4382 28.5917L38.0461 35.2782L38.132 35.3346L38.2193 35.3888L42.4382 28.5917ZM43.6911 34.4428L38.0342 40.0997L38.0806 40.146L38.1277 40.1916L43.6911 34.4428ZM45.1972 35.0293L44.9802 27.0322L44.8984 27.0344L44.8167 27.0383L45.1972 35.0293ZM65.8295 34.4695L66.0464 42.4665L66.0917 42.4653L66.1369 42.4636L65.8295 34.4695ZM68.6284 35.5624L63.0227 41.27L63.048 41.2948L63.0735 41.3193L68.6284 35.5624ZM66.136 44.4657L66.546 52.4552L66.551 52.4549L66.136 44.4657ZM45.3571 45.532L39.7003 51.1888L42.2152 53.7037L45.7671 53.5215L45.3571 45.532ZM45.0905 37.5212C45.9657 37.4993 46.8366 37.65 47.6537 37.9647L41.9021 52.8952C43.0459 53.3358 44.2652 53.5468 45.4904 53.5162L45.0905 37.5212ZM47.6537 37.9647C48.4707 38.2795 49.2177 38.752 49.852 39.3554L38.8246 50.9483C39.7126 51.793 40.7583 52.4546 41.9021 52.8952L47.6537 37.9647ZM49.852 39.3554C51.1331 40.574 51.8776 42.2516 51.9218 44.0192L35.9268 44.4191C35.9887 46.8937 37.0311 49.2423 38.8246 50.9483L49.852 39.3554ZM51.9218 44.0192C51.966 45.7867 51.3063 47.4995 50.0876 48.7806L38.4947 37.7532C36.7886 39.5468 35.865 41.9446 35.9268 44.4191L51.9218 44.0192ZM50.0876 48.7806C48.869 50.0618 47.1913 50.8063 45.4238 50.8505L45.0239 34.8555C42.5494 34.9174 40.2007 35.9597 38.4947 37.7532L50.0876 48.7806ZM45.6338 50.8425L66.4127 49.7762L65.5927 33.7972L44.8139 34.8635L45.6338 50.8425ZM66.3358 49.7798C71.4208 49.5679 75.1356 45.3534 75.1356 40.5872H59.1356C59.1356 37.1005 61.8641 33.9522 65.6697 33.7937L66.3358 49.7798ZM75.1356 40.5872V38.3214H59.1356V40.5872H75.1356ZM75.1356 38.3214C75.1356 35.6816 74.0287 33.4833 72.5919 31.962L60.9597 42.948C59.976 41.9065 59.1356 40.2947 59.1356 38.3214H75.1356ZM72.3182 31.686C71.435 30.8375 70.3912 30.1739 69.248 29.7342L63.5044 44.6678C62.6588 44.3425 61.8866 43.8517 61.2333 43.224L72.3182 31.686ZM69.248 29.7342C68.1049 29.2946 66.8855 29.0877 65.6612 29.1257L66.1576 45.118C65.252 45.1461 64.35 44.993 63.5044 44.6678L69.248 29.7342ZM65.6925 29.1247L45.0602 29.6845L45.4941 45.6787L66.1264 45.1189L65.6925 29.1247ZM45.0273 29.6855C45.9198 29.6576 46.8042 29.9972 47.4539 30.6374L36.223 42.0334C38.712 44.4863 42.0755 45.7856 45.527 45.6777L45.0273 29.6855ZM47.4127 30.5972C48.0272 31.1941 48.399 32.0631 48.399 32.9367H32.399C32.399 36.396 33.7837 39.6641 36.2642 42.0737L47.4127 30.5972ZM48.399 32.9367V31.8171H32.399V32.9367H48.399ZM36.964 24.5921L21.2366 32.0693L28.1065 46.5194L43.8339 39.0422L36.964 24.5921ZM21.2097 32.0821C24.6535 30.4291 28.5444 32.0069 30.0834 35.149L15.7144 42.1868C17.8931 46.6351 23.3567 48.7993 28.1334 46.5065L21.2097 32.0821ZM30.0834 35.149C31.753 38.5578 30.2701 42.5667 26.9246 44.1371L20.126 29.6533C15.4743 31.8368 13.405 37.4718 15.7144 42.1868L30.0834 35.149ZM26.9603 44.1202L44.5937 35.7367L37.7237 21.2867L20.0903 29.6702L26.9603 44.1202ZM44.6841 35.693C43.6371 36.207 42.4741 36.4391 41.31 36.3663L42.3081 20.3975C40.6952 20.2967 39.0839 20.6182 37.6333 21.3304L44.6841 35.693ZM41.31 36.3663C40.1459 36.2936 39.0209 35.9185 38.0461 35.2782L46.8304 21.9052C45.4797 21.018 43.921 20.4983 42.3081 20.3975L41.31 36.3663ZM38.2193 35.3888C36.249 34.1658 35.0646 32.0184 35.0646 29.7246H51.0646C51.0646 26.4977 49.4005 23.4973 46.6571 21.7945L38.2193 35.3888ZM35.0646 29.7246V32.95H51.0646V29.7246H35.0646ZM35.0646 32.95C35.0646 35.7385 36.2016 38.267 38.0342 40.0997L49.3479 28.786C50.3808 29.8189 51.0646 31.3078 51.0646 32.95H35.0646ZM38.1277 40.1916C40.0175 42.0204 42.6633 43.159 45.5777 43.0202L44.8167 27.0383C46.6115 26.9528 48.1911 27.6649 49.2545 28.694L38.1277 40.1916ZM45.4142 43.0263L66.0464 42.4665L65.6125 26.4724L44.9802 27.0322L45.4142 43.0263ZM66.1369 42.4636C64.9253 42.5102 63.8128 42.0459 63.0227 41.27L74.2341 29.8548C71.9513 27.6128 68.8128 26.3488 65.522 26.4754L66.1369 42.4636ZM63.0735 41.3193C62.2515 40.5262 61.8013 39.4262 61.8013 38.3347H77.8013C77.8013 35.1373 76.5248 32.0647 74.1834 29.8054L63.0735 41.3193ZM61.8013 38.3347V40.6005H77.8013V38.3347H61.8013ZM61.8013 40.6005C61.8013 38.4118 63.5066 36.5915 65.721 36.4765L66.551 52.4549C72.8705 52.1267 77.8013 46.8943 77.8013 40.6005H61.8013ZM65.726 36.4762L44.9471 37.5425L45.7671 53.5215L66.546 52.4552L65.726 36.4762ZM51.014 39.8751C49.1618 38.0229 47.0412 37.6838 46.4607 37.6008C46.0557 37.5429 45.7306 37.5283 45.5685 37.523C45.4792 37.5202 45.4068 37.5193 45.3636 37.5189C45.3413 37.5188 45.3229 37.5187 45.3112 37.5187C45.3004 37.5187 45.2909 37.5187 45.2905 37.5187V53.5187C45.4513 53.5187 44.8582 53.5344 44.1969 53.4398C43.6397 53.3602 41.5392 53.0277 39.7003 51.1888L51.014 39.8751Z" fill="white" mask="url(#path-3-inside-2_1_2430)"/>
<path d="M67.3645 45.4488L67.3358 47.2L64.67 47.1583M67.3645 45.4488L64.67 47.1583M67.3645 45.4488C66.9813 45.6633 66.5292 45.7889 66.0234 45.7855C66.0016 45.7854 65.9797 45.785 65.9577 45.7844M67.3645 45.4488L65.9577 45.7844M64.67 47.1583L67.3358 47.202M64.67 47.1583L67.3358 47.202M65.9577 45.7844C65.9795 45.7853 66.0014 45.7859 66.0234 45.7863L65.9508 45.785L65.8782 45.7811C65.9049 45.7825 65.9313 45.7836 65.9577 45.7844ZM67.3358 47.202L67.3356 47.2116L67.3358 47.202ZM67.4024 43.1369C67.4024 43.1385 67.4024 43.1401 67.4024 43.1417L66.0719 43.1175L66.0236 43.1166L64.7366 43.0932L66.0237 43.1143L66.072 43.1151L67.4024 43.1369Z" fill="white" stroke="white" stroke-width="8"/>
<mask id="path-6-inside-3_1_2430" fill="white">
<path d="M48.8358 60.9532C48.1294 60.9532 47.5296 60.3934 47.503 59.6736C47.4763 58.9406 48.0494 58.3141 48.7825 58.2875L58.8987 57.861C60.1915 57.8077 61.2045 56.7547 61.2045 55.4619V51.65C61.2045 50.9169 61.8043 50.3171 62.5373 50.3171C63.2704 50.3171 63.8702 50.9169 63.8702 51.65V55.4619C63.8702 58.1942 61.7376 60.42 59.0053 60.5266L48.8891 60.9532H48.8358Z"/>
</mask>
<path d="M48.8358 60.9532C48.1294 60.9532 47.5296 60.3934 47.503 59.6736C47.4763 58.9406 48.0494 58.3141 48.7825 58.2875L58.8987 57.861C60.1915 57.8077 61.2045 56.7547 61.2045 55.4619V51.65C61.2045 50.9169 61.8043 50.3171 62.5373 50.3171C63.2704 50.3171 63.8702 50.9169 63.8702 51.65V55.4619C63.8702 58.1942 61.7376 60.42 59.0053 60.5266L48.8891 60.9532H48.8358Z" fill="white"/>
<path d="M47.503 59.6736L39.5083 59.9643L39.5085 59.9697L47.503 59.6736ZM48.7825 58.2875L49.0732 66.2822L49.0963 66.2814L49.1195 66.2804L48.7825 58.2875ZM58.8987 57.861L58.5691 49.8678L58.5617 49.8681L58.8987 57.861ZM59.0053 60.5266L58.6934 52.5327L58.6809 52.5332L58.6683 52.5337L59.0053 60.5266ZM48.8891 60.9532V68.9532H49.0577L49.2261 68.9461L48.8891 60.9532ZM48.8358 52.9532C52.3401 52.9532 55.3615 55.7054 55.4975 59.3775L39.5085 59.9697C39.6978 65.0813 43.9187 68.9532 48.8358 68.9532V52.9532ZM55.4977 59.3829C55.6288 62.9895 52.8308 66.1456 49.0732 66.2822L48.4918 50.2928C43.2681 50.4827 39.3238 54.8916 39.5083 59.9643L55.4977 59.3829ZM49.1195 66.2804L59.2357 65.8539L58.5617 49.8681L48.4455 50.2946L49.1195 66.2804ZM59.2283 65.8542C64.7939 65.6247 69.2045 61.0584 69.2045 55.4619H53.2045C53.2045 52.451 55.5892 49.9907 58.5691 49.8678L59.2283 65.8542ZM69.2045 55.4619V51.65H53.2045V55.4619H69.2045ZM69.2045 51.65C69.2045 55.3352 66.2226 58.3171 62.5373 58.3171V42.3171C57.386 42.3171 53.2045 46.4986 53.2045 51.65H69.2045ZM62.5373 58.3171C58.8521 58.3171 55.8702 55.3352 55.8702 51.65H71.8702C71.8702 46.4986 67.6887 42.3171 62.5373 42.3171V58.3171ZM55.8702 51.65V55.4619H71.8702V51.65H55.8702ZM55.8702 55.4619C55.8702 53.9124 57.117 52.5942 58.6934 52.5327L59.3173 68.5206C66.3583 68.2458 71.8702 62.476 71.8702 55.4619H55.8702ZM58.6683 52.5337L48.5521 52.9603L49.2261 68.9461L59.3423 68.5195L58.6683 52.5337ZM48.8891 52.9532H48.8358V68.9532H48.8891V52.9532Z" fill="white" mask="url(#path-6-inside-3_1_2430)"/>
<path d="M48.8319 36.2592L48.8358 36.2578L48.8319 36.2592ZM48.8319 36.2592L48.8358 36.251L48.8319 36.2592ZM53.1657 21.6597L53.1357 21.6704L53.1657 21.6597Z" fill="white" stroke="white" stroke-width="8"/>
<path d="M41.238 5.00455C41.2373 5.00618 41.2366 5.00782 41.2359 5.00945C40.8973 5.77757 40.1943 6.36082 39.3511 6.54671L41.238 5.00455Z" fill="white" stroke="white" stroke-width="8"/>
<mask id="path-10-inside-4_1_2430" fill="white">
<path d="M53.9806 75.7743H48.9025C48.1694 75.7743 47.5696 75.1745 47.5696 74.4414C47.5696 73.7084 48.1694 73.1086 48.9025 73.1086H53.9806C55.1668 73.1086 56.1264 72.149 56.1264 70.9627V60.6866C56.1264 59.9535 56.7262 59.3538 57.4593 59.3538C58.1923 59.3538 58.7921 59.9535 58.7921 60.6866V70.9627C58.7921 73.6151 56.6329 75.7743 53.9806 75.7743Z"/>
</mask>
<path d="M53.9806 75.7743H48.9025C48.1694 75.7743 47.5696 75.1745 47.5696 74.4414C47.5696 73.7084 48.1694 73.1086 48.9025 73.1086H53.9806C55.1668 73.1086 56.1264 72.149 56.1264 70.9627V60.6866C56.1264 59.9535 56.7262 59.3538 57.4593 59.3538C58.1923 59.3538 58.7921 59.9535 58.7921 60.6866V70.9627C58.7921 73.6151 56.6329 75.7743 53.9806 75.7743Z" fill="white"/>
<path d="M53.9806 67.7743H48.9025V83.7743H53.9806V67.7743ZM48.9025 67.7743C52.5877 67.7743 55.5696 70.7562 55.5696 74.4414H39.5696C39.5696 79.5928 43.7511 83.7743 48.9025 83.7743V67.7743ZM55.5696 74.4414C55.5696 78.1267 52.5877 81.1086 48.9025 81.1086V65.1086C43.7511 65.1086 39.5696 69.2901 39.5696 74.4414H55.5696ZM48.9025 81.1086H53.9806V65.1086H48.9025V81.1086ZM53.9806 81.1086C59.5851 81.1086 64.1264 76.5672 64.1264 70.9627H48.1264C48.1264 67.7307 50.7485 65.1086 53.9806 65.1086V81.1086ZM64.1264 70.9627V60.6866H48.1264V70.9627H64.1264ZM64.1264 60.6866C64.1264 64.3718 61.1445 67.3538 57.4593 67.3538V51.3538C52.3079 51.3538 48.1264 55.5353 48.1264 60.6866H64.1264ZM57.4593 67.3538C53.7741 67.3538 50.7921 64.3718 50.7921 60.6866H66.7921C66.7921 55.5353 62.6106 51.3538 57.4593 51.3538V67.3538ZM50.7921 60.6866V70.9627H66.7921V60.6866H50.7921ZM50.7921 70.9627C50.7921 69.1968 52.2146 67.7743 53.9806 67.7743V83.7743C61.0512 83.7743 66.7921 78.0334 66.7921 70.9627H50.7921Z" fill="white" mask="url(#path-10-inside-4_1_2430)"/>
<path d="M67.4186 36.2592L67.4201 36.2605L67.4186 36.2592ZM67.4186 36.2592L67.4156 36.2568L66.4553 35.4639L67.4186 36.2592Z" fill="white" stroke="white" stroke-width="8"/>
<mask id="path-13-inside-5_1_2430" fill="white">
<path d="M64.6299 67.5106H63.7236C62.9905 67.5106 62.3908 66.9108 62.3908 66.1777C62.3908 65.4447 62.9905 64.8449 63.7236 64.8449H64.6299C65.7362 64.8449 66.6292 63.9519 66.6292 62.8457V42.1201C66.6292 41.387 67.229 40.7873 67.962 40.7873C68.6951 40.7873 69.2948 41.387 69.2948 42.1201V62.8457C69.2815 65.418 67.189 67.5106 64.6299 67.5106ZM51.6615 15.2235C51.075 15.2235 50.5419 14.837 50.3819 14.2505C49.3157 10.3853 49.1291 2.4283 56.0731 0.0691805C56.553 -0.0907596 57.0994 0.0291955 57.4593 0.402389C57.8191 0.775583 57.9258 1.32204 57.7525 1.80186C57.7392 1.85518 55.8599 6.98659 57.5526 11.4516C57.8191 12.1447 57.4726 12.9044 56.7795 13.1709C56.6159 13.2335 56.4416 13.2631 56.2665 13.258C56.0914 13.253 55.919 13.2134 55.7593 13.1416C55.5995 13.0698 55.4555 12.9671 55.3356 12.8395C55.2156 12.7118 55.122 12.5618 55.0602 12.3979C53.9406 9.439 54.0606 6.36016 54.4338 4.121C51.2883 7.3198 52.8743 13.2376 52.9543 13.5308C53.1542 14.2372 52.7277 14.9703 52.0213 15.1702C51.9014 15.2102 51.7814 15.2235 51.6615 15.2235ZM67.4156 21.8477C66.7225 21.8477 66.136 21.3012 66.0827 20.5948C65.8695 17.1561 66.4026 14.5704 67.0957 12.7311C65.0165 14.3971 64.43 17.0228 64.43 17.0628C64.2701 17.7825 63.5637 18.249 62.8439 18.0891C62.1242 17.9425 61.671 17.2228 61.8176 16.503C61.8843 16.2231 63.3904 9.47899 70.0013 8.77259C70.5744 8.70594 71.1075 9.02582 71.3474 9.54563C71.5873 10.0654 71.4674 10.6785 71.0542 11.0784C70.9476 11.185 68.3352 13.8507 68.7351 20.4349C68.7462 20.6101 68.7226 20.7857 68.6656 20.9517C68.6086 21.1177 68.5193 21.2708 68.4028 21.4022C68.2863 21.5335 68.145 21.6405 67.987 21.7169C67.829 21.7934 67.6574 21.8378 67.4822 21.8477H67.4156ZM6.66498 62.9656H1.72016C0.987104 62.9656 0.387329 62.3658 0.387329 61.6328V37.0953C0.387329 36.3623 0.987104 35.7625 1.72016 35.7625H6.66498C7.39804 35.7625 7.99781 36.3623 7.99781 37.0953C7.99781 37.8284 7.39804 38.4281 6.66498 38.4281H3.053V60.2999H6.66498C7.39804 60.2999 7.99781 60.8997 7.99781 61.6328C7.99781 62.3658 7.39804 62.9656 6.66498 62.9656Z"/>
</mask>
<path d="M64.6299 67.5106H63.7236C62.9905 67.5106 62.3908 66.9108 62.3908 66.1777C62.3908 65.4447 62.9905 64.8449 63.7236 64.8449H64.6299C65.7362 64.8449 66.6292 63.9519 66.6292 62.8457V42.1201C66.6292 41.387 67.229 40.7873 67.962 40.7873C68.6951 40.7873 69.2948 41.387 69.2948 42.1201V62.8457C69.2815 65.418 67.189 67.5106 64.6299 67.5106ZM51.6615 15.2235C51.075 15.2235 50.5419 14.837 50.3819 14.2505C49.3157 10.3853 49.1291 2.4283 56.0731 0.0691805C56.553 -0.0907596 57.0994 0.0291955 57.4593 0.402389C57.8191 0.775583 57.9258 1.32204 57.7525 1.80186C57.7392 1.85518 55.8599 6.98659 57.5526 11.4516C57.8191 12.1447 57.4726 12.9044 56.7795 13.1709C56.6159 13.2335 56.4416 13.2631 56.2665 13.258C56.0914 13.253 55.919 13.2134 55.7593 13.1416C55.5995 13.0698 55.4555 12.9671 55.3356 12.8395C55.2156 12.7118 55.122 12.5618 55.0602 12.3979C53.9406 9.439 54.0606 6.36016 54.4338 4.121C51.2883 7.3198 52.8743 13.2376 52.9543 13.5308C53.1542 14.2372 52.7277 14.9703 52.0213 15.1702C51.9014 15.2102 51.7814 15.2235 51.6615 15.2235ZM67.4156 21.8477C66.7225 21.8477 66.136 21.3012 66.0827 20.5948C65.8695 17.1561 66.4026 14.5704 67.0957 12.7311C65.0165 14.3971 64.43 17.0228 64.43 17.0628C64.2701 17.7825 63.5637 18.249 62.8439 18.0891C62.1242 17.9425 61.671 17.2228 61.8176 16.503C61.8843 16.2231 63.3904 9.47899 70.0013 8.77259C70.5744 8.70594 71.1075 9.02582 71.3474 9.54563C71.5873 10.0654 71.4674 10.6785 71.0542 11.0784C70.9476 11.185 68.3352 13.8507 68.7351 20.4349C68.7462 20.6101 68.7226 20.7857 68.6656 20.9517C68.6086 21.1177 68.5193 21.2708 68.4028 21.4022C68.2863 21.5335 68.145 21.6405 67.987 21.7169C67.829 21.7934 67.6574 21.8378 67.4822 21.8477H67.4156ZM6.66498 62.9656H1.72016C0.987104 62.9656 0.387329 62.3658 0.387329 61.6328V37.0953C0.387329 36.3623 0.987104 35.7625 1.72016 35.7625H6.66498C7.39804 35.7625 7.99781 36.3623 7.99781 37.0953C7.99781 37.8284 7.39804 38.4281 6.66498 38.4281H3.053V60.2999H6.66498C7.39804 60.2999 7.99781 60.8997 7.99781 61.6328C7.99781 62.3658 7.39804 62.9656 6.66498 62.9656Z" fill="white"/>
<path d="M69.2948 62.8457L77.2947 62.8871L77.2948 62.8664V62.8457H69.2948ZM50.3819 14.2505L58.1 12.1456L58.097 12.1343L58.0939 12.1231L50.3819 14.2505ZM56.0731 0.0691805L53.5433 -7.52029L53.5215 -7.51302L53.4997 -7.50562L56.0731 0.0691805ZM57.7525 1.80186L50.2281 -0.915291L50.09 -0.532871L49.9914 -0.13842L57.7525 1.80186ZM57.5526 11.4516L50.0721 14.2875L50.0789 14.3055L50.0858 14.3234L57.5526 11.4516ZM56.7795 13.1709L59.6351 20.6439L59.6432 20.6408L59.6514 20.6377L56.7795 13.1709ZM55.0602 12.3979L62.5453 9.5742L62.5425 9.56676L55.0602 12.3979ZM54.4338 4.121L62.3249 5.43619L66.489 -19.5486L48.7296 -1.48812L54.4338 4.121ZM52.9543 13.5308L45.2362 15.6357L45.2463 15.6726L45.2567 15.7094L52.9543 13.5308ZM52.0213 15.1702L49.8427 7.47254L49.6659 7.5226L49.4915 7.58072L52.0213 15.1702ZM66.0827 20.5948L58.0981 21.09L58.1014 21.1435L58.1054 21.1969L66.0827 20.5948ZM67.0957 12.7311L74.5818 15.552L84.8761 -11.7675L62.0932 6.48806L67.0957 12.7311ZM64.43 17.0628L72.2395 18.7983L72.43 17.941V17.0628H64.43ZM62.8439 18.0891L64.5794 10.2796L64.5102 10.2642L64.4408 10.2501L62.8439 18.0891ZM61.8176 16.503L54.0352 14.6501L54.0048 14.7777L53.9786 14.9062L61.8176 16.503ZM70.0013 8.77259L70.8512 16.7273L70.8883 16.7233L70.9253 16.719L70.0013 8.77259ZM71.0542 11.0784L65.4908 5.32957L65.4437 5.37517L65.3973 5.42154L71.0542 11.0784ZM68.7351 20.4349L60.7498 20.9198L60.7505 20.9321L60.7513 20.9445L68.7351 20.4349ZM67.4822 21.8477V29.8477H67.7067L67.9309 29.8351L67.4822 21.8477ZM3.053 38.4281V30.4281H-4.947V38.4281H3.053ZM3.053 60.2999H-4.947V68.2999H3.053V60.2999ZM64.6299 59.5106H63.7236V75.5106H64.6299V59.5106ZM63.7236 59.5106C67.4088 59.5106 70.3908 62.4925 70.3908 66.1777H54.3908C54.3908 71.3291 58.5723 75.5106 63.7236 75.5106V59.5106ZM70.3908 66.1777C70.3908 69.863 67.4088 72.8449 63.7236 72.8449V56.8449C58.5723 56.8449 54.3908 61.0264 54.3908 66.1777H70.3908ZM63.7236 72.8449H64.6299V56.8449H63.7236V72.8449ZM64.6299 72.8449C70.1545 72.8449 74.6292 68.3702 74.6292 62.8457H58.6292C58.6292 59.5336 61.3179 56.8449 64.6299 56.8449V72.8449ZM74.6292 62.8457V42.1201H58.6292V62.8457H74.6292ZM74.6292 42.1201C74.6292 45.8053 71.6472 48.7873 67.962 48.7873V32.7873C62.8107 32.7873 58.6292 36.9688 58.6292 42.1201H74.6292ZM67.962 48.7873C64.2768 48.7873 61.2948 45.8053 61.2948 42.1201H77.2948C77.2948 36.9688 73.1133 32.7873 67.962 32.7873V48.7873ZM61.2948 42.1201V62.8457H77.2948V42.1201H61.2948ZM61.295 62.8042C61.3042 61.0136 62.7479 59.5106 64.6299 59.5106V75.5106C71.63 75.5106 77.2588 69.8225 77.2947 62.8871L61.295 62.8042ZM51.6615 7.2235C54.5642 7.2235 57.28 9.13863 58.1 12.1456L42.6638 16.3555C43.8038 20.5353 47.5858 23.2235 51.6615 23.2235V7.2235ZM58.0939 12.1231C57.9869 11.7355 57.8693 11.1079 57.837 10.3807C57.8046 9.65285 57.866 9.01308 57.9873 8.52545C58.1057 8.04908 58.2413 7.86899 58.2663 7.83876C58.2776 7.82511 58.2887 7.81348 58.3162 7.79459C58.3443 7.77534 58.4396 7.71429 58.6465 7.64398L53.4997 -7.50562C46.8811 -5.25706 43.6456 -0.103469 42.46 4.66469C41.361 9.08496 41.8696 13.4766 42.67 16.378L58.0939 12.1231ZM58.603 7.65865C56.2861 8.43093 53.5724 7.89664 51.7005 5.95547L63.218 -5.1507C60.6265 -7.83825 56.8198 -8.61245 53.5433 -7.52029L58.603 7.65865ZM51.7005 5.95547C49.8772 4.06466 49.3987 1.38154 50.2281 -0.915291L65.2769 4.51902C66.4529 1.26255 65.761 -2.5135 63.218 -5.1507L51.7005 5.95547ZM49.9914 -0.13842C50.2353 -1.11397 49.4232 1.49498 49.0908 3.85797C48.7383 6.36396 48.5545 10.2844 50.0721 14.2875L65.0331 8.61569C64.8579 8.15376 64.7675 7.27601 64.9348 6.08671C65.0088 5.56083 65.1145 5.10845 65.198 4.80065C65.2387 4.65082 65.2718 4.54375 65.2896 4.48838C65.2982 4.46135 65.3041 4.44396 65.3071 4.43515C65.3097 4.42725 65.3098 4.42704 65.3169 4.40631C65.318 4.40312 65.3279 4.37414 65.3388 4.34151C65.3438 4.32651 65.3576 4.28509 65.3744 4.23251C65.3827 4.2062 65.3979 4.15823 65.4159 4.098C65.4283 4.05655 65.4693 3.91957 65.5136 3.74215L49.9914 -0.13842ZM50.0858 14.3234C48.7341 10.8089 50.5613 6.99124 53.9077 5.70417L59.6514 20.6377C64.3839 18.8175 66.9042 13.4804 65.0193 8.57975L50.0858 14.3234ZM53.924 5.69794C54.7443 5.38446 55.6186 5.23606 56.4966 5.26132L56.0364 21.2547C57.2645 21.29 58.4875 21.0825 59.6351 20.6439L53.924 5.69794ZM56.4966 5.26132C57.3745 5.28659 58.2388 5.48499 59.0398 5.84515L52.4787 20.438C53.5993 20.9418 54.8083 21.2194 56.0364 21.2547L56.4966 5.26132ZM59.0398 5.84515C59.8408 6.20528 60.5629 6.72008 61.1645 7.36007L49.5066 18.3189C50.3482 19.2141 51.3582 19.9342 52.4787 20.438L59.0398 5.84515ZM61.1645 7.36007C61.766 7.99995 62.2352 8.75238 62.5453 9.5742L47.5751 15.2216C48.0087 16.3712 48.6652 17.4237 49.5066 18.3189L61.1645 7.36007ZM62.5425 9.56676C62.112 8.42915 62.0768 6.92481 62.3249 5.43619L46.5426 2.8058C46.0443 5.7955 45.7692 10.4489 47.5779 15.229L62.5425 9.56676ZM48.7296 -1.48812C44.9436 2.36202 44.4659 7.27245 44.4847 9.97114C44.505 12.8915 45.1201 15.21 45.2362 15.6357L60.6724 11.4259C60.6993 11.5244 60.65 11.3595 60.5943 11.0344C60.5361 10.6949 60.4872 10.275 60.4843 9.85984C60.4813 9.42568 60.5303 9.188 60.5483 9.12577C60.5584 9.09098 60.4786 9.38369 60.1379 9.73011L48.7296 -1.48812ZM45.2567 15.7094C44.2094 12.0091 46.455 8.43134 49.8427 7.47254L54.1999 22.8678C59.0005 21.5092 62.0991 16.4654 60.652 11.3522L45.2567 15.7094ZM49.4915 7.58072C50.4052 7.27617 51.186 7.2235 51.6615 7.2235V23.2235C52.3768 23.2235 53.3976 23.1442 54.5511 22.7597L49.4915 7.58072ZM67.4156 13.8477C70.9858 13.8477 73.8044 16.6051 74.06 19.9928L58.1054 21.1969C58.4677 25.9973 62.4592 29.8477 67.4156 29.8477V13.8477ZM74.0674 20.0997C73.9225 17.7637 74.2962 16.31 74.5818 15.552L59.6095 9.91023C58.509 12.8308 57.8164 16.5485 58.0981 21.09L74.0674 20.0997ZM62.0932 6.48806C59.7777 8.34349 58.4556 10.5791 57.7358 12.1191C57.3603 12.9225 57.0992 13.6424 56.9234 14.2009C56.835 14.4818 56.7634 14.7366 56.7069 14.9584C56.6793 15.0668 56.6508 15.1847 56.6239 15.3072C56.6114 15.3639 56.5921 15.454 56.5716 15.5624C56.5622 15.6119 56.5438 15.7112 56.5244 15.8363C56.515 15.8971 56.4985 16.0081 56.4825 16.1475C56.4746 16.216 56.43 16.5876 56.43 17.0628H72.43C72.43 17.3396 72.4154 17.5588 72.4068 17.6718C72.397 17.7999 72.3858 17.905 72.3777 17.9753C72.3619 18.1135 72.3456 18.2229 72.3364 18.2818C72.3177 18.4032 72.3001 18.4975 72.2919 18.5408C72.2737 18.6369 72.258 18.7097 72.2503 18.7446C72.233 18.8234 72.2191 18.8791 72.2116 18.9087C72.1953 18.9727 72.1858 19.0028 72.1849 19.0059C72.184 19.0087 72.1995 18.9607 72.2305 18.8944C72.3237 18.695 72.3345 18.7848 72.0981 18.9741L62.0932 6.48806ZM56.6205 15.3274C57.3846 11.8889 60.8328 9.44703 64.5794 10.2796L61.1085 25.8986C66.2945 27.051 71.1555 23.6762 72.2395 18.7983L56.6205 15.3274ZM64.4408 10.2501C68.2556 11.0272 70.3496 14.6983 69.6567 18.0999L53.9786 14.9062C52.9925 19.7472 55.9928 24.8578 61.2471 25.9281L64.4408 10.2501ZM69.6001 18.356C69.6101 18.3141 69.6048 18.3337 69.612 18.3084C69.6228 18.2704 69.6489 18.1837 69.6931 18.0648C69.7885 17.8082 69.9283 17.5095 70.1033 17.2481C70.2752 16.9912 70.4093 16.8767 70.4712 16.8342C70.4897 16.8215 70.5668 16.7577 70.8512 16.7273L69.1513 0.81787C62.8528 1.49089 58.9335 5.17149 56.8075 8.34743C55.7713 9.89531 55.1088 11.3793 54.6965 12.488C54.4868 13.0518 54.3327 13.5434 54.2226 13.9305C54.1672 14.125 54.1231 14.293 54.0887 14.4297C54.0565 14.5579 54.026 14.6887 54.0352 14.6501L69.6001 18.356ZM70.9253 16.719C67.8632 17.0751 65.207 15.3318 64.0837 12.8981L78.6111 6.19316C77.008 2.71982 73.2855 0.33679 69.0772 0.826127L70.9253 16.719ZM64.0837 12.8981C62.8688 10.2656 63.5131 7.24352 65.4908 5.32957L76.6176 16.8272C79.4217 14.1136 80.3059 9.86523 78.6111 6.19316L64.0837 12.8981ZM65.3973 5.42154C63.9002 6.91863 60.1926 11.7448 60.7498 20.9198L76.7203 19.9499C76.5908 17.816 76.9636 16.7111 77.1062 16.3636C77.2553 16.0001 77.2755 16.1708 76.711 16.7352L65.3973 5.42154ZM60.7513 20.9445C60.6952 20.0662 60.8136 19.1853 61.0995 18.3528L76.2317 23.5506C76.6317 22.3861 76.7972 21.154 76.7188 19.9253L60.7513 20.9445ZM61.0995 18.3528C61.3855 17.5203 61.8334 16.7528 62.4173 16.0943L74.3883 26.7101C75.2052 25.7889 75.8317 24.7151 76.2317 23.5506L61.0995 18.3528ZM62.4173 16.0943C63.0012 15.4358 63.7097 14.8994 64.5021 14.5159L71.4719 28.918C72.5804 28.3816 73.5715 27.6311 74.3883 26.7101L62.4173 16.0943ZM64.5021 14.5159C65.2945 14.1324 66.1548 13.9096 67.0335 13.8603L67.9309 29.8351C69.1601 29.766 70.3636 29.4544 71.4719 28.918L64.5021 14.5159ZM67.4822 13.8477H67.4156V29.8477H67.4822V13.8477ZM6.66498 54.9656H1.72016V70.9656H6.66498V54.9656ZM1.72016 54.9656C5.40538 54.9656 8.38733 57.9476 8.38733 61.6328H-7.61267C-7.61267 66.7841 -3.43117 70.9656 1.72016 70.9656V54.9656ZM8.38733 61.6328V37.0953H-7.61267V61.6328H8.38733ZM8.38733 37.0953C8.38733 40.7805 5.40538 43.7625 1.72016 43.7625V27.7625C-3.43117 27.7625 -7.61267 31.944 -7.61267 37.0953H8.38733ZM1.72016 43.7625H6.66498V27.7625H1.72016V43.7625ZM6.66498 43.7625C2.97976 43.7625 -0.00218868 40.7805 -0.00218868 37.0953H15.9978C15.9978 31.944 11.8163 27.7625 6.66498 27.7625V43.7625ZM-0.00218868 37.0953C-0.00218868 33.4101 2.97976 30.4281 6.66498 30.4281V46.4281C11.8163 46.4281 15.9978 42.2466 15.9978 37.0953H-0.00218868ZM6.66498 30.4281H3.053V46.4281H6.66498V30.4281ZM-4.947 38.4281V60.2999H11.053V38.4281H-4.947ZM3.053 68.2999H6.66498V52.2999H3.053V68.2999ZM6.66498 68.2999C2.97976 68.2999 -0.00218868 65.318 -0.00218868 61.6328H15.9978C15.9978 56.4814 11.8163 52.2999 6.66498 52.2999V68.2999ZM-0.00218868 61.6328C-0.00218868 57.9476 2.97976 54.9656 6.66498 54.9656V70.9656C11.8163 70.9656 15.9978 66.7841 15.9978 61.6328H-0.00218868Z" fill="white" mask="url(#path-13-inside-5_1_2430)"/>
</svg>
