<svg width="31" height="31" viewBox="0 0 31 31" fill="none" xmlns="http://www.w3.org/2000/svg">
<path d="M3.34537 14.2046C2.74132 14.2063 2.15009 14.379 1.64008 14.7027C1.13008 15.0264 0.722136 15.4879 0.463456 16.0337C0.204776 16.5796 0.105929 17.1875 0.17835 17.7872C0.250772 18.3869 0.491503 18.9539 0.872692 19.4225L8.99875 29.3769C9.28848 29.7366 9.65988 30.0221 10.0821 30.2095C10.5043 30.3969 10.9651 30.4809 11.4263 30.4544C12.4126 30.4014 13.3031 29.8738 13.8708 29.0063L30.7507 1.82124C30.7535 1.81669 30.7564 1.81221 30.7593 1.80777C30.9177 1.56459 30.8663 1.08267 30.5394 0.779918C30.4496 0.696779 30.3438 0.632906 30.2283 0.592231C30.1129 0.551556 29.9904 0.534941 29.8683 0.543409C29.7462 0.551877 29.6271 0.58525 29.5184 0.641471C29.4097 0.697692 29.3137 0.775571 29.2362 0.870313C29.2302 0.877762 29.2239 0.885098 29.2175 0.892322L12.1939 20.1264C12.1291 20.1996 12.0505 20.2592 11.9625 20.3018C11.8745 20.3443 11.7789 20.3689 11.6813 20.3742C11.5837 20.3795 11.486 20.3653 11.3939 20.3325C11.3019 20.2997 11.2172 20.249 11.1449 20.1832L5.49511 15.0418C4.90833 14.5039 4.14139 14.2052 3.34537 14.2046Z" fill="#65991D"/>
</svg>
